<svg xmlns="http://www.w3.org/2000/svg" width="20.502" height="25.678"><path data-name="Path 127" d="M4.639 25.678a4.637 4.637 0 01-4.638-4.641v-.486a4.633 4.633 0 014.638-4.635h11.227a4.6 4.6 0 014.636 4.635v.486a4.634 4.634 0 01-4.636 4.641zm-3.125-5.127v.486a3.168 3.168 0 003.174 3.176h11.227a3.167 3.167 0 003.171-3.176v-.486a3.165 3.165 0 00-3.171-3.17H4.688a3.165 3.165 0 00-3.175 3.17zM3.76 6.543a6.517 6.517 0 116.491 6.492A6.5 6.5 0 013.76 6.543zm1.416-.047a5.077 5.077 0 105.075-5.033 5.041 5.041 0 00-5.075 5.033z" fill="#6d65ec"/></svg>
