<svg xmlns="http://www.w3.org/2000/svg" width="26.945" height="29.518" viewBox="0 0 26.945 29.518">
  <g id="agenda" transform="translate(-0.5)" opacity="0.55">
    <path id="Path_343" data-name="Path 343" d="M34.558,35.859V12.942a2.5,2.5,0,0,1,2.5-2.5h-2.2a2.5,2.5,0,0,0-2.5,2.5V35.859a2.5,2.5,0,0,0,2.5,2.5h2.2A2.5,2.5,0,0,1,34.558,35.859Zm0,0" transform="translate(-29.516 -9.678)" fill="#d4e1f4"/>
    <path id="Path_344" data-name="Path 344" d="M45.263,26.14V3.378A3.381,3.381,0,0,0,41.886,0H23.108A3.382,3.382,0,0,0,19.73,3.378V26.14a3.382,3.382,0,0,0,3.378,3.378H41.886A3.381,3.381,0,0,0,45.263,26.14ZM44.382,3.378V26.14a2.5,2.5,0,0,1-2.5,2.5H25.91V.881H41.886A2.5,2.5,0,0,1,44.382,3.378ZM20.612,26.14V3.378a2.5,2.5,0,0,1,2.5-2.5h1.921V28.636H23.108A2.5,2.5,0,0,1,20.612,26.14Zm0,0" transform="translate(-17.818)" fill="#0635c9"/>
    <g id="Group_179" data-name="Group 179" transform="translate(0.5 6.358)">
      <path id="Path_345" data-name="Path 345" d="M151.191,86.594h-9.07a1.768,1.768,0,0,0-1.765,1.765v5.623a1.768,1.768,0,0,0,1.765,1.765h9.07a1.768,1.768,0,0,0,1.765-1.765V88.359A1.768,1.768,0,0,0,151.191,86.594Zm.884,7.389a.885.885,0,0,1-.884.884h-9.07a.885.885,0,0,1-.884-.884V88.359a.885.885,0,0,1,.884-.884h9.07a.885.885,0,0,1,.884.884Zm0,0" transform="translate(-130.086 -86.594)" fill="#1ae5be"/>
      <path id="Path_346" data-name="Path 346" d="M5.619,195H.941a.441.441,0,1,0,0,.881H5.619a.441.441,0,1,0,0-.881Zm0,0" transform="translate(-0.5 -187.04)" fill="#1ae5be"/>
      <path id="Path_347" data-name="Path 347" d="M5.619,140.859H.941a.441.441,0,1,0,0,.881H5.619a.441.441,0,1,0,0-.881Zm0,0" transform="translate(-0.5 -136.875)" fill="#1ae5be"/>
      <path id="Path_348" data-name="Path 348" d="M5.619,249.141H.941a.441.441,0,1,0,0,.881H5.619a.441.441,0,1,0,0-.881Zm0,0" transform="translate(-0.5 -237.205)" fill="#1ae5be"/>
      <path id="Path_349" data-name="Path 349" d="M5.619,303.277H.941a.441.441,0,1,0,0,.881H5.619a.441.441,0,1,0,0-.881Zm0,0" transform="translate(-0.5 -287.367)" fill="#1ae5be"/>
      <path id="Path_350" data-name="Path 350" d="M5.619,86.723H.941a.441.441,0,1,0,0,.881H5.619a.441.441,0,1,0,0-.881Zm0,0" transform="translate(-0.5 -86.713)" fill="#1ae5be"/>
    </g>
  </g>
</svg>
