<svg xmlns="http://www.w3.org/2000/svg" width="21.888" height="34.337" viewBox="0 0 21.888 34.337">
  <g id="app" transform="translate(-640.944 -405.743)">
    <path id="Path_15" data-name="Path 15" d="M657.483,405.743H646.294a5.357,5.357,0,0,0-5.35,5.35V434.73a5.357,5.357,0,0,0,5.35,5.35h11.189a5.356,5.356,0,0,0,5.349-5.35V411.093A5.356,5.356,0,0,0,657.483,405.743Zm3,28.987a3.006,3.006,0,0,1-3,3H646.294a3.007,3.007,0,0,1-3-3V411.093a3.007,3.007,0,0,1,3-3h11.189a3.006,3.006,0,0,1,3,3Z" fill="#E3EFF7"/>
    <path id="Path_16" data-name="Path 16" d="M657.614,438.625h-8.332a1.173,1.173,0,0,0,0,2.347h8.332a1.173,1.173,0,0,0,0-2.347Z" transform="translate(-1.56 -7.158)" fill="#E3EFF7"/>
  </g>
</svg>
