<svg xmlns="http://www.w3.org/2000/svg" width="12.46" height="10.349" viewBox="0 0 12.46 10.349">
  <g id="back" transform="translate(0 -41.674)">
    <g id="Group_64" data-name="Group 64" transform="translate(0 41.674)">
      <path id="Path_157" data-name="Path 157" d="M11.759,45.871l.019,0H3.441l2.621-2.627a.688.688,0,0,0,0-.968l-.408-.408a.682.682,0,0,0-.963,0L.2,46.365a.687.687,0,0,0,0,.966l4.493,4.493a.683.683,0,0,0,.963,0l.408-.408a.675.675,0,0,0,.2-.481.655.655,0,0,0-.2-.472L3.412,47.821h8.357a.706.706,0,0,0,.691-.7v-.577A.692.692,0,0,0,11.759,45.871Z" transform="translate(0 -41.674)" fill="#6d65ec"/>
    </g>
  </g>
</svg>
