<svg xmlns="http://www.w3.org/2000/svg" width="51.051" height="34.834" viewBox="0 0 51.051 34.834">
  <path id="book" d="M22.109,134.745H70.774a1.213,1.213,0,0,0,1.135-1.583l-1.932-5.95c.234.008.441.016.615.025a1.194,1.194,0,0,0,1.139-1.711L69.3,120.484c.68-.174,1.227-.29,1.612-.364a1.193,1.193,0,0,0,.81-1.765h0L61.511,100.512a1.193,1.193,0,0,0-1.826-.3L46.122,112.189a1.189,1.189,0,0,0-.137-.01H30.2a1.189,1.189,0,0,0-1.108.75L21,133.079a1.22,1.22,0,0,0,.119,1.127A1.205,1.205,0,0,0,22.109,134.745Zm26.857-1.519c2.628-1.627,7.222-4.284,10.925-5.095a41.76,41.76,0,0,1,8.481-.922l1.953,6.017Zm21.159-7.532c-.336-.012-.736-.022-1.187-.025H68.9a43.538,43.538,0,0,0-9.337.964,31.379,31.379,0,0,0-7.5,3.005,50.677,50.677,0,0,1,8.367-5.667,41.137,41.137,0,0,1,7.383-3.072Zm-22.947-12.41,13.213-11.67,9.789,17.105a40.711,40.711,0,0,0-10.462,3.914,53.764,53.764,0,0,0-12.539,9.4Zm-16.76.415H45.66v19.527H22.59Z" transform="translate(-20.916 -99.911)" fill="#E3EFF7"/>
</svg>
