<svg xmlns="http://www.w3.org/2000/svg" width="27.219" height="35.147" viewBox="0 0 27.219 35.147">
  <g id="bookmark" transform="translate(-0.371 0.001)" opacity="0.55">
    <path id="Path_351" data-name="Path 351" d="M29.429,41.044l-12.526.05a2.555,2.555,0,0,1-2.567-2.542l-.109-22.805a2.55,2.55,0,0,1,.157-.9,2.559,2.559,0,0,0-1.672,2.411l.109,22.805a2.554,2.554,0,0,0,2.567,2.542l14.033-.059Zm0,0" transform="translate(-11.405 -13.727)" fill="#d4e1f4"/>
    <g id="Group_180" data-name="Group 180" transform="translate(0.371 -0.001)">
      <path id="Path_352" data-name="Path 352" d="M4.02,29.86h.017L18.351,29.8l0-.909-14.314.062H4.02a2.634,2.634,0,0,1-2.63-2.618L1.28,3.6A2.634,2.634,0,0,1,3.9.96L14.418.91l.02,4.271A3.544,3.544,0,0,0,17.977,8.7h.017l4.271-.02.059,11.232.909,0-.062-11.7a.455.455,0,0,0-.135-.321L15.206.146a.456.456,0,0,0-.277-.129L14.767,0a.334.334,0,0,0-.046,0L3.894.051A3.544,3.544,0,0,0,.371,3.608L.48,26.337A3.544,3.544,0,0,0,4.02,29.86ZM17.991,7.794a2.631,2.631,0,0,1-2.643-2.618L15.33,1.547l6.3,6.23Zm0,0" transform="translate(-0.371 0.001)" fill="#0635c9"/>
      <path id="Path_353" data-name="Path 353" d="M139.791,221.52a.455.455,0,0,0,0,.91h1.542a.455.455,0,1,0,0-.91Zm0,0" transform="translate(-128.804 -204.73)" fill="#0635c9"/>
      <path id="Path_354" data-name="Path 354" d="M74.615,171.091a.455.455,0,0,0-.455-.455h-12.8a.455.455,0,0,0,0,.909h12.8A.455.455,0,0,0,74.615,171.091Zm0,0" transform="translate(-56.315 -157.704)" fill="#0635c9"/>
      <path id="Path_355" data-name="Path 355" d="M61.357,221.52a.455.455,0,0,0,0,.91h3.991a.455.455,0,1,0,0-.91Zm0,0" transform="translate(-56.315 -204.73)" fill="#0635c9"/>
    </g>
    <path id="Path_356" data-name="Path 356" d="M232.516,272.866a.654.654,0,0,0,.7-.076l.023-.019,3.912-3.518,3.547,3.5a.455.455,0,0,0,.038.033.659.659,0,0,0,1.067-.517V259.256a1.973,1.973,0,0,0-1.971-1.971h-5.712a1.973,1.973,0,0,0-1.971,1.971v13.017A.655.655,0,0,0,232.516,272.866Zm.538-13.61a1.063,1.063,0,0,1,1.061-1.061h5.712a1.062,1.062,0,0,1,1.061,1.061v12.415L237.48,268.3a.455.455,0,0,0-.624-.014l-3.8,3.419Zm0,0" transform="translate(-214.207 -237.786)" fill="#1ae5be"/>
  </g>
</svg>
