<svg xmlns="http://www.w3.org/2000/svg" width="14.067" height="33.756" viewBox="0 0 14.067 33.756">
  <path id="business" d="M.944,6.422,3.588,1.314A.844.844,0,0,0,2.838.082H-8.222a.844.844,0,0,0-.721.406.844.844,0,0,0-.028.827l2.644,5.108L-9.681,25.387a2.909,2.909,0,0,0,.614,2.351l4.122,5.034a2.911,2.911,0,0,0,2.252,1.067A2.912,2.912,0,0,0-.44,32.772l4.122-5.034A2.909,2.909,0,0,0,4.3,25.387ZM1.452,1.77-.45,5.483H-4.934l-1.9-3.713Zm.925,24.9L-1.745,31.7a1.224,1.224,0,0,1-.946.448,1.223,1.223,0,0,1-.946-.448L-7.76,26.669a1.179,1.179,0,0,1-.258-.968l3.279-18.53H-.645L2.635,25.7a1.178,1.178,0,0,1-.258.968Zm0,0" transform="translate(9.725 -0.082)" fill="#E3EFF7"/>
</svg>
