<svg id="check" xmlns="http://www.w3.org/2000/svg" width="20" height="20" viewBox="0 0 20 20">
  <g id="Group_62" data-name="Group 62">
    <circle id="Ellipse_247" data-name="DragAndClose 247" cx="9.228" cy="9.228" r="9.228" transform="translate(0.772 0.772)" fill="#6d65ec"/>
    <path id="Path_150" data-name="Path 150" d="M10,20A10,10,0,1,1,20,10,10.011,10.011,0,0,1,10,20ZM10,1.549A8.451,8.451,0,1,0,18.451,10,8.46,8.46,0,0,0,10,1.549Z" fill="#6d65ec"/>
  </g>
  <path id="Path_151" data-name="Path 151" d="M135.686,169.156a.771.771,0,0,1-.55-.231l-2.848-2.894a.772.772,0,0,1,1.1-1.082l2.275,2.312,4.707-5.184a.772.772,0,1,1,1.142,1.038l-5.256,5.788a.772.772,0,0,1-.556.253Z" transform="translate(-126.89 -155.49)" fill="#fff"/>
</svg>
