<svg xmlns="http://www.w3.org/2000/svg" width="42.778" height="34.041" viewBox="0 0 42.778 34.041">
  <g id="cinema" transform="translate(0.02 -0.02)">
    <path id="Path_145" data-name="Path 145" d="M42.28,9.6C41.747,6.252,40.3,3.89,38.014,2.6,35.195,1.071,32.071.767,29.1.462L28.49.386A71.767,71.767,0,0,0,10.433.843a19.925,19.925,0,0,0-4.114.99,8.389,8.389,0,0,0-3.962,2.59C.833,6.252.529,8.69.3,10.747a73.665,73.665,0,0,0-.3,7.39c0,.99.076,2.133.152,3.276.229,2.286.61,5.181,2.209,7.543,2.057,3.2,5.562,3.962,8,4.267a83.815,83.815,0,0,0,10.666.838h.229a71.139,71.139,0,0,0,10.666-.914c2.743-.381,5.638-.99,7.619-2.819,2.209-1.981,2.667-4.876,2.9-7.7A53.514,53.514,0,0,0,42.28,9.6ZM40.147,22.48c-.229,2.438-.533,4.724-2.133,6.171s-4.19,1.9-6.4,2.209a70.77,70.77,0,0,1-10.59.838,80.3,80.3,0,0,1-10.438-.838c-3.2-.381-5.1-1.371-6.324-3.2a14.882,14.882,0,0,1-1.829-6.476c-.076-.99-.076-2.133-.152-3.048a53.393,53.393,0,0,1,.3-7.162,9.579,9.579,0,0,1,1.524-5.1,6.7,6.7,0,0,1,2.971-1.9h0a17.856,17.856,0,0,1,3.657-.838A70.649,70.649,0,0,1,21.252,2.29c2.286,0,4.648.152,7.009.381l.61.076c2.819.3,5.638.533,8.076,1.9,1.676.914,2.743,2.743,3.124,5.333A52.826,52.826,0,0,1,40.147,22.48Z" transform="translate(0 0)" fill="#E3EFF7"/>
    <path id="Path_146" data-name="Path 146" d="M32.528,16.809l-5.562-3.276A3.691,3.691,0,0,0,24.986,13,3.9,3.9,0,0,0,21.1,16.886v6.552a3.9,3.9,0,0,0,3.886,3.886,3.691,3.691,0,0,0,1.981-.533l5.562-3.276a3.9,3.9,0,0,0,0-6.7Zm-1.143,4.724-5.562,3.276a1.536,1.536,0,0,1-.838.229,1.609,1.609,0,0,1-1.6-1.6V16.809a1.609,1.609,0,0,1,1.6-1.6,1.737,1.737,0,0,1,.838.229l5.562,3.276A1.708,1.708,0,0,1,31.386,21.533Z" transform="translate(-5.029 -3.091)" fill="#E3EFF7"/>
  </g>
</svg>
