<svg xmlns="http://www.w3.org/2000/svg" width="45.835" height="35.454" viewBox="0 0 45.835 35.454">
  <g id="files-and-folders" transform="translate(-271.158 -213.577)">
    <path id="Path_165" data-name="Path 165" d="M111.94,286.27l.6-.83,1.129.894a3.131,3.131,0,0,0,4.37-.329,3.059,3.059,0,0,0,.734-1.624,3.123,3.123,0,0,0,3.244-.935,3.059,3.059,0,0,0,.733-1.625,3.122,3.122,0,0,0,3.244-.935,3.06,3.06,0,0,0,.715-1.516,3.136,3.136,0,0,0,3.494-.861l.038-.043a3.012,3.012,0,0,0-.316-4.273l-.687-.588a6.618,6.618,0,0,0,1.268-1.12,1.824,1.824,0,0,0,1.481.759,1.846,1.846,0,0,0,.73-.151l3.167-1.36a1.819,1.819,0,0,0,.932-2.45l-7.676-16.226a1.839,1.839,0,0,0-2.326-.92l-3.255,1.271a1.819,1.819,0,0,0-.986,2.477l.34.714-.1.043a6.414,6.414,0,0,1-3.395-.139l-3.252-.906a5.167,5.167,0,0,0-2.939.047l-3.138.984a5.145,5.145,0,0,0-1.718.926,6.7,6.7,0,0,0-2.571-.244l.228-.43a1.82,1.82,0,0,0-.671-2.409l-2.989-1.8a1.836,1.836,0,0,0-2.571.712l-8.426,15.988A1.809,1.809,0,0,0,92.1,271.8l3.007,1.68a1.825,1.825,0,0,0,.893.234,1.855,1.855,0,0,0,.524-.076,1.816,1.816,0,0,0,1.1-.9l.326-.614,1.085.9-1.9,2.62a2.9,2.9,0,0,0,2.345,4.6,2.95,2.95,0,0,0,.5-.044.149.149,0,0,1,0,.016,2.9,2.9,0,0,0,2.862,2.432,2.956,2.956,0,0,0,.506-.044c0,.006,0,.012,0,.017a2.9,2.9,0,0,0,2.862,2.433,2.939,2.939,0,0,0,.5-.044c0,.005,0,.011,0,.016a2.911,2.911,0,0,0,5.223,1.236Zm12.138-31.218a.154.154,0,0,1,.091-.089l3.255-1.271a.166.166,0,0,1,.211.08L135.31,270a.144.144,0,0,1,0,.115.154.154,0,0,1-.086.088l-3.167,1.36a.167.167,0,0,1-.216-.077l-.4-.842a.837.837,0,0,0-.149-.314l-7.214-15.159a.144.144,0,0,1,0-.117Zm-13.49,3.169,3.138-.984a3.5,3.5,0,0,1,1.992-.032l3.252.906a8,8,0,0,0,4.266.148.832.832,0,0,0,.151-.048l.246-.1,6.048,12.708a4.946,4.946,0,0,1-1.772,1.649l-2.458-2.1L116.911,262a4.745,4.745,0,0,0-2.039-1.177l-1.471-.411a.8.8,0,0,0-.228-.031,2.711,2.711,0,0,0-2.39,1.561,4.855,4.855,0,0,0-.491,1.38.817.817,0,0,0-.01.082q-.005.077-.013.153a3.179,3.179,0,0,1-1.43,2.346,3.349,3.349,0,0,1-2.7.409l.706-2.137c.189-.572.4-1.143.632-1.7l.956-2.308A3.456,3.456,0,0,1,110.588,258.221ZM96.147,271.964a.158.158,0,0,1-.1.078.167.167,0,0,1-.131-.014l-3.007-1.68a.15.15,0,0,1-.063-.2l8.426-15.988a.158.158,0,0,1,.1-.079.179.179,0,0,1,.047-.007.166.166,0,0,1,.086.025l2.989,1.8a.149.149,0,0,1,.058.2Zm2.6-1.338,6.07-11.454a6.133,6.133,0,0,1,2.347-.184,5.154,5.154,0,0,0-.263.528l-.959,2.316c-.246.594-.473,1.2-.674,1.814l-.957,2.9a.834.834,0,0,0,.455,1.025l.206.091a5,5,0,0,0,4.791-.366,4.84,4.84,0,0,0,2.171-3.579q.007-.072.013-.145c.046-.215.338-1.424,1.14-1.518l1.34.375a3.075,3.075,0,0,1,1.321.762l8.561,8.388.042.038,4.5,3.849a1.343,1.343,0,0,1,.142,1.909l-.037.043a1.463,1.463,0,0,1-2.049.156l-1.216-1.042-.005-.005-3.224-2.76a.834.834,0,1,0-1.085,1.267l.017.014.028.023,3.185,2.727a1.408,1.408,0,0,1,.143,2,1.457,1.457,0,0,1-2.04.147l-3.225-2.76a.834.834,0,0,0-1.377.618v0a.832.832,0,0,0,.292.647l2.225,1.9a1.409,1.409,0,0,1,.148,2,1.457,1.457,0,0,1-2.041.147l-1-.856h0l-1.224-1.047a.834.834,0,1,0-1.085,1.268l1.064.91.159.137a1.409,1.409,0,0,1,.148,2,1.457,1.457,0,0,1-2.04.147l-.025-.02L113.3,283.91a2.888,2.888,0,0,0-2.659-3.406,2.889,2.889,0,0,0-2.665-3.375,2.89,2.89,0,0,0-2.553-3.367,2.906,2.906,0,0,0-5.171-2.412l-.238.327Zm.013,7.727a1.231,1.231,0,0,1-.28-1.725l3.125-4.3a1.245,1.245,0,0,1,1.726-.28,1.23,1.23,0,0,1,.28,1.724l-.847,1.165-2.265,3.116-.013.018A1.244,1.244,0,0,1,98.757,278.353Zm3.368,2.405a1.229,1.229,0,0,1-.28-1.722l2.266-3.117a1.245,1.245,0,0,1,1.724-.28,1.231,1.231,0,0,1,.28,1.725l-.714.982-1.536,2.111-.013.018a1.247,1.247,0,0,1-1.728.282Zm3.371,2.407a1.231,1.231,0,0,1-.28-1.725l1.559-2.144a1.245,1.245,0,0,1,1.726-.28,1.23,1.23,0,0,1,.28,1.724l-1.035,1.423-.512.7h0l-.013.018a1.245,1.245,0,0,1-1.725.279Zm5.1,2.124a1.247,1.247,0,0,1-1.728.281,1.229,1.229,0,0,1-.28-1.722l.856-1.177a1.246,1.246,0,0,1,1.726-.28,1.23,1.23,0,0,1,.28,1.724Z" transform="translate(180 -38.434)" fill="#E3EFF7"/>
  </g>
</svg>
