<svg xmlns="http://www.w3.org/2000/svg" width="29.171" height="35.997" viewBox="0 0 29.171 35.997">
  <g id="contract" opacity="0.553">
    <path id="Path_336" data-name="Path 336" d="M28.582,41.512l-10.966.05A2.544,2.544,0,0,1,15.06,39.03l-.109-22.713a2.545,2.545,0,0,1,.156-.891,2.548,2.548,0,0,0-1.666,2.4L13.55,40.54a2.544,2.544,0,0,0,2.557,2.532l12.466-.059Zm0,0" transform="translate(-12.46 -14.261)" fill="#d4e1f4"/>
    <g id="Group_177" data-name="Group 177">
      <path id="Path_337" data-name="Path 337" d="M1.594,28.718a3.5,3.5,0,0,0,2.481,1.021h.017l12.52-.062,0-.906-12.52.062H4.075a2.62,2.62,0,0,1-2.619-2.607L1.347,3.589A2.62,2.62,0,0,1,3.954.956L14.431.906l.02,4.254a3.53,3.53,0,0,0,3.525,3.509h.017l4.254-.02.059,10.281.906-.005L23.151,8.3v-.13a.454.454,0,0,0-.134-.32L15.216.145a.455.455,0,0,0-.276-.128L14.778,0a.33.33,0,0,0-.045,0L3.949.051A3.526,3.526,0,0,0,.441,3.593L.55,26.231A3.5,3.5,0,0,0,1.594,28.718Zm16.4-20.956h-.013a2.623,2.623,0,0,1-2.619-2.607L15.34,1.54l6.277,6.2Zm0,0" transform="translate(-0.441 0.001)" fill="#0635c9"/>
      <path id="Path_338" data-name="Path 338" d="M139.867,221.516a.453.453,0,1,0,0,.906H141.4a.453.453,0,1,0,0-.906Zm0,0" transform="translate(-128.924 -204.795)" fill="#0635c9"/>
      <path id="Path_339" data-name="Path 339" d="M74.631,171.086a.453.453,0,0,0-.453-.453H61.426a.453.453,0,0,0,0,.906H74.178A.453.453,0,0,0,74.631,171.086Zm0,0" transform="translate(-56.403 -157.753)" fill="#0635c9"/>
      <path id="Path_340" data-name="Path 340" d="M61.426,221.516a.453.453,0,1,0,0,.906H65.4a.453.453,0,1,0,0-.906Zm0,0" transform="translate(-56.403 -204.795)" fill="#0635c9"/>
    </g>
    <path id="Path_341" data-name="Path 341" d="M210.6,261.276l.878.383a.452.452,0,0,0,.361,0l.989-.427a9.488,9.488,0,0,0,5.813-8.746v-4.438a.453.453,0,0,0-.24-.4l-6.506-3.467a.452.452,0,0,0-.43,0l-6.326,3.467a.452.452,0,0,0-.235.4v4.529A9.506,9.506,0,0,0,210.6,261.276ZM205.8,248.316l5.876-3.22,6.051,3.224v4.167a8.584,8.584,0,0,1-5.262,7.913h0l-.81.35-.7-.3a8.6,8.6,0,0,1-5.154-7.87Zm0,0" transform="translate(-189.465 -225.7)" fill="#1ae5be"/>
    <path id="Path_342" data-name="Path 342" d="M255.583,337.69a.453.453,0,0,0,.63.058l3.985-3.242a.453.453,0,0,0-.571-.7l-3.642,2.963-1.424-1.667a.453.453,0,1,0-.689.588Zm0,0" transform="translate(-234.638 -308.516)" fill="#1ae5be"/>
  </g>
</svg>
