<svg xmlns="http://www.w3.org/2000/svg" width="31.825" height="31.825" viewBox="0 0 31.825 31.825">
  <g id="cross" transform="translate(-151 -155)">
    <path id="Path_182" data-name="Path 182" d="M152.7,175.856h9.115v9.269a1.7,1.7,0,0,0,1.7,1.7h6.952a1.7,1.7,0,0,0,1.7-1.7v-9.269h8.96a1.7,1.7,0,0,0,1.7-1.7v-6.8a1.7,1.7,0,0,0-1.7-1.7h-8.96V156.7a1.7,1.7,0,0,0-1.7-1.7h-6.952a1.7,1.7,0,0,0-1.7,1.7v8.96H152.7a1.7,1.7,0,0,0-1.7,1.7v6.8A1.7,1.7,0,0,0,152.7,175.856Zm.463-8.033h9.115a1.7,1.7,0,0,0,1.7-1.7v-8.96H170v8.96a1.7,1.7,0,0,0,1.7,1.7h8.96v5.871H171.7a1.7,1.7,0,0,0-1.7,1.7v9.269h-6.025v-9.269a1.7,1.7,0,0,0-1.7-1.7h-9.115Z" fill="#a7a7be"/>
  </g>
</svg>
