<svg xmlns="http://www.w3.org/2000/svg" width="18.651" height="18.561" viewBox="0 0 18.651 18.561">
  <path id="date" d="M1098.068,736.288v-.4a.622.622,0,0,0-1.244,0v.395h-2.957v-.395a.622.622,0,0,0-1.244,0v.395h-2.864v-.338a.622.622,0,0,0-1.244,0v.367a4.852,4.852,0,0,0-4.323,4.816v7.853a4.851,4.851,0,0,0,4.845,4.846H1098a4.851,4.851,0,0,0,4.845-4.846v-7.853A4.849,4.849,0,0,0,1098.068,736.288Zm-9.554,1.283v.343a.622.622,0,1,0,1.244,0v-.386h2.864v.329a.622.622,0,0,0,1.244,0v-.329h2.957v.329a.622.622,0,0,0,1.244,0v-.325a3.6,3.6,0,0,1,3.529,3.6v.567h-16.162v-.567A3.6,3.6,0,0,1,1088.515,737.57ZM1098,752.584h-8.96a3.605,3.605,0,0,1-3.6-3.6V742.94H1101.6v6.042A3.605,3.605,0,0,1,1098,752.584Z" transform="translate(-1084.191 -735.267)" fill="#a7a7be"/>
</svg>
