<svg xmlns="http://www.w3.org/2000/svg" width="16.729" height="16.317" viewBox="0 0 16.729 16.317">
  <g id="delete" transform="translate(-860.802 -615.618)">
    <path id="Path_37" data-name="Path 37" d="M882.141,630.824a.519.519,0,0,0-.735,0l-2.027,2.027-2.027-2.027a.519.519,0,0,0-.734.734l2.027,2.027-2.027,2.027a.519.519,0,0,0,.734.735l2.027-2.027,2.027,2.027a.52.52,0,0,0,.735-.735l-2.027-2.027,2.027-2.027A.52.52,0,0,0,882.141,630.824Z" transform="translate(-10.206 -9.809)" fill="#a7a7be" stroke="#a7a7be" stroke-width="0.1"/>
    <path id="Path_38" data-name="Path 38" d="M877.318,620.232a4.513,4.513,0,0,0-1.655-3.3,7.478,7.478,0,0,0-3.508-1.053l-.228-.028a21.949,21.949,0,0,0-7.024.227,7.3,7.3,0,0,0-1.608.471,3.549,3.549,0,0,0-1.544,1.258,6.17,6.17,0,0,0-.775,2.984c-.074,1.035-.146,2.264-.117,3.533.011.474.026,1.027.063,1.576a9.052,9.052,0,0,0,.822,3.542,3.912,3.912,0,0,0,3.136,2.051,29.538,29.538,0,0,0,4.146.4h.091a23.048,23.048,0,0,0,4.154-.425,5.049,5.049,0,0,0,2.992-1.365,5.858,5.858,0,0,0,1.1-3.625A31.813,31.813,0,0,0,877.318,620.232Zm-1,6.168a5.077,5.077,0,0,1-.828,3,4.145,4.145,0,0,1-2.408,1.042,22.359,22.359,0,0,1-4.054.407,28.628,28.628,0,0,1-4-.385,2.833,2.833,0,0,1-2.368-1.507,8.117,8.117,0,0,1-.705-3.128c-.036-.528-.05-1.066-.061-1.529-.028-1.225.042-2.424.115-3.435a5.335,5.335,0,0,1,.6-2.483,2.5,2.5,0,0,1,1.1-.885,6.335,6.335,0,0,1,1.377-.4,21.382,21.382,0,0,1,4.028-.39,20.921,20.921,0,0,1,2.672.173l.232.028a6.585,6.585,0,0,1,3.043.876,3.562,3.562,0,0,1,1.216,2.585A30.879,30.879,0,0,1,876.322,626.4Z" fill="#a7a7be" stroke="#a7a7be" stroke-width="0.1"/>
  </g>
</svg>
