<svg xmlns="http://www.w3.org/2000/svg" width="43.648" height="34.726" viewBox="0 0 43.648 34.726">
  <g id="Email" transform="translate(-963.352 -232.602)">
    <path id="Path_27" data-name="Path 27" d="M1006.532,242.355c-.554-3.406-2.028-5.8-4.379-7.108-2.851-1.589-6.04-1.9-9.124-2.2l-.609-.06a71.479,71.479,0,0,0-18.476.481,22.541,22.541,0,0,0-4.172.983h0a8.928,8.928,0,0,0-4,2.638c-1.561,1.894-1.9,4.332-2.086,6.469a64.962,64.962,0,0,0-.31,7.577c.028,1.022.068,2.21.167,3.38a16.5,16.5,0,0,0,2.208,7.656c2.126,3.256,5.653,4.022,8.121,4.314a95.809,95.809,0,0,0,10.923.842h.235a74.877,74.877,0,0,0,10.934-.9c2.825-.413,5.72-1.043,7.755-2.849,2.264-2.01,2.688-4.973,2.93-7.836A55.07,55.07,0,0,0,1006.532,242.355Zm-2.179,13.2c-.211,2.5-.534,4.863-2.166,6.311-1.661,1.475-4.258,1.956-6.561,2.293a73.981,73.981,0,0,1-10.827.875,93.908,93.908,0,0,1-10.662-.825c-3.239-.384-5.234-1.4-6.469-3.29a14.411,14.411,0,0,1-1.841-6.594c-.094-1.11-.133-2.26-.161-3.251a63.017,63.017,0,0,1,.3-7.308c.166-1.876.426-3.824,1.569-5.21a6.729,6.729,0,0,1,3.013-1.94,20.429,20.429,0,0,1,3.741-.874,69.243,69.243,0,0,1,17.895-.466l.62.061c2.849.278,5.8.565,8.229,1.921,1.708.951,2.794,2.792,3.23,5.471A53.081,53.081,0,0,1,1004.353,255.55Z" transform="translate(0 0)" fill="#26CC83"/>
    <path id="Path_28" data-name="Path 28" d="M999.769,243.341,988.03,252.6a.725.725,0,0,1-.976,0l-11.739-9.256a1.149,1.149,0,1,0-1.423,1.8l11.739,9.256a3,3,0,0,0,3.822,0l11.739-9.256a1.149,1.149,0,1,0-1.423-1.8Z" transform="translate(-2.367 -2.458)" fill="#26CC83"/>
  </g>
</svg>
