<svg xmlns="http://www.w3.org/2000/svg" width="34.377" height="34.212" viewBox="0 0 34.377 34.212">
  <path id="Event" d="M1109.77,737.148v-.735a1.147,1.147,0,1,0-2.293,0v.728h-5.45v-.728a1.147,1.147,0,1,0-2.293,0v.728h-5.279v-.623a1.147,1.147,0,1,0-2.293,0v.677a8.942,8.942,0,0,0-7.969,8.877v14.475a8.942,8.942,0,0,0,8.931,8.932h16.515a8.942,8.942,0,0,0,8.931-8.932V746.072A8.937,8.937,0,0,0,1109.77,737.148Zm-17.61,2.364v.633a1.147,1.147,0,1,0,2.293,0v-.711h5.279v.606a1.147,1.147,0,1,0,2.293,0v-.606h5.45v.606a1.147,1.147,0,1,0,2.293,0v-.6a6.641,6.641,0,0,1,6.5,6.63v1.046h-29.79v-1.046A6.64,6.64,0,0,1,1092.16,739.513Zm17.477,27.673h-16.515a6.646,6.646,0,0,1-6.638-6.638V749.411h29.79v11.136A6.646,6.646,0,0,1,1109.637,767.185Z" transform="translate(-1084.191 -735.267)" fill="#E3EFF7"/>
</svg>
