<svg id="Exit_Button" data-name="Exit Button" xmlns="http://www.w3.org/2000/svg" width="13.161" height="12.312" viewBox="0 0 13.161 12.312">
  <path id="Path_45" data-name="Path 45" d="M1001.039,631.7h-8.6l2.155-2.156a.509.509,0,0,0-.72-.72l-3.025,3.025a.5.5,0,0,0-.064.077c0,.006-.006.013-.01.019a.5.5,0,0,0-.036.069c0,.009-.006.019-.009.029a.577.577,0,0,0-.02.067.5.5,0,0,0,0,.2.554.554,0,0,0,.02.066c0,.01.005.02.009.029a.5.5,0,0,0,.036.068l.011.02a.492.492,0,0,0,.064.077l3.025,3.025a.509.509,0,0,0,.72-.72l-2.155-2.155h8.6a.509.509,0,1,0,0-1.019Z" transform="translate(-988.387 -626.083)" fill="#838396"/>
  <path id="Path_46" data-name="Path 46" d="M985.785,624.018a.4.4,0,0,0-.425.376,3.882,3.882,0,0,1-.616,2.265,3.07,3.07,0,0,1-1.794.786,16.282,16.282,0,0,1-3.027.308,21.1,21.1,0,0,1-2.987-.292,2.106,2.106,0,0,1-1.762-1.136,6.221,6.221,0,0,1-.526-2.367c-.027-.4-.037-.806-.046-1.158-.021-.928.032-1.836.086-2.6a4.077,4.077,0,0,1,.449-1.876,1.858,1.858,0,0,1,.82-.667,4.675,4.675,0,0,1,1.027-.3,15.445,15.445,0,0,1,5-.164l.175.022a4.86,4.86,0,0,1,2.268.662,2.7,2.7,0,0,1,.9,1.951.4.4,0,0,0,.447.348.4.4,0,0,0,.344-.454,3.445,3.445,0,0,0-1.241-2.511,5.54,5.54,0,0,0-2.625-.8l-.171-.021a16.185,16.185,0,0,0-5.253.171,5.431,5.431,0,0,0-1.2.358,2.669,2.669,0,0,0-1.158.957,4.737,4.737,0,0,0-.581,2.266c-.055.785-.109,1.716-.087,2.678.008.36.019.78.047,1.195a6.951,6.951,0,0,0,.616,2.688,2.93,2.93,0,0,0,2.352,1.56,21.8,21.8,0,0,0,3.1.3h.069a17.029,17.029,0,0,0,3.1-.322,3.762,3.762,0,0,0,2.242-1.038,4.49,4.49,0,0,0,.821-2.754A.4.4,0,0,0,985.785,624.018Z" transform="translate(-973.8 -616.25)" fill="#838396"/>
</svg>
