<svg xmlns="http://www.w3.org/2000/svg" width="43.26" height="42.197" viewBox="0 0 43.26 42.197">
  <g id="fashon" transform="translate(0 0.073)">
    <path id="Path_152" data-name="Path 152" d="M7.689,27.533h.788V38.318a3.811,3.811,0,0,0,3.807,3.807H30.969a3.812,3.812,0,0,0,3.807-3.807V27.533h.788c.24,0,.478-.013.714-.034v9.449a1.03,1.03,0,1,0,2.06,0V27.012A7.72,7.72,0,0,0,35.564,12.1H22.656V9.169a4.677,4.677,0,1,0-5.7-4.563,1.03,1.03,0,0,0,2.06,0,2.606,2.606,0,1,1,2.606,2.618,1.03,1.03,0,0,0-1.03,1.03V12.1H7.689a7.718,7.718,0,0,0,0,15.436ZM32.715,38.318a1.748,1.748,0,0,1-1.747,1.746H12.283a1.749,1.749,0,0,1-1.747-1.746V21.983a1.749,1.749,0,0,1,1.747-1.746H30.969a1.749,1.749,0,0,1,1.747,1.746Zm2.06-12.846v-3.49a3.786,3.786,0,0,0-.385-1.666,2.523,2.523,0,0,1,1.886,2.438v2.67a5.589,5.589,0,0,1-.714.047ZM7.689,14.157H35.564a5.66,5.66,0,0,1,2.774,10.58V22.755a4.584,4.584,0,0,0-4.578-4.579H12.283a3.811,3.811,0,0,0-3.807,3.807v3.489H7.689a5.658,5.658,0,0,1,0-11.315Zm0,0" transform="translate(0 0)" fill="#a7a7be"/>
    <path id="Path_153" data-name="Path 153" d="M276.035,295.18a1.03,1.03,0,0,0-1.03,1.03v7.22a.525.525,0,0,1-.522.527h-2a1.03,1.03,0,1,0,0,2.06h2a2.588,2.588,0,0,0,2.582-2.588v-7.22A1.03,1.03,0,0,0,276.035,295.18Zm0,0" transform="translate(-246.531 -268.149)" fill="#a7a7be"/>
  </g>
</svg>
