<svg xmlns="http://www.w3.org/2000/svg" width="21.147" height="38.001" viewBox="0 0 21.147 38.001">
  <g id="Food" transform="translate(-195 -151.382)">
    <path id="Path_186" data-name="Path 186" d="M202.44,153.893a1.04,1.04,0,0,0-1.04,1.04v6.7a2.161,2.161,0,0,1-1.12,1.892v-8.594a1.04,1.04,0,0,0-2.08,0v8.594a2.161,2.161,0,0,1-1.12-1.892v-6.7a1.04,1.04,0,0,0-2.08,0v6.7a4.247,4.247,0,0,0,3.2,4.11v7.824a3.255,3.255,0,0,0-2.212,3.077v11.31a3.251,3.251,0,1,0,6.5,0v-11.31a3.255,3.255,0,0,0-2.211-3.077v-7.824a4.247,4.247,0,0,0,3.2-4.11v-6.7A1.04,1.04,0,0,0,202.44,153.893Zm-2.028,34.064a1.171,1.171,0,1,1-2.342,0v-11.31a1.171,1.171,0,0,1,2.342,0Z" transform="translate(0 -2.076)" fill="#E3EFF7"/>
    <path id="Path_187" data-name="Path 187" d="M274.166,151.382l-3.279.033a4.557,4.557,0,0,0-4.431,4.53v30.361a3.077,3.077,0,0,0,6.153,0v-8.9h1.568a1.04,1.04,0,0,0,1.04-1.04v-23.94a1.04,1.04,0,0,0-.308-.739A1.065,1.065,0,0,0,274.166,151.382Zm-3.637,34.924a1,1,0,1,1-1.993,0v-8.9h1.993Zm2.608-10.984h-4.6V155.945a2.461,2.461,0,0,1,2.385-2.45l2.216-.023Z" transform="translate(-59.07)" fill="#E3EFF7"/>
  </g>
</svg>
