<svg xmlns="http://www.w3.org/2000/svg" width="41.855" height="37.996" viewBox="0 0 41.855 37.996">
  <g id="Game" transform="translate(0.001 1.383)">
    <path id="Path_154" data-name="Path 154" d="M128.92,158.212a3.747,3.747,0,0,0,1.987-.061,3,3,0,0,0,1.983-3.425c-.277-2.12-2.3-4.362-6.2-4.59h-.051a1.093,1.093,0,0,0-.694.23l-.042.033c-2.982,2.533-3.271,5.531-2.235,7.378l0,.006a3.114,3.114,0,0,0,2.691,1.694,2.99,2.99,0,0,0,.941-.155A3.854,3.854,0,0,0,128.92,158.212Zm-1.216-1.154a2.225,2.225,0,0,1-.925.671,1.372,1.372,0,0,1-1.65-.775c-.68-1.216-.409-3.255,1.689-5.13,2.794.235,4.227,1.72,4.41,3.12a1.36,1.36,0,0,1-.847,1.616,2.145,2.145,0,0,1-1.15.005,1.563,1.563,0,0,0-1.527.493Zm0,0" transform="translate(-113.945 -140.218)" fill="#a7a7be"/>
    <path id="Path_155" data-name="Path 155" d="M182.9,269.9l1.7.173a.838.838,0,0,0,.17-1.667l-1.741-.178a1.581,1.581,0,0,0-1.241.418l-1.24,1.159a.838.838,0,1,0,1.144,1.224Zm0,0" transform="translate(-166.839 -249.496)" fill="#a7a7be"/>
    <path id="Path_156" data-name="Path 156" d="M40.758,10.5l-.012,0-8.077-2.72V3.969a1.645,1.645,0,0,0-1.644-1.644H20.873L20.048-.169a1.771,1.771,0,0,0-2.234-1.124L1.213,4.195A1.768,1.768,0,0,0,.089,6.429L8.146,30.8a1.764,1.764,0,0,0,2.234,1.124l3.833-1.267h.766l16.586,5.861a1.643,1.643,0,0,0,2.1-1L41.76,12.6A1.645,1.645,0,0,0,40.758,10.5ZM30.994,4V28.244H21.516l5.465-1.807A1.768,1.768,0,0,0,28.105,24.2L21.427,4ZM9.854,30.335a.093.093,0,0,1-.117-.059L1.679,5.9a.093.093,0,0,1,.059-.117L18.34.3a.092.092,0,0,1,.029,0,.094.094,0,0,1,.088.064l8.058,24.373a.093.093,0,0,1-.059.118l-10.277,3.4h-.147v.049Zm22.239,4.594L17.917,29.919H31.026a1.645,1.645,0,0,0,1.644-1.644V9.544l7.5,2.527Zm0,0" transform="translate(0 0)" fill="#a7a7be"/>
  </g>
</svg>
