<svg xmlns="http://www.w3.org/2000/svg" width="26.773" height="35.724" viewBox="0 0 26.773 35.724">
  <g id="heath" transform="translate(4)">
    <path id="Path_143" data-name="Path 143" d="M18.85,2.426H13.109a4.068,4.068,0,0,0-7.444,0H-.077A3.928,3.928,0,0,0-4,6.349V31.8A3.928,3.928,0,0,0-.077,35.724H18.85A3.928,3.928,0,0,0,22.773,31.8V6.349A3.928,3.928,0,0,0,18.85,2.426ZM6.311,4.212a.893.893,0,0,0,.872-.7,2.27,2.27,0,0,1,4.407,0,.893.893,0,0,0,.872.7h1.771V5A2.139,2.139,0,0,1,12.1,7.133H6.677A2.14,2.14,0,0,1,4.54,5V4.212ZM20.987,31.8a2.139,2.139,0,0,1-2.137,2.137H-.077A2.139,2.139,0,0,1-2.214,31.8V6.349A2.14,2.14,0,0,1-.077,4.212h2.83V5A3.928,3.928,0,0,0,6.677,8.919H12.1A3.928,3.928,0,0,0,16.02,5V4.212h2.83a2.14,2.14,0,0,1,2.137,2.137Zm0,0" fill="#a7a7be"/>
    <path id="Path_144" data-name="Path 144" d="M110.617,227.695l-5.863,5.725-2.977-2.906a.893.893,0,0,0-1.26,1.266l.012.012,3.6,3.516a.893.893,0,0,0,1.248,0l6.487-6.334a.893.893,0,0,0-1.248-1.278Zm0,0" transform="translate(-96.81 -211.193)" fill="#a7a7be"/>
  </g>
</svg>
