<svg xmlns="http://www.w3.org/2000/svg" width="13.835" height="22.557" viewBox="0 0 13.835 22.557">
  <g id="Info" transform="translate(-106 -39.121)">
    <path id="icon_question" data-name="icon question" d="M2450.021,23582.676a.881.881,0,1,1,.881.883A.883.883,0,0,1,2450.021,23582.676Zm0-3.521v-2.051a4.811,4.811,0,0,1,2.9-4.441,5.149,5.149,0,0,0,3.134-4.7c0-.018,0-.029,0-.047a5.155,5.155,0,1,0-10.309,0,.881.881,0,1,1-1.762,0,6.917,6.917,0,0,1,13.834-.053c0,.016,0,.035,0,.053a6.908,6.908,0,0,1-4.2,6.363,3.056,3.056,0,0,0-1.834,2.822v2.051a.881.881,0,0,1-1.762,0Z" transform="translate(-2337.986 -23521.881)" fill="#6d65ec"/>
  </g>
</svg>
