<svg xmlns="http://www.w3.org/2000/svg" width="34.499" height="34.487" viewBox="0 0 34.499 34.487">
  <g id="kids" transform="translate(-57.442 -57.4)">
    <g id="Group_64" data-name="Group 64" transform="translate(65.435 65.384)">
      <path id="Path_175" data-name="Path 175" d="M109.9,193.594a1.9,1.9,0,1,0-1.9-1.9,1.944,1.944,0,0,0,.553,1.344A1.915,1.915,0,0,0,109.9,193.594Z" transform="translate(-108 -176.852)" fill="#E3EFF7"/>
      <path id="Path_176" data-name="Path 176" d="M191.7,111.694a1.9,1.9,0,1,0-1.9-1.9,1.944,1.944,0,0,0,.553,1.344A1.876,1.876,0,0,0,191.7,111.694Z" transform="translate(-176.868 -107.9)" fill="#E3EFF7"/>
      <path id="Path_177" data-name="Path 177" d="M161.1,168.6a6.8,6.8,0,0,0,4.806-11.6,1.107,1.107,0,0,0-1.565,1.565,4.583,4.583,0,0,1-6.482,6.482,1.107,1.107,0,0,0-1.565,1.565A6.719,6.719,0,0,0,161.1,168.6Z" transform="translate(-148.39 -148.964)" fill="#E3EFF7"/>
    </g>
    <path id="Path_179" data-name="Path 179" d="M62.731,90.41a5.075,5.075,0,0,0,6.972.174A16.919,16.919,0,0,0,90.62,69.668a5.059,5.059,0,0,0-5.3-8.221A16.9,16.9,0,0,0,63.3,61.51c-.016.016-.047.032-.063.063-.285.253-.569.506-.838.79a16.9,16.9,0,0,0-.9,22.94A4.971,4.971,0,0,0,62.731,90.41ZM59.649,74.063A14.452,14.452,0,0,1,61.435,67.3a5.1,5.1,0,0,0,3.779,4.158,5.853,5.853,0,0,0,1.66.237A5.422,5.422,0,0,0,71.142,69.7a3.616,3.616,0,0,0,.7-3.035A3.819,3.819,0,0,0,69.83,64.04a3.277,3.277,0,0,0-3.794.458,3.222,3.222,0,0,0-.632,3.7,1.111,1.111,0,1,0,2.024-.917,1,1,0,0,1,.142-1.186A1.078,1.078,0,0,1,68.834,66a1.667,1.667,0,0,1,.854,1.122,1.441,1.441,0,0,1-.253,1.186,3.371,3.371,0,0,1-3.589,1.012,2.848,2.848,0,0,1-2.2-2.419A5.067,5.067,0,0,1,64.8,63.17a14.652,14.652,0,0,1,9.328-3.557h.253a14.607,14.607,0,0,1,9.992,3.921,1.1,1.1,0,0,0,1.249.174,2.852,2.852,0,0,1,3.067,4.759,1.115,1.115,0,0,0-.364,1.217A14.7,14.7,0,0,1,69.751,88.276a1.11,1.11,0,0,0-1.2.348,2.843,2.843,0,0,1-4.759-3.051,1.1,1.1,0,0,0-.174-1.249A14.423,14.423,0,0,1,59.649,74.063Z" fill="#E3EFF7"/>
  </g>
</svg>
