<svg xmlns="http://www.w3.org/2000/svg" width="17.956" height="20.932" viewBox="0 0 17.956 20.932">
  <path id="Path_124" data-name="Path 124" d="M1105.306,23345.787a.673.673,0,0,1-.087-.916l3.485-4.232a.689.689,0,0,1,.961-.086.678.678,0,0,1,.087.916l-3.488,4.23a.805.805,0,0,1-.524.217A.741.741,0,0,1,1105.306,23345.787Zm10.812-3.883a2.694,2.694,0,0,1-2.529-1.7l-1.44-3.531a1.52,1.52,0,0,0-.785-.787l-3.529-1.441a2.7,2.7,0,0,1,.087-5.053l11.42-4.23a2.688,2.688,0,0,1,2.877.611,2.788,2.788,0,0,1,.655,2.922l-4.229,11.42a2.614,2.614,0,0,1-2.483,1.787Zm3.662-15.518-11.423,4.227a1.405,1.405,0,0,0-.044,2.617l3.531,1.438a2.748,2.748,0,0,1,1.483,1.482l1.48,3.531a1.405,1.405,0,0,0,2.616-.043l4.229-11.422a1.421,1.421,0,0,0-.35-1.484,1.245,1.245,0,0,0-.959-.434A2.888,2.888,0,0,0,1119.78,23326.387Zm-14.169,13.467a.629.629,0,0,1-.043-.912l1.744-1.963a.648.648,0,0,1,.959.873l-1.744,1.959a.687.687,0,0,1-.478.217A.558.558,0,0,1,1105.611,23339.854Z" transform="translate(-1105.078 -23324.984)" fill="#a7a7be"/>
</svg>
