<svg xmlns="http://www.w3.org/2000/svg" width="14.715" height="18.408" viewBox="0 0 14.715 18.408">
  <g id="Lead_generation" data-name="Lead generation" transform="translate(-628.897 -228.96)">
    <path id="Path_25" data-name="Path 25" d="M641.244,238.307a4.674,4.674,0,1,0-4.674-4.674A4.679,4.679,0,0,0,641.244,238.307Zm0-8.3a3.624,3.624,0,1,1-3.625,3.625A3.629,3.629,0,0,1,641.244,230.009Z" transform="translate(-4.989)" fill="#a7a7be"/>
    <path id="Path_26" data-name="Path 26" d="M640.277,261.574h-8.046a3.339,3.339,0,0,0-3.335,3.334v.333a3.339,3.339,0,0,0,3.335,3.334h8.046a3.339,3.339,0,0,0,3.334-3.334v-.333A3.339,3.339,0,0,0,640.277,261.574Zm2.285,3.668a2.288,2.288,0,0,1-2.285,2.285h-8.046a2.288,2.288,0,0,1-2.286-2.285v-.333a2.288,2.288,0,0,1,2.286-2.285h8.046a2.288,2.288,0,0,1,2.285,2.285Z" transform="translate(0 -21.208)" fill="#a7a7be"/>
  </g>
</svg>
