<svg xmlns="http://www.w3.org/2000/svg" width="53.014" height="34.148" viewBox="0 0 53.014 34.148">
  <path id="leaf" d="M52.27,2A34.624,34.624,0,0,0,38.1.555C32.864,1.117,28.816,2.99,26.4,5.971a11.727,11.727,0,0,0-1.367,12.345,10.382,10.382,0,0,0,.7,1.19,35.692,35.692,0,0,0-2.113,6.124c-.345-.421-.721-.854-1.127-1.294.055-.122.107-.245.156-.371a9.084,9.084,0,0,0-1.933-9.483c-2.076-2.131-5.317-3.291-9.373-3.357A26.458,26.458,0,0,0,.656,13.208a1.074,1.074,0,0,0-.115,1.92,10.446,10.446,0,0,1,4.49,5.249c.224.587.4,1.2.583,1.851.138.486.281.988.447,1.483A9.583,9.583,0,0,0,7.133,26a8.119,8.119,0,0,0,6.9,3.62,9.52,9.52,0,0,0,7.274-3.385c.6.679,1.119,1.334,1.562,1.944a20.91,20.91,0,0,1,3.265,6.333l2.083-.522a21.593,21.593,0,0,0-2.9-6.048,33.122,33.122,0,0,1,1.96-6.612,12.16,12.16,0,0,0,8.118,3.256l.205,0a10.5,10.5,0,0,0,9.476-5.461,12.321,12.321,0,0,0,1.106-3.058c.158-.664.285-1.338.408-1.99.167-.885.324-1.721.552-2.535a14.158,14.158,0,0,1,5.417-7.638A1.074,1.074,0,0,0,52.269,2ZM20.815,22.664a34.371,34.371,0,0,0-11.424-6.92l-.754,2.012a32.019,32.019,0,0,1,11.172,6.913,7.24,7.24,0,0,1-4.993,2.76,6.031,6.031,0,0,1-5.893-2.616A7.53,7.53,0,0,1,8.1,23.026c-.15-.446-.279-.9-.416-1.385-.189-.666-.385-1.355-.643-2.03a12.454,12.454,0,0,0-3.673-5.128A24.286,24.286,0,0,1,11.3,13.273c2.424.039,5.757.541,7.87,2.708A7.021,7.021,0,0,1,20.815,22.664Zm24.259-11.7c-.254.9-.428,1.827-.6,2.72-.123.656-.24,1.276-.387,1.89a10.285,10.285,0,0,1-.907,2.536,8.421,8.421,0,0,1-7.755,4.331,9.913,9.913,0,0,1-7.2-3.2l.015-.029a24.109,24.109,0,0,1,5.208-7.028,18.916,18.916,0,0,1,8.893-4.562l-.45-2.1a21.039,21.039,0,0,0-9.889,5.074A25.693,25.693,0,0,0,26.879,17.2a9.614,9.614,0,0,1,1.185-9.88c2.6-3.2,7.016-4.285,10.268-4.634a31.912,31.912,0,0,1,3.4-.18,32.608,32.608,0,0,1,7.93.98A16.122,16.122,0,0,0,45.074,10.962Zm0,0" transform="translate(-0.002 -0.364)" fill="#a7a7be"/>
</svg>
