<svg xmlns="http://www.w3.org/2000/svg" width="18.651" height="20.35" viewBox="0 0 18.651 20.35">
  <path id="Path_120" data-name="Path 120" d="M923.849,23273.35a4.853,4.853,0,0,1-4.85-4.85v-9.656a4.845,4.845,0,0,1,4.559-4.807v-.416a.636.636,0,0,1,.623-.621.629.629,0,0,1,.62.58v.414h2.7v-.332a.622.622,0,1,1,1.243,0v.375h2.693v-.416a.622.622,0,0,1,1.243,0v.416h.124a4.846,4.846,0,0,1,4.85,4.807v9.656a4.856,4.856,0,0,1-4.85,4.85Zm-3.607-14.506v9.656a3.61,3.61,0,0,0,3.607,3.607H932.8a3.61,3.61,0,0,0,3.607-3.607v-9.617a3.608,3.608,0,0,0-3.607-3.6h-.124v.289a.648.648,0,0,1-.62.666.639.639,0,0,1-.623-.625v-.33H928.74v.371a.622.622,0,0,1-1.243,0v-.371h-2.7v.289a.648.648,0,0,1-.62.666.639.639,0,0,1-.623-.625v-.33A3.548,3.548,0,0,0,920.242,23258.844Zm4.186,9.947a.622.622,0,0,1,0-1.244h7.792a.622.622,0,0,1,0,1.244Zm0-3.939a.621.621,0,0,1,0-1.242h7.792a.621.621,0,0,1,0,1.242Zm0-3.937a.62.62,0,1,1,0-1.24h7.792a.62.62,0,1,1,0,1.24Z" transform="translate(-918.999 -23253)" fill="#6D65EC"/>
</svg>
