<svg xmlns="http://www.w3.org/2000/svg" width="44.94" height="39.549" viewBox="0 0 44.94 39.549">
  <g id="Group_153" data-name="Group 153" transform="translate(-94.219 -154.892)">
    <g id="_ÎÓÈ_1_1_" data-name="—ÎÓÈ_1_1_" transform="translate(94.219 154.892)">
      <path id="Path_241" data-name="Path 241" d="M105.809,193.771c-.952-.2-12.387-2.015-11.546-15.388s1.9-17.4,6.344-18.867,15.253-8.434,23.734-1.814,17.632,12.558,14,23.129-4.226,14.1-13.7,13.558S110.335,194.728,105.809,193.771Z" transform="translate(-94.219 -154.892)" fill="#f9f9f9"/>
    </g>
    <g id="_ÎÓÈ_2" data-name="—ÎÓÈ_2" transform="translate(97.7 166.363)">
      <g id="Group_146" data-name="Group 146" transform="translate(0 0)">
        <path id="Path_242" data-name="Path 242" d="M217.177,452.052l-6.32-13.768a.222.222,0,0,0-.131-.118l-5.277-1.777a.222.222,0,0,0-.128,0l-6.73,1.8a.223.223,0,0,1-.114,0l-6.73-1.8a.222.222,0,0,0-.128,0l-5.277,1.777a.222.222,0,0,0-.131.118l-6.32,13.768a.222.222,0,0,0,.287.3l6.866-2.871a.222.222,0,0,1,.144-.009l11.286,3.084a.221.221,0,0,0,.117,0l11.29-3.084a.222.222,0,0,1,.144.009l6.866,2.871A.222.222,0,0,0,217.177,452.052Z" transform="translate(-179.543 -435.344)" fill="#e5e5e5"/>
        <path id="Path_243" data-name="Path 243" d="M354.364,430.848l-11.422-3.12,4.568-13.081,6.854,1.829Z" transform="translate(-335.373 -414.578)" fill="#e5e5e5"/>
        <path id="Path_244" data-name="Path 244" d="M372.921,433.333l-10.559-3.12,4.213-12.178,6.346,1.678Z" transform="translate(-353.93 -417.816)" fill="#f9f9f9"/>
        <path id="Path_245" data-name="Path 245" d="M182.461,427.728,175,430.848l6.6-14.372,5.431-1.829Z" transform="translate(-174.892 -414.578)" fill="#d1d1d1"/>
        <path id="Path_246" data-name="Path 246" d="M201.222,428.67l-6.8,2.894,6.242-13.619,4.924-1.6Z" transform="translate(-193.449 -416.197)" fill="#e5e5e5"/>
        <path id="Path_247" data-name="Path 247" d="M599.961,430.848l11.422-3.12-4.568-13.081-6.854,1.829Z" transform="translate(-580.974 -414.578)" fill="#d1d1d1"/>
        <path id="Path_248" data-name="Path 248" d="M611.385,430.174l10.661-2.894-4.314-12.55-6.346,1.692Z" transform="translate(-591.89 -414.656)" fill="#e5e5e5"/>
        <path id="Path_249" data-name="Path 249" d="M758.806,427.728l7.461,3.12-6.6-14.372-5.431-1.829Z" transform="translate(-728.396 -414.578)" fill="#e5e5e5"/>
        <path id="Path_250" data-name="Path 250" d="M769.976,428.67l6.649,2.819-6.039-13.318-4.924-1.829Z" transform="translate(-739.312 -416.197)" fill="#f9f9f9"/>
        <g id="Group_140" data-name="Group 140" transform="translate(1.753 0.614)">
          <g id="Group_126" data-name="Group 126" transform="translate(3.312 0.15)">
            <path id="Path_251" data-name="Path 251" d="M291.4,430.347l-1.636,4.508-2.589,7.133-.6,1.641c-.042.115.173.111.2.023l1.636-4.508,2.589-7.133.6-1.641c.042-.115-.173-.111-.2-.023Z" transform="translate(-286.576 -430.282)" fill="#fff"/>
          </g>
          <g id="Group_127" data-name="Group 127" transform="translate(0.9 6.898)">
            <path id="Path_252" data-name="Path 252" d="M235.454,582.244l-1.067,2.535-1.7,4.048-.4.94c-.048.114.168.116.206.026l1.067-2.535,1.7-4.048.4-.94c.048-.114-.168-.116-.206-.026Z" transform="translate(-232.28 -582.18)" fill="#fff"/>
          </g>
          <g id="Group_128" data-name="Group 128" transform="translate(9.896 0.101)">
            <path id="Path_253" data-name="Path 253" d="M437.737,429.249l-.994,4.05-1.585,6.459-.365,1.488c-.019.078.2.046.215-.027l.994-4.05,1.585-6.459.365-1.488c.019-.078-.2-.046-.214.027Z" transform="translate(-434.792 -429.177)" fill="#fff"/>
          </g>
          <g id="Group_129" data-name="Group 129" transform="translate(12.37 0.726)">
            <path id="Path_254" data-name="Path 254" d="M493.1,443.378l-.894,4.584-1.414,7.248-.324,1.663c-.02.1.4.037.424-.073l.894-4.584,1.414-7.248.324-1.663c.02-.1-.4-.037-.424.073Z" transform="translate(-490.463 -443.253)" fill="#fff"/>
          </g>
          <g id="Group_130" data-name="Group 130" transform="translate(22.626 5.146)">
            <path id="Path_255" data-name="Path 255" d="M721.33,542.811l.351,2.922.561,4.661.129,1.076c.007.06.223.014.215-.057l-.351-2.922-.561-4.662-.129-1.076c-.007-.06-.223-.014-.215.057Z" transform="translate(-721.329 -542.726)" fill="#fff"/>
          </g>
          <g id="Group_131" data-name="Group 131" transform="translate(17.062 11.313)">
            <path id="Path_256" data-name="Path 256" d="M596.08,681.634l2.555,3.06.364.436c.042.05.247-.024.2-.08l-2.555-3.06-.364-.436c-.042-.05-.247.024-.2.08Z" transform="translate(-596.073 -681.538)" fill="#fff"/>
          </g>
          <g id="Group_132" data-name="Group 132" transform="translate(17.062 4.968)">
            <path id="Path_257" data-name="Path 257" d="M600.821,538.774l-1.6,2.145-2.551,3.422-.588.789c-.052.069.16.047.2,0l1.6-2.145,2.551-3.422.588-.789c.052-.069-.16-.047-.2,0Z" transform="translate(-596.075 -538.727)" fill="#fff"/>
          </g>
          <g id="Group_133" data-name="Group 133" transform="translate(27.145 4.765)">
            <path id="Path_258" data-name="Path 258" d="M823.039,534.265l1.017,2.783,1.631,4.462.374,1.023c.033.09.246.029.215-.057l-1.017-2.783-1.631-4.462-.374-1.023c-.033-.09-.246-.029-.214.057Z" transform="translate(-823.036 -534.163)" fill="#fff"/>
          </g>
          <g id="Group_134" data-name="Group 134" transform="translate(21.956)">
            <path id="Path_259" data-name="Path 259" d="M706.247,426.98l.315,2.2c.007.048.223,0,.215-.057l-.315-2.2c-.007-.048-.223,0-.215.057Z" transform="translate(-706.246 -426.902)" fill="#fff"/>
          </g>
          <g id="Group_135" data-name="Group 135" transform="translate(23.644 3.469)">
            <path id="Path_260" data-name="Path 260" d="M751.882,506.737l-3.193-.348-1.815-.2a3.1,3.1,0,0,1-.327-.036c.1.021-.044-.034-.079-.053l-.346-.187-1.682-.91c-.073-.04-.266.062-.168.116l1.474.8a2.516,2.516,0,0,0,.883.4l3.855.42,1.319.144c.1.01.223-.126.078-.142Z" transform="translate(-744.245 -504.997)" fill="#fff"/>
          </g>
          <g id="Group_136" data-name="Group 136" transform="translate(4.273 1.05)">
            <path id="Path_261" data-name="Path 261" d="M325.152,453.347l-3.5,1.072-.5.154.1.007-5.378-2.906-1.419-.767a4.628,4.628,0,0,0-.661-.357c-.18-.06-.473.1-.643.147l-1.69.507-3.151.945c-.129.039-.1.169.035.13l4.7-1.411.672-.2-.1-.007,4.736,2.559,2.436,1.316c.115.062.274.187.409.163a8.741,8.741,0,0,0,1.015-.31l2.982-.912c.128-.039.1-.17-.035-.13Z" transform="translate(-308.22 -450.537)" fill="#fff"/>
          </g>
          <g id="Group_137" data-name="Group 137" transform="translate(0 10.727)">
            <path id="Path_262" data-name="Path 262" d="M212.11,669.745l4.294-.886c.638-.132,1.287-.239,1.92-.4.105-.026.042.006.016-.015a1.013,1.013,0,0,0,.239.091l1.129.43,2.242.854c.055.021.25-.064.173-.094l-1.934-.737-1.26-.48a1.392,1.392,0,0,0-.5-.164,3.531,3.531,0,0,0-.483.1l-1.112.23-2.877.594-1.813.374c-.092.019-.183.13-.035.1Z" transform="translate(-212.031 -668.348)" fill="#fff"/>
          </g>
          <g id="Group_138" data-name="Group 138" transform="translate(2.733 5.795)">
            <path id="Path_263" data-name="Path 263" d="M304.508,561.791l-2.04-.606-2.864-.851-1-.3a1.264,1.264,0,0,0-.583-.118c-.071.015-.142.04-.212.06l-3.039.866-4.261,1.214-1.673.477a7.817,7.817,0,0,0-.842.24.375.375,0,0,1-.04.011l.2.013-5.072-2.654-3.2-1.674-.849-.444a.8.8,0,0,0-.506-.066l-3.427.317.144.024-1.309-.938c-.133-.1-.521.095-.336.227l.948.679a2.739,2.739,0,0,0,.358.256.488.488,0,0,0,.266.015l2.642-.244.905-.084-.144-.024,3.171,1.659,5,2.615c.35.183.7.407,1.066.558a.5.5,0,0,0,.354-.024l.615-.175,5.171-1.474,2.634-.75c.479-.137.97-.254,1.443-.411.022-.007.045-.013.067-.019l-.162,0,5.98,1.777.334.1c.16.047.506-.186.255-.26Z" transform="translate(-273.558 -557.341)" fill="#fff"/>
          </g>
          <g id="Group_139" data-name="Group 139" transform="translate(21.201 2.229)">
            <path id="Path_264" data-name="Path 264" d="M690.861,477.286a1.443,1.443,0,0,1,.795,1.642,1.112,1.112,0,0,1-1.366.98,1.421,1.421,0,0,1-.806-1.546,1.134,1.134,0,0,1,1.378-1.076c.094.029.253-.106.123-.146a1.279,1.279,0,0,0-1.462.543,1.722,1.722,0,0,0-.054,1.769,1.253,1.253,0,0,0,1.373.634,1.469,1.469,0,0,0,1.036-1.206,1.558,1.558,0,0,0-.894-1.741c-.093-.035-.251.1-.123.146Z" transform="translate(-689.25 -477.08)" fill="#fff"/>
          </g>
        </g>
        <g id="Group_141" data-name="Group 141" transform="translate(5.811 6.998)">
          <path id="Path_265" data-name="Path 265" d="M330.069,573.594l-2.511-.746c-.264-.078-.528-.162-.793-.236a.5.5,0,0,0-.255-.023c-.049.01-.1.028-.146.042l-1.978.564L318.053,575l-1.606.458.2.02-5.072-2.654-3.2-1.674-.849-.444c-.04-.021-.08-.046-.122-.064a.8.8,0,0,0-.386-.008l-3.426.317c-.235.022-.336.327-.042.3l3.666-.339-.145-.03,3.171,1.659,5,2.615c.352.184.7.4,1.066.558a.473.473,0,0,0,.355-.017l.615-.175,5.171-1.473,2.634-.751c.479-.137.971-.252,1.443-.411.022-.007.045-.013.067-.019h-.163l3.387,1.007c.175.052.506-.2.251-.279Z" transform="translate(-303.373 -570.612)" fill="#ef8f7f"/>
        </g>
        <g id="Group_142" data-name="Group 142" transform="translate(7.46)">
          <path id="Path_266" data-name="Path 266" d="M352.07,429.292l-3.857-1.053-6.15-1.68-1.415-.387.044.054,1.549-4.436,2.452-7.023.566-1.622-.172.076,6,1.6.855.228L351.9,415v14.372c0,.1.216.06.216-.022V414.974a.052.052,0,0,0-.044-.054l-6-1.6-.855-.228a.147.147,0,0,0-.172.076L343.5,417.6l-2.452,7.023-.566,1.622c-.01.027.023.048.044.054l3.857,1.053,6.15,1.68,1.415.387C352.021,429.443,352.2,429.326,352.07,429.292Z" transform="translate(-340.475 -413.086)" fill="#6a79a8"/>
        </g>
        <g id="Group_143" data-name="Group 143" transform="translate(0 0.002)">
          <path id="Path_267" data-name="Path 267" d="M180.087,426.23l-2.525,1.056-4.006,1.675-.931.389.146.06.653-1.423L175,424.547l1.9-4.143,1.652-3.6.542-1.18.169-.368a.733.733,0,0,0,.089-.194.1.1,0,0,1,.012-.025l-.084.056,4.749-1.6.682-.23-.125-.052-1.549,4.436-2.452,7.023-.566,1.622c-.029.084.188.058.216-.022l1.549-4.436,2.452-7.023.566-1.622c.022-.062-.1-.061-.125-.052l-4.5,1.516-.836.282a.294.294,0,0,0-.2.127c-.18.315-.309.673-.46,1l-2.157,4.7L174,426.281l-.941,2.05c-.154.335-.343.672-.468,1.019-.006.015-.014.03-.021.045-.04.088.1.078.146.06l2.525-1.056,4.006-1.675.931-.389C180.314,426.278,180.191,426.186,180.087,426.23Z" transform="translate(-172.563 -413.134)" fill="#6a79a8"/>
        </g>
        <g id="Group_144" data-name="Group 144" transform="translate(18.88 0)">
          <path id="Path_268" data-name="Path 268" d="M597.657,429.429l3.857-1.053,6.15-1.68,1.415-.387c.033-.009.107-.045.09-.091l-1.549-4.436-2.453-7.023-.566-1.622c-.016-.047-.086-.044-.124-.034l-6,1.6-.855.228c-.028.008-.091.035-.091.074v14.372c0,.1.216.06.216-.022V414.984l-.091.074,6-1.6.855-.228-.124-.034,1.549,4.436,2.453,7.023.566,1.622.091-.091-3.857,1.053-6.15,1.68-1.415.387C597.493,429.339,597.526,429.465,597.657,429.429Z" transform="translate(-597.532 -413.097)" fill="#6a79a8"/>
        </g>
        <g id="Group_145" data-name="Group 145" transform="translate(25.732 0.001)">
          <path id="Path_269" data-name="Path 269" d="M756.351,426.317l2.525,1.056,4.006,1.675.931.389c.042.018.23,0,.191-.085l-1.166-2.54-2.475-5.392-2.28-4.966-.6-1.3a.7.7,0,0,0-.087-.188,1.434,1.434,0,0,0-.477-.169l-4.865-1.638-.125-.042c-.046-.015-.2.02-.171.093l1.549,4.436,2.452,7.023.566,1.622c.03.085.243.025.215-.058l-1.549-4.436-2.452-7.023-.566-1.622-.171.093,4.47,1.505.85.286a.446.446,0,0,0,.084.028c.045,0,.016.039-.016-.026a.413.413,0,0,1,.027.058,3.277,3.277,0,0,0,.172.375l.31.676,2.163,4.711,2.511,5.47.931,2.027.3.657a2.178,2.178,0,0,0,.161.351.273.273,0,0,1,.021.045l.191-.085-2.525-1.056-4.006-1.675-.931-.389C756.447,426.173,756.254,426.276,756.351,426.317Z" transform="translate(-751.757 -413.111)" fill="#6a79a8"/>
        </g>
      </g>
      <g id="Group_149" data-name="Group 149" transform="translate(28.966 0.846)">
        <path id="Path_270" data-name="Path 270" d="M833.641,436.636a3.321,3.321,0,1,0-6.641,0c0,1.834,3.321,5.188,3.321,5.188S833.641,438.47,833.641,436.636Z" transform="translate(-826.891 -433.263)" fill="#ef8f7f"/>
        <path id="Path_271" data-name="Path 271" d="M842.836,436.254a3.125,3.125,0,1,0-6.238,0c0,1.834,2.917,5.188,2.917,5.188S842.836,438.088,842.836,436.254Z" transform="translate(-836.063 -432.898)" fill="#f9ab98"/>
        <g id="Group_147" data-name="Group 147">
          <path id="Path_272" data-name="Path 272" d="M831.407,435.482a3.384,3.384,0,0,0-2.049-3.079,3.536,3.536,0,0,0-3.6.552,3.2,3.2,0,0,0-1.116,3.176,8.642,8.642,0,0,0,1.668,2.821,21.4,21.4,0,0,0,1.567,1.787c.047.047.162,0,.2-.041.4-.4.775-.829,1.139-1.263A13.415,13.415,0,0,0,831,436.866a3.236,3.236,0,0,0,.408-1.384c0-.054-.214-.018-.215.057a5.011,5.011,0,0,1-1.146,2.57,20.963,20.963,0,0,1-1.759,2.161c-.134.145-.268.29-.407.431l.2-.042c-.4-.4-.775-.829-1.139-1.263a12.893,12.893,0,0,1-1.809-2.629,3.164,3.164,0,0,1-.365-1.234,3.225,3.225,0,0,1,.526-1.833,3.174,3.174,0,0,1,3.5-1.339,3.331,3.331,0,0,1,2.4,3.177C831.193,435.595,831.408,435.557,831.407,435.482Z" transform="translate(-824.55 -432.138)" fill="#6a79a8"/>
        </g>
        <ellipse id="Ellipse_258" data-name="Ellipse 258" cx="1.862" cy="1.737" rx="1.862" ry="1.737" transform="translate(1.766 1.66)" fill="#ef8f7f"/>
        <circle id="Ellipse_259" data-name="Ellipse 259" cx="1.66" cy="1.66" r="1.66" transform="matrix(0.972, -0.233, 0.233, 0.972, 1.427, 2.146)" fill="#fff"/>
        <g id="Group_148" data-name="Group 148" transform="translate(1.665 1.652)">
          <path id="Path_273" data-name="Path 273" d="M865.562,471.009a1.718,1.718,0,0,0-1.223-1.62,1.85,1.85,0,0,0-1.9.557,1.711,1.711,0,0,0-.155,2.013,1.788,1.788,0,0,0,3.275-.935c0-.089-.213-.045-.215.027a1.6,1.6,0,0,1-1,1.494,1.568,1.568,0,0,1-1.758-.527,1.64,1.64,0,0,1-.13-1.807,1.512,1.512,0,0,1,1.695-.721,1.645,1.645,0,0,1,1.2,1.576C865.349,471.134,865.564,471.093,865.562,471.009Z" transform="translate(-862.03 -469.317)" fill="#6a79a8"/>
        </g>
      </g>
      <g id="Group_152" data-name="Group 152" transform="translate(3.33 0.096)">
        <path id="Path_274" data-name="Path 274" d="M255.313,419.086a2.656,2.656,0,0,0-5.313,0c0,1.467,2.656,4.151,2.656,4.151S255.313,420.554,255.313,419.086Z" transform="translate(-249.89 -416.377)" fill="#9fcded"/>
        <path id="Path_275" data-name="Path 275" d="M262.668,418.781a2.5,2.5,0,1,0-4.99,0c0,1.467,2.334,4.151,2.334,4.151S262.668,420.248,262.668,418.781Z" transform="translate(-257.226 -416.085)" fill="#bbdff5"/>
        <g id="Group_150" data-name="Group 150">
          <path id="Path_276" data-name="Path 276" d="M253.044,417.919a2.714,2.714,0,0,0-1.63-2.461,2.866,2.866,0,0,0-2.883.408,2.581,2.581,0,0,0-.954,2.534,6.64,6.64,0,0,0,1.321,2.274,17.107,17.107,0,0,0,1.282,1.465c.047.047.162,0,.2-.041a12.5,12.5,0,0,0,2.339-3.068,2.605,2.605,0,0,0,.326-1.11c0-.054-.214-.019-.215.058a2.867,2.867,0,0,1-.438,1.3,10.326,10.326,0,0,1-.913,1.341,17.119,17.119,0,0,1-1.3,1.485l.2-.042a12.234,12.234,0,0,1-2.345-3.085,2.622,2.622,0,0,1-.3-.985,2.551,2.551,0,0,1,.408-1.473,2.5,2.5,0,0,1,2.8-1.07,2.66,2.66,0,0,1,1.892,2.531C252.83,418.032,253.045,417.994,253.044,417.919Z" transform="translate(-247.513 -415.238)" fill="#6a79a8"/>
        </g>
        <ellipse id="Ellipse_260" data-name="Ellipse 260" cx="1.49" cy="1.389" rx="1.49" ry="1.389" transform="translate(1.436 1.339)" fill="#9fcded"/>
        <circle id="Ellipse_261" data-name="Ellipse 261" cx="1.328" cy="1.328" r="1.328" transform="translate(0.889 2.709) rotate(-45)" fill="#fff"/>
        <g id="Group_151" data-name="Group 151" transform="translate(1.334 1.32)">
          <path id="Path_277" data-name="Path 277" d="M280.409,446.321a1.382,1.382,0,0,0-.989-1.3,1.515,1.515,0,0,0-1.525.43,1.376,1.376,0,0,0-.153,1.638,1.426,1.426,0,0,0,1.485.624,1.441,1.441,0,0,0,1.182-1.374c0-.089-.213-.045-.215.027a1.23,1.23,0,0,1-1.24,1.252,1.291,1.291,0,0,1-1.2-1.287,1.221,1.221,0,0,1,1.287-1.24,1.3,1.3,0,0,1,1.154,1.29C280.2,446.446,280.411,446.4,280.409,446.321Z" transform="translate(-277.54 -444.961)" fill="#6a79a8"/>
        </g>
      </g>
    </g>
  </g>
</svg>
