<svg id="menu" xmlns="http://www.w3.org/2000/svg" width="27.022" height="24.02" viewBox="0 0 27.022 24.02">
  <path id="Path_138" data-name="Path 138" d="M24.77,0H2.252A2.253,2.253,0,0,0,0,2.252v1.5A2.253,2.253,0,0,0,2.252,6H24.77a2.253,2.253,0,0,0,2.252-2.252v-1.5A2.253,2.253,0,0,0,24.77,0Zm0,0" fill="#aeb8d5"/>
  <path id="Path_139" data-name="Path 139" d="M24.77,128H2.252A2.253,2.253,0,0,0,0,130.252v1.5A2.253,2.253,0,0,0,2.252,134H24.77a2.253,2.253,0,0,0,2.252-2.252v-1.5A2.253,2.253,0,0,0,24.77,128Zm0,0" transform="translate(0 -118.993)" fill="#aeb8d5"/>
  <path id="Path_140" data-name="Path 140" d="M24.77,256H2.252A2.253,2.253,0,0,0,0,258.252v1.5A2.253,2.253,0,0,0,2.252,262H24.77a2.253,2.253,0,0,0,2.252-2.252v-1.5A2.253,2.253,0,0,0,24.77,256Zm0,0" transform="translate(0 -237.985)" fill="#aeb8d5"/>
</svg>
