<svg id="Group_12" data-name="Group 12" xmlns="http://www.w3.org/2000/svg" width="13.109" height="20.578" viewBox="0 0 13.109 20.578">
  <path id="Path_15" data-name="Path 15" d="M9.913,0H3.195A3.229,3.229,0,0,0,0,3.195V17.383a3.2,3.2,0,0,0,3.195,3.195H9.913a3.2,3.2,0,0,0,3.195-3.195V3.195A3.168,3.168,0,0,0,9.913,0Zm1.832,17.43A1.785,1.785,0,0,1,9.96,19.215H3.195A1.785,1.785,0,0,1,1.409,17.43V3.195A1.785,1.785,0,0,1,3.195,1.409H9.913a1.8,1.8,0,0,1,1.832,1.785Z" fill="#aeb8d5"/>
  <path id="Path_16" data-name="Path 16" d="M12.885,32.9H7.9a.7.7,0,0,0,0,1.409h5.027a.723.723,0,0,0,.7-.7A.766.766,0,0,0,12.885,32.9Z" transform="translate(-3.817 -17.443)" fill="#aeb8d5"/>
</svg>
