<svg xmlns="http://www.w3.org/2000/svg" width="30.192" height="36.409" viewBox="0 0 30.192 36.409">
  <path id="music" d="M26.059,1.077a4.693,4.693,0,0,0-3.9-.99L10.119,2.426A4.736,4.736,0,0,0,6.3,7.057V27.051a5.3,5.3,0,1,0,1.886,4.056V7.066a2.828,2.828,0,0,1,2.292-2.773L22.522,1.954a2.826,2.826,0,0,1,3.367,2.773V21.911a5.3,5.3,0,1,0,1.886,4.056V4.718A4.686,4.686,0,0,0,26.059,1.077ZM2.9,34.512A3.414,3.414,0,1,1,6.309,31.1,3.414,3.414,0,0,1,2.9,34.512Zm19.579-5.159a3.414,3.414,0,1,1,3.414-3.414A3.414,3.414,0,0,1,22.475,29.353Zm0,0" transform="translate(2.417 0.001)" fill="#E3EFF7"/>
</svg>
