<svg id="offer" xmlns="http://www.w3.org/2000/svg" width="34.377" height="34.377" viewBox="0 0 34.377 34.377">
  <path id="Path_138" data-name="Path 138" d="M37.354,8.3A2.06,2.06,0,0,0,35.3,10.354,2.054,2.054,0,1,0,37.354,8.3Z" transform="translate(-11.127 -2.616)" fill="#E3EFF7"/>
  <path id="Path_139" data-name="Path 139" d="M28.83,0H19.311a8.078,8.078,0,0,0-5.821,2.465L2.191,13.9a7.606,7.606,0,0,0,0,10.683l7.67,7.6A7.629,7.629,0,0,0,15.2,34.377a7.471,7.471,0,0,0,5.273-2.191c.068-.068,4.109-3.972,11.5-11.3a8.3,8.3,0,0,0,2.4-5.821V5.615A5.582,5.582,0,0,0,28.83,0Zm3.492,15.066a6.171,6.171,0,0,1-1.78,4.314c-7.4,7.4-11.436,11.3-11.5,11.368a5.5,5.5,0,0,1-7.738,0l-7.67-7.67a5.386,5.386,0,0,1-1.575-3.835,5.667,5.667,0,0,1,1.575-3.9L15,3.9a6.07,6.07,0,0,1,4.314-1.849h9.45a3.58,3.58,0,0,1,3.561,3.561Z" fill="#E3EFF7"/>
</svg>
