<svg xmlns="http://www.w3.org/2000/svg" width="18.604" height="18.133" viewBox="0 0 18.604 18.133">
  <g id="operation" transform="translate(-842.879 -666.563)">
    <path id="Path_17" data-name="Path 17" d="M865.1,684.12a1.682,1.682,0,0,0-.2-.084v-5.813a.581.581,0,0,0-1.161,0v5.814a1.631,1.631,0,1,0,1.362.084Zm-.363,1.667a.476.476,0,1,1-.191-.646A.476.476,0,0,1,864.733,685.787Z" transform="translate(-12.133 -6.79)" fill="#a7a7be"/>
    <path id="Path_18" data-name="Path 18" d="M852.148,684.506A1.634,1.634,0,0,0,851.1,687.6v3.182a.581.581,0,1,0,1.161,0v-3.175a1.646,1.646,0,0,0,.2-.091,1.638,1.638,0,0,0-.316-3.009Zm-.922,1.435a.47.47,0,0,1,.229-.283.475.475,0,0,1,.226-.058.479.479,0,0,1,.419.249h0a.476.476,0,1,1-.875.092Z" transform="translate(-4.391 -10.954)" fill="#a7a7be"/>
    <path id="Path_19" data-name="Path 19" d="M853.357,679.722a.581.581,0,0,0,.581-.581v-.918a.581.581,0,1,0-1.161,0v.918A.581.581,0,0,0,853.357,679.722Z" transform="translate(-6.065 -6.79)" fill="#a7a7be"/>
    <path id="Path_20" data-name="Path 20" d="M877.639,688.314a1.638,1.638,0,1,0-1.563,2.879,1.682,1.682,0,0,0,.2.091v1.752a.581.581,0,1,0,1.161,0v-1.759a1.632,1.632,0,0,0,.2-2.963Zm-1.2,1.212a.477.477,0,0,1,.42-.249.476.476,0,0,1,.417.7h0a.476.476,0,0,1-.837-.454Z" transform="translate(-19.82 -13.209)" fill="#a7a7be"/>
    <path id="Path_21" data-name="Path 21" d="M878.618,681.029a.581.581,0,0,0,.581-.581v-2.225a.581.581,0,1,0-1.161,0v2.225A.581.581,0,0,0,878.618,681.029Z" transform="translate(-21.546 -6.79)" fill="#a7a7be"/>
    <path id="Path_22" data-name="Path 22" d="M861.288,671.668a5.047,5.047,0,0,0-1.851-3.694,8.362,8.362,0,0,0-3.919-1.177l-.257-.031a24.557,24.557,0,0,0-7.853.254,8.135,8.135,0,0,0-1.8.526,3.958,3.958,0,0,0-1.727,1.407,6.9,6.9,0,0,0-.867,3.336c-.083,1.159-.163,2.535-.131,3.949.013.559.029,1.156.071,1.761a10.113,10.113,0,0,0,.919,3.96,4.375,4.375,0,0,0,3.507,2.294,32.866,32.866,0,0,0,4.634.443h.1a25.787,25.787,0,0,0,4.642-.474,5.649,5.649,0,0,0,3.346-1.526,6.55,6.55,0,0,0,1.224-4.053A35.571,35.571,0,0,0,861.288,671.668Zm-1.113,6.9a5.68,5.68,0,0,1-.926,3.35,4.639,4.639,0,0,1-2.693,1.164,24.127,24.127,0,0,1-4.532.455,32.013,32.013,0,0,1-4.471-.43,3.17,3.17,0,0,1-2.648-1.686,9.1,9.1,0,0,1-.788-3.5c-.039-.581-.055-1.163-.068-1.709-.031-1.366.047-2.708.128-3.84a5.958,5.958,0,0,1,.675-2.776,2.782,2.782,0,0,1,1.234-.99h0a7.04,7.04,0,0,1,1.54-.446,23.917,23.917,0,0,1,4.5-.436,23.309,23.309,0,0,1,2.986.194l.263.032a7.352,7.352,0,0,1,3.4.979,3.981,3.981,0,0,1,1.359,2.889A34.589,34.589,0,0,1,860.175,678.564Z" transform="translate(0)" fill="#a7a7be"/>
  </g>
</svg>
