<svg xmlns="http://www.w3.org/2000/svg" width="20.932" height="21.744" viewBox="0 0 20.932 21.744">
  <path id="Path_115" data-name="Path 115" d="M727.885,23376.742a2.721,2.721,0,0,1-2.727-2.729v-.957h-2.432a2.722,2.722,0,0,1-2.729-2.727v-12.6a2.715,2.715,0,0,1,2.692-2.729h10.319a2.776,2.776,0,0,1,2.763,2.729v.994h2.4a2.768,2.768,0,0,1,2.763,2.689v12.6a2.721,2.721,0,0,1-2.726,2.729Zm-1.622-2.729a1.691,1.691,0,0,0,1.585,1.66h10.319a1.636,1.636,0,0,0,1.622-1.621v-12.6a1.64,1.64,0,0,0-1.622-1.625h-2.4v10.506a2.72,2.72,0,0,1-2.726,2.727h-6.783Zm-5.2-16.287v12.566a1.638,1.638,0,0,0,1.624,1.621h10.319a1.638,1.638,0,0,0,1.622-1.621h.037v-12.566a1.637,1.637,0,0,0-1.622-1.621H722.726A1.7,1.7,0,0,0,721.065,23357.727Zm3.357,8.586a.553.553,0,1,1,0-1.105h2.911a.553.553,0,0,1,0,1.105Zm0-2.393a.555.555,0,0,1,0-1.109h6.852a.555.555,0,0,1,0,1.109Zm0-2.436a.554.554,0,1,1,0-1.107h6.852a.554.554,0,1,1,0,1.107Z" transform="translate(-719.998 -23354.998)" fill="#a7a7be"/>
</svg>
