<svg xmlns="http://www.w3.org/2000/svg" width="18.21" height="22.029" viewBox="0 0 18.21 22.029">
  <g id="password_icon" data-name="password icon" transform="translate(-965.481 -229.83)">
    <path id="Path_86" data-name="Path 86" d="M412.777,500.6v-3.731a5.807,5.807,0,0,0-1.932-4.505,5.2,5.2,0,0,0-1-.649,6.123,6.123,0,0,0-6.475.868,7.188,7.188,0,0,0-2.15,5.656V500.6a3.56,3.56,0,0,0-3.329,3.547v4.807a4.234,4.234,0,0,0,4.229,4.229h9.752a4.234,4.234,0,0,0,4.229-4.229v-4.807A3.56,3.56,0,0,0,412.777,500.6Zm-8.5-7a4.758,4.758,0,0,1,4.958-.67,3.857,3.857,0,0,1,.735.479,4.352,4.352,0,0,1,1.439,3.48v3.7h-8.822v-2.35A5.9,5.9,0,0,1,404.28,493.6Zm10.462,15.35a2.867,2.867,0,0,1-2.864,2.864h-9.752a2.867,2.867,0,0,1-2.864-2.864v-4.807a2.2,2.2,0,0,1,2.193-2.193h10.226a.67.67,0,0,0,.829,0h.039a2.2,2.2,0,0,1,2.193,2.193Z" transform="translate(567.584 -261.324)" fill="#CC2626"/>
  </g>
</svg>
