<svg xmlns="http://www.w3.org/2000/svg" width="13.275" height="13.102" viewBox="0 0 13.275 13.102">
  <path id="Path_128" data-name="Path 128" d="M12.177.753a2.606,2.606,0,0,0-3.613,0L.855,8.282a.36.36,0,0,0-.12.235l-.753,3.618a.518.518,0,0,0,.12.412.459.459,0,0,0,.331.118h.09l3.734-.735a.611.611,0,0,0,.241-.118l7.708-7.529A2.437,2.437,0,0,0,12.177.753ZM3.926,11.105l-2.921.559.572-2.853L7.991,2.576,10.25,4.959Zm7.618-7.441-.693.676L8.593,1.959,9.166,1.4a1.72,1.72,0,0,1,2.349,0A1.516,1.516,0,0,1,11.544,3.665Z" transform="translate(0.177 0.288)" fill="#a7a7be" stroke="#a7a7be" stroke-width="0.3"/>
</svg>
