<svg xmlns="http://www.w3.org/2000/svg" width="39.438" height="33.305" viewBox="0 0 39.438 33.305">
  <g id="pin" transform="translate(0.001 -0.002)">
    <path id="Path_150" data-name="Path 150" d="M33.381,199.732a.85.85,0,0,0-.77-.49h-5.65v1.7h5.109l5.184,11.11H2.182l5.184-11.11h5.47v-1.7H6.826a.85.85,0,0,0-.77.49L.079,212.54a.849.849,0,0,0,.769,1.209h37.74a.849.849,0,0,0,.77-1.208Zm0,0" transform="translate(0 -180.442)" fill="#a7a7be"/>
    <path id="Path_151" data-name="Path 151" d="M98.582,28.183a.85.85,0,0,1-.614-.263l-7.7-8.064A12.176,12.176,0,0,1,87.611,15.7a11.2,11.2,0,0,1-.7-4.68,11.944,11.944,0,0,1,3.53-7.693,11.623,11.623,0,0,1,16.275,0,11.94,11.94,0,0,1,3.53,7.693,11.189,11.189,0,0,1-.7,4.68,12.171,12.171,0,0,1-2.661,4.158L99.2,27.92A.848.848,0,0,1,98.582,28.183Zm0-26.483a9.82,9.82,0,0,0-6.944,2.835,10.246,10.246,0,0,0-3.029,6.6,9.507,9.507,0,0,0,.595,3.973,10.489,10.489,0,0,0,2.3,3.576l7.082,7.42,7.082-7.42a10.486,10.486,0,0,0,2.3-3.576,9.513,9.513,0,0,0,.595-3.973,10.247,10.247,0,0,0-3.029-6.6A9.818,9.818,0,0,0,98.582,1.7Zm0,14.752a5.5,5.5,0,1,1,5.456-5.5A5.486,5.486,0,0,1,98.582,16.452Zm0-9.307a3.8,3.8,0,1,0,3.758,3.8A3.786,3.786,0,0,0,98.582,7.144Zm0,0" transform="translate(-78.693)" fill="#a7a7be"/>
  </g>
</svg>
