<svg xmlns="http://www.w3.org/2000/svg" width="45.965" height="40.86" viewBox="0 0 45.965 40.86">
  <g id="Group_176" data-name="Group 176" transform="translate(-88.437 -150.82)">
    <g id="ëÎÓÈ_1" data-name="ëÎÓÈ 1" transform="translate(88.437 150.82)">
      <path id="Path_278" data-name="Path 278" d="M100.291,190.988c-.973-.208-12.67-2.081-11.809-15.9s1.942-17.972,6.489-19.492,15.6-8.714,24.275-1.874,18.034,12.975,14.32,23.9-4.323,14.564-14.013,14.007S104.92,191.977,100.291,190.988Z" transform="translate(-88.437 -150.82)" fill="#f9f9f9"/>
    </g>
    <g id="ëÎÓÈ_2" data-name="ëÎÓÈ 2" transform="translate(99.935 159.077)">
      <g id="Group_154" data-name="Group 154" transform="translate(0.102 0.074)">
        <path id="Path_279" data-name="Path 279" d="M355.472,357.6a11.707,11.707,0,0,1-8.3-20.014,11.709,11.709,0,1,1,16.544,16.574A11.554,11.554,0,0,1,355.472,357.6Z" transform="translate(-343.717 -334.16)" fill="#bbdff5"/>
        <path id="Path_280" data-name="Path 280" d="M362.065,352.3c-.041-.155-.2-.284-.3-.423a2.135,2.135,0,0,1-.193-.39,3.58,3.58,0,0,0-.388-.641,1.007,1.007,0,0,1-.288-.543.1.1,0,0,1,.067-.1.118.118,0,0,1,.081.022c.177.109.236.337.373.493.079.09.182.155.262.244a1.676,1.676,0,0,1,.208.416.9.9,0,0,0,.241.256c.113.1.173.245.3.345a.919.919,0,0,1,.145.157.4.4,0,0,1,.063.2,1.458,1.458,0,0,0,.193.468.158.158,0,0,0,.2.073.357.357,0,0,0,.174-.084.987.987,0,0,1,.251-.16,3.414,3.414,0,0,0,.863-.674,5.748,5.748,0,0,0,.683-.691,2.6,2.6,0,0,0,.388-.926.316.316,0,0,0,.008-.146c-.027-.106-.148-.158-.256-.175a.711.711,0,0,1-.315-.081.249.249,0,0,1-.095-.269,1.779,1.779,0,0,0,1.286-.344c.231-.158.288.1.5.154.063.015.148.129.219.162a1.045,1.045,0,0,0,.386.092.257.257,0,0,1,.149.034.234.234,0,0,1,.062.093,6.828,6.828,0,0,0,.495.872c.123.19.2.521.414.632.14.072.213-.024.242-.143.011-.045.051-.094.093-.077a.08.08,0,0,1,.041.058c.021.083,0,.182.05.249a.13.13,0,0,0,.128.044c.088-.021.122-.126.122-.206,0-.285-.263-.587-.333-.869a2.805,2.805,0,0,1-.057-.942,5.053,5.053,0,0,1,.549-1.787.05.05,0,0,1,.022-.026.051.051,0,0,1,.045.011.971.971,0,0,1,.341.3,1.921,1.921,0,0,1,.116.315c.008.022.021.047.044.048s.042-.026.051-.049.115-.317.11-.325a4.676,4.676,0,0,1,.292.98,6.225,6.225,0,0,1,.291.9.2.2,0,0,0-.288.178.714.714,0,0,0,.039.146,1.643,1.643,0,0,1,.029.168,4.086,4.086,0,0,0,.132.435,3.458,3.458,0,0,1-.408,2.135,12.056,12.056,0,0,1-2.863,4.32,11.16,11.16,0,0,1-.923.795,11.553,11.553,0,0,1-1.273.859,10.962,10.962,0,0,1-1.214.613c-.293.125-.589.242-.891.344a11.367,11.367,0,0,1-1.237.342c-.3.065-.611.12-.919.161q-.348.047-.7.073c-.163.012-.326.016-.489.026s-.348.01-.521.008q-.444-.006-.886-.045c-.229-.02-.458-.045-.686-.078-.284-.041-.566-.095-.846-.158a11.445,11.445,0,0,1-2.37-.809,11.49,11.49,0,0,1-1.577-.894,11.3,11.3,0,0,1-1.032-.785c-.272-.233-.537-.473-.786-.73a10.725,10.725,0,0,1-1.169-1.368,4.521,4.521,0,0,1-.437-.779c-.085-.2-.263-.552-.19-.772a1.857,1.857,0,0,1,.11-.215c.225-.462-.243-1.085-.466-1.469a5.415,5.415,0,0,1-.7-1.541,7.449,7.449,0,0,1-.143-.811,1.33,1.33,0,0,0-.028-.3c-.065-.19-.084-.39-.135-.583-.016-.061-.041-.119-.061-.179a.786.786,0,0,1-.02-.231c0-.26-.014-.519.005-.779a2.128,2.128,0,0,0,0-.264,3.694,3.694,0,0,1,.079-.8c.057-.337.128-.672.217-1,.036-.132.067-.266.114-.393a1.651,1.651,0,0,0,.087-.229,5.988,5.988,0,0,1,.358-1c.1-.237.209-.466.324-.694.159-.313.332-.619.521-.916.056-.088.113-.175.17-.262a.066.066,0,0,1,.08-.037c.13.029.215-.056.3-.13a1.006,1.006,0,0,1,.293-.206.784.784,0,0,0,.132-.088c.028.06.048.127.07.191a.036.036,0,0,0,.008.015c.019.019.16-.192.184-.209a.132.132,0,0,1,.155-.006c.055.045.067.151.138.152a.777.777,0,0,0-.189.148.052.052,0,0,0-.019.042c0,.015.018.024.032.032l.148.081a.344.344,0,0,0,.164.056.176.176,0,0,0,.165-.135.3.3,0,0,1-.133-.037c.081-.108.075-.268.171-.363.164-.163.368-.156.221-.446-.017-.034.129-.011.147,0,.112.092-.021.307-.059.408a.44.44,0,0,0,.128-.146.461.461,0,0,0,.24.266,4.848,4.848,0,0,0-.505.311.589.589,0,0,0-.042.473.114.114,0,0,0,.027.064c.05.047.124-.02.158-.08a4.246,4.246,0,0,1,.3-.475c.217-.288.479-.546.71-.825a9.807,9.807,0,0,1,.825-.859l-.289-.029a2.187,2.187,0,0,1,.44-.367.724.724,0,0,0,.318-.46,4.9,4.9,0,0,0-.755.277,6,6,0,0,1-.934.293c.632-.307,1-1.023,1.646-1.295a.711.711,0,0,1,.369-.065.363.363,0,0,1,.292.212.324.324,0,0,0-.273.288,1.435,1.435,0,0,1,.9-.14.291.291,0,0,0-.245.122c-.072.08-.143.185-.261.194a.154.154,0,0,1-.167-.12,2.742,2.742,0,0,0-.735.856c.032-.059.105.024.128.023a.316.316,0,0,0,.174-.061c.135-.08.264-.17.4-.254a1.423,1.423,0,0,1-.157.195.726.726,0,0,0,.478-.178l.729-.5a4.388,4.388,0,0,0,.616-.475c.054-.053.106-.146.05-.2a.136.136,0,0,0-.078-.027.923.923,0,0,0-.5.085c-.111.053-.238.13-.346.07a1.389,1.389,0,0,1,1.162-.2l-.112.2c-.015.026-.029.059-.012.084a.082.082,0,0,0,.062.025l.556.056c.116.012.318.045.332.193a.739.739,0,0,0-.646-.017,1.323,1.323,0,0,0-.254.31,2.556,2.556,0,0,1-.921.546c-.091.047-.192.137-.153.231a.757.757,0,0,0-.564.145,2.756,2.756,0,0,0-.643.552.779.779,0,0,0-.237.66,3.274,3.274,0,0,1,1.831-.407,2.142,2.142,0,0,0,.59.007,1.459,1.459,0,0,0,.51-.248,7.6,7.6,0,0,0,.7-.537,3.7,3.7,0,0,1,.409-.329c.163-.1.36-.065.3-.306a.61.61,0,0,1,.005-.186c.013-.2-.323-.421-.507-.408a.24.24,0,0,0,.207-.22.34.34,0,0,0-.137-.285.6.6,0,0,0-.3-.112c-.114-.013-.343-.009-.356-.171a.288.288,0,0,0,0-.072c-.024-.069-.129-.05-.184,0s-.111.114-.183.1-.1-.071-.149-.106a.39.39,0,0,0-.366.026.379.379,0,0,1-.365.02,2.449,2.449,0,0,0,.606-.1,1.5,1.5,0,0,0,.413-.221c.2-.123.478-.082.694-.188.018-.009.038-.023.036-.042s-.015-.026-.029-.033c-.2-.121-.287,0-.47.02a.5.5,0,0,1-.267-.045c-.045-.022.218-.153.225-.155a2.694,2.694,0,0,1,.368-.045c.181-.026.347-.105.526-.141a3.717,3.717,0,0,1,.682-.057,7.7,7.7,0,0,0,1.2-.066.134.134,0,0,0,.07-.027.275.275,0,0,0,.041-.069.229.229,0,0,1,.1-.082.71.71,0,0,1,.455-.054c-.064.008-.086.1-.053.153a.3.3,0,0,0,.157.105c.274.091.542.211.811.316.181.07.5.124.562.346.037.143.487.3.2.474a.182.182,0,0,1-.191,0c-.055-.037-.085-.1-.134-.146a.109.109,0,0,0-.121-.03.1.1,0,0,0-.044.09.238.238,0,0,0,.134.2.748.748,0,0,0,.462,0,.389.389,0,0,1,.436.247c0,.006-.222.071-.238.079-.053.025-.092.081-.03.126.025.018.056.026.081.043a.147.147,0,0,1,0,.235.248.248,0,0,1-.214,0,.582.582,0,0,0-.409,0,4.623,4.623,0,0,1-.9.135.231.231,0,0,0,.209.172.717.717,0,0,0,.285-.046.6.6,0,0,1,.286-.035c.042.008.09.053.061.085-.012.013-.031.015-.046.025-.041.029-.012.093.017.134a1.308,1.308,0,0,1,.246.737.063.063,0,0,1-.009.042.058.058,0,0,1-.033.017.572.572,0,0,0-.222.054.233.233,0,0,0-.056.25c.041.147.12.479.313.494-.147-.011-.293.021-.44.015-.33-.012-.438-.245-.42-.547,0-.075.107-.542-.083-.446a.542.542,0,0,0-.2.3,1.053,1.053,0,0,0,.041.518.38.38,0,0,0,.183.251c.145.069.321-.026.459.046a.1.1,0,0,1,.045.139c-.034.043-.112.034-.159.053a.8.8,0,0,0-.214.17c-.127.111-.27.079-.425.075a.08.08,0,0,0-.051.01c-.068.053.1.338.109.333a.117.117,0,0,1-.1-.014c-.52-.258-1.086-.786-1.7-.483l-.445.219c-.094.047-.311.166-.224.292a1.5,1.5,0,0,1-.461.494,1.531,1.531,0,0,0-.5.4.8.8,0,0,0-.1.357.489.489,0,0,0,.022.231.207.207,0,0,0,.176.135.392.392,0,0,0,.17-.06.2.2,0,0,1,.174-.019c.054.028.066.123.009.143a.387.387,0,0,0-.426.311c-.019.126.008.292-.106.349-.068.033-.149,0-.224.011-.227.024-.324.375-.552.369.119,0-.077-.759-.1-.839a.332.332,0,0,1-.007-.23c.023-.046.067-.079.093-.124s.023-.116-.025-.134c-.028-.01-.073-.013-.067-.042a.041.041,0,0,1,.012-.019l.114-.116c.033-.034.066-.09.032-.122a.07.07,0,0,0-.082,0,.756.756,0,0,1-.072.051c-.06.028-.138,0-.191.038-.014.01-.032.026-.046.016s-.01-.024-.016-.036c-.015-.031-.062-.019-.09,0a.689.689,0,0,0-.179.163c-.017.022-.033.056-.014.077s.057.015.067.04a.145.145,0,0,0-.085.058.064.064,0,0,1,.046.079.111.111,0,0,1-.072.07.5.5,0,0,1-.1.02,1.31,1.31,0,0,0-.292.091.211.211,0,0,0-.125.093c-.02.045-.006.1-.027.145s-.095.08-.134.128a.132.132,0,0,0,.015.184.207.207,0,0,0,.126.029,1.225,1.225,0,0,0,.22-.021.326.326,0,0,0,.241-.14c.023-.044.027-.1.047-.141s.064-.089.113-.078c-.017.027.01.066.042.068a.082.082,0,0,0,.073-.053.093.093,0,0,1-.041.131c-.042.017-.1,0-.128.039s-.006.1-.033.134-.076.033-.11.057a.086.086,0,0,0-.026.108c.011.022.033.039.035.064s-.035.058-.067.072a1.771,1.771,0,0,0-.224.1.055.055,0,0,0-.025.026c-.018.053.188.041.218.043l.3.014a1.207,1.207,0,0,1,.444.078.609.609,0,0,1-.184.1.191.191,0,0,1-.155-.024.188.188,0,0,0-.236.02.041.041,0,0,0,0,.054c-.091-.009-.2-.05-.282.021a.136.136,0,0,0-.029.157c.025.049.078.08.1.129,0,.01.008.021.014.031a.371.371,0,0,0,.038.051.466.466,0,0,1,.056.355c-.016.1-.059.276-.174.3a.221.221,0,0,1-.119-.015,3.166,3.166,0,0,1-.5-.213c-.1-.055-.316-.061-.383.061a.3.3,0,0,0-.023.126.783.783,0,0,1-.115.367.98.98,0,0,0-.17.323c-.018.1,0,.208-.059.286-.014.018-.033.038-.026.06a.053.053,0,0,0,.024.026.853.853,0,0,0,.178.069.225.225,0,0,1,.143.119.213.213,0,0,1-.006.137c-.072.224-.3.321-.482.438-.229.145-.315.377-.519.548a2.947,2.947,0,0,1-.563.306,2.208,2.208,0,0,0-.978,1.688,2.167,2.167,0,0,1-.163.495c-.2.567.375,1.325.681,1.761a2.227,2.227,0,0,0,.549.589,3.019,3.019,0,0,0,.859.241,2.085,2.085,0,0,0,.868.1,1.9,1.9,0,0,1,.371-.018.467.467,0,0,1,.337.177c.078.106.107.242.227.314a.9.9,0,0,0,.483.091c-.133.005.088.141.094.145.106.069.148.033.153.171a.749.749,0,0,1-.18.406.243.243,0,0,0-.048.077c-.023.077.043.15.1.206a3.6,3.6,0,0,1,.886,1.429.331.331,0,0,1,.02.221.487.487,0,0,1-.125.151c-.334.345-.091.717.124,1.047a5.992,5.992,0,0,0,.877,1.058,1.257,1.257,0,0,0,1.207.349,3.725,3.725,0,0,0,1.139-.3,2.4,2.4,0,0,0,.526-.4c.157-.143.376-.259.513-.413a.269.269,0,0,0,.063-.275c-.057-.133-.028-.177.1-.253.288-.173.806-.336.967-.653a.729.729,0,0,0,.018-.58,2.51,2.51,0,0,1-.157-.487.973.973,0,0,1,.139-.594,8.253,8.253,0,0,1,1.086-1.177,4.609,4.609,0,0,0,.817-1.382.971.971,0,0,0,.07-.674.072.072,0,0,0-.033-.047c-.027-.012-.056.011-.078.03a1.853,1.853,0,0,1-.477.279l-.428.2a.554.554,0,0,1-.16.054c-.166.02-.244-.149-.325-.262a3.193,3.193,0,0,0-.429-.458.355.355,0,0,0-.144-.1.122.122,0,0,0-.146.062A.287.287,0,0,0,362.065,352.3Z" transform="translate(-347.264 -337.096)" fill="#fff"/>
        <path id="Path_281" data-name="Path 281" d="M505.28,544.8c0,.026-.02.043-.016.077a.078.078,0,0,0,.047.063.469.469,0,0,1,.049.016c.04.022.04.079.062.119.041.075.151.08.2.145.013.016.027.036.046.034s.026-.021.03-.037c.019-.07-.006-.147.038-.21a.1.1,0,0,1,.1-.041c.04.012.062.054.085.088a.39.39,0,0,0,.153.135.074.074,0,0,0,.038.01c.034,0,.05-.043.052-.076a.382.382,0,0,0-.121-.277,2.543,2.543,0,0,0-.211-.179c-.054-.045-.1-.129-.161-.163.037.023.084,0,.121-.02a1.6,1.6,0,0,1,.257-.14c0,.036-.036.05-.054.082a.06.06,0,0,0,.047.087c.064,0,.1-.05.1.047,0,.04-.012.079-.012.119a.294.294,0,0,0,.113.2.147.147,0,0,0-.05.025.04.04,0,0,0,0,.057c.018.015.045,0,.068.006.041,0,.062.051.078.089s.1.245.165.227a.054.054,0,0,0,.029-.027c.014-.024.02-.052.034-.076a.065.065,0,0,1,.068-.036c.092.027.185.143.279.041.026-.028.04-.069.073-.087a.112.112,0,0,1,.1.006c.032.017.06.042.091.061a.294.294,0,0,0,.259.019c.1-.041.222-.186.319-.049.076.108.034.292.016.412a2.423,2.423,0,0,1-.125.474.209.209,0,0,1-.075.112c-.068.041-.161,0-.234-.006a.746.746,0,0,0-.386.035.631.631,0,0,1-.3.082,1.425,1.425,0,0,1-.352-.057,3.541,3.541,0,0,1-.494-.16.729.729,0,0,0-.457-.128.319.319,0,0,0-.248.237c-.009.046-.005.095-.018.14-.029.106-.12.1-.2.064l-.328-.15a.4.4,0,0,1-.107-.063c-.054-.05-.075-.124-.129-.175a.516.516,0,0,0-.218-.106,1.632,1.632,0,0,1-.376-.167c-.048-.028-.134-.081-.13-.147s.09-.09.132-.139c.057-.067.006-.138-.016-.21a.184.184,0,0,1-.005-.122c.015-.044.066-.072.06-.124s-.047-.064-.085-.078a2.24,2.24,0,0,0-.676-.086,3.117,3.117,0,0,0-1.124.016.693.693,0,0,1-.2.05.517.517,0,0,1-.163-.035l-.157-.054c-.059-.02-.131-.062-.119-.123.009-.046.062-.069.108-.074a1.913,1.913,0,0,1,.29.029.5.5,0,0,0,.43-.218,1.742,1.742,0,0,1,.191-.332.8.8,0,0,1,.278-.14.377.377,0,0,0,.234-.194.445.445,0,0,1,.049-.135.184.184,0,0,1,.21-.024.613.613,0,0,0,.213.073c.149,0,.273-.169.418-.134a.165.165,0,0,1,.11.21.122.122,0,0,0-.016.058.088.088,0,0,0,.034.048,4.189,4.189,0,0,1,.7.673c.037.053.071.124.036.178-.083.132-.3.078-.425.058-.066-.011-.176-.023-.162.078s.4.4.467.288a.433.433,0,0,0,.022-.094.251.251,0,0,1,.126-.134.452.452,0,0,0,.193-.173.208.208,0,0,0,0-.2.12.12,0,0,1-.023-.047c-.006-.052.053-.028.075-.016a.514.514,0,0,1,.1.087c.083.081.118-.106.081-.163a.554.554,0,0,0-.153-.128.626.626,0,0,1-.145-.147.2.2,0,0,0-.057-.064.33.33,0,0,0-.074-.023.288.288,0,0,1-.159-.153c-.035-.067-.058-.141-.1-.2a1.287,1.287,0,0,1-.089-.137c-.018-.039-.016-.185.048-.186a.071.071,0,0,1,.059.04.454.454,0,0,1,.026.07.631.631,0,0,0,.151.193,1.626,1.626,0,0,0,.177.219,1.643,1.643,0,0,0,.257.136c.169.1.142.225.16.391a.813.813,0,0,0,.121.3.6.6,0,0,1,.078.138A.077.077,0,0,1,505.28,544.8Z" transform="translate(-494.075 -533.777)" fill="#fefefe"/>
        <path id="Path_282" data-name="Path 282" d="M618.151,540.895c-.117-.024-.242,0-.35-.071a.117.117,0,0,0-.06-.005.094.094,0,0,1-.058-.021.239.239,0,0,0-.177-.01,1.046,1.046,0,0,0-.355.127.593.593,0,0,1-.376.077.222.222,0,0,1-.176-.307c0-.009.008-.023.015-.026.068-.027.061-.086.066-.143a.231.231,0,0,1,.065-.142.342.342,0,0,0,.1-.179.316.316,0,0,1,.12-.181c.013-.011.036-.028.048-.009a.138.138,0,0,0,.116.055.039.039,0,0,1,.032.051c-.013.07.019.106.085.124a.085.085,0,0,1,.062.083c0,.035.022.044.053.045a.267.267,0,0,0,.163-.062.37.37,0,0,1,.236-.088.335.335,0,0,1,.123.032c.192.091.38.19.563.3s.122.21-.018.3C618.343,540.9,618.242,540.876,618.151,540.895Z" transform="translate(-604.186 -530.644)" fill="#fefefe"/>
        <path id="Path_283" data-name="Path 283" d="M837.911,497.039a.407.407,0,0,1,.056.153,1.7,1.7,0,0,0,.079.25c.008.018.017.048.046.041s.023-.035.023-.057a1.191,1.191,0,0,0-.107-.529,1.184,1.184,0,0,1-.089-.372,5.257,5.257,0,0,0-.1-.582,2.088,2.088,0,0,0-.09-.33c0-.012-.026-.03,0-.04a.041.041,0,0,1,.054.016.881.881,0,0,1,.036.084,11.631,11.631,0,0,1,.464,1.443,10.665,10.665,0,0,1,.214,1.065c.038.26.07.52.09.782s.026.522.039.782c.013.238-.01.474-.008.71a1.219,1.219,0,0,1-.025.266c-.011-.064-.021-.128-.033-.192a.88.88,0,0,0-.077-.238.176.176,0,0,0-.073-.088c-.093-.046-.1-.138-.117-.223a.408.408,0,0,0-.067-.174.3.3,0,0,1-.039-.158.932.932,0,0,1-.008-.3.256.256,0,0,1,.028-.068.048.048,0,0,1,.05-.028c.022,0,.021.027.021.046a.064.064,0,0,0,.059.067.068.068,0,0,1,.063.063c.005.033.023.054.058.049s.041-.034.042-.065a5.968,5.968,0,0,0-.023-.683,3.194,3.194,0,0,0-.064-.477.826.826,0,0,0-.284-.467.525.525,0,0,1-.168-.331c-.021-.124-.041-.249-.062-.373A.035.035,0,0,1,837.911,497.039Z" transform="translate(-815.265 -488.234)" fill="#fefefe"/>
        <path id="Path_284" data-name="Path 284" d="M676.765,536.141c0-.053,0-.116.083-.131.02,0,.029-.027.028-.05a.055.055,0,0,0-.036-.052,1.957,1.957,0,0,1-.478-.336.207.207,0,0,1-.062-.09c-.035-.1-.063-.211-.109-.311-.021-.046.008-.087.045-.118a.093.093,0,0,1,.109-.006.321.321,0,0,1,.116.1.3.3,0,0,0,.125.1.623.623,0,0,1,.134.106.329.329,0,0,0,.179.086c.046,0,.061.041.061.079a.234.234,0,0,0,.077.174.077.077,0,0,1,.024.035,2.694,2.694,0,0,0,.155.385.313.313,0,0,0,.073.133.32.32,0,0,1,.077.184c.009.063-.051.116-.144.127a.3.3,0,0,1-.233-.04.2.2,0,0,0-.092-.032c-.087-.015-.11-.036-.118-.121S676.77,536.221,676.765,536.141Z" transform="translate(-661.077 -525.905)" fill="#fefefe"/>
        <path id="Path_285" data-name="Path 285" d="M704.232,360.581a.2.2,0,0,1-.05-.019.154.154,0,0,0-.148-.03.088.088,0,0,1-.071-.01c-.022-.013-.045-.025-.015-.054s.009-.048-.014-.065a.551.551,0,0,0-.154-.075,2.651,2.651,0,0,0-.3-.094.286.286,0,0,0-.067-.007c-.016,0-.036-.008-.044.011s.008.035.023.044a.186.186,0,0,1,.082.162c0,.045.015.072.068.055a.125.125,0,0,1,.049,0c.025,0,.033.023.039.043a.055.055,0,0,1-.019.055c-.018.018-.034,0-.05-.006a.742.742,0,0,1-.135-.1c-.223-.169-.468-.306-.7-.457a4.375,4.375,0,0,1-.47-.352.733.733,0,0,1-.178-.164c-.039-.064-.121-.087-.187-.145a.892.892,0,0,1,.166.047c.164.048.331.087.5.127a1.461,1.461,0,0,1,.34.168,10.964,10.964,0,0,1,.983.6c.124.085.247.173.37.26Z" transform="translate(-685.609 -358.223)" fill="#fefefe"/>
        <path id="Path_286" data-name="Path 286" d="M574.567,483.977c-.02.013-.028.021-.036.022-.124.016-.17.106-.2.21a2.853,2.853,0,0,0-.109.457.228.228,0,0,1-.108.159.134.134,0,0,1-.186.009.2.2,0,0,0-.224.029.337.337,0,0,1-.213.064c-.042,0-.082-.013-.092-.064s-.036-.044-.068-.051-.043-.012-.042-.038.023-.026.04-.031a.124.124,0,0,1,.157.041.063.063,0,0,0,.093.011c.034-.027.005-.053-.016-.076s-.051-.032-.04-.063.046-.034.078-.036a.242.242,0,0,0,.238-.3.171.171,0,0,1,.1-.183.369.369,0,0,0,.2-.149.058.058,0,0,1,.051-.028A1.792,1.792,0,0,1,574.567,483.977Z" transform="translate(-562.853 -477.148)" fill="#fefefe"/>
        <path id="Path_287" data-name="Path 287" d="M696.411,601.719c.013.015.031.03.05.025.042-.012.011-.1.052-.111a1.869,1.869,0,0,0,.157.224.406.406,0,0,0,.213.165,1.392,1.392,0,0,0,.547.09.455.455,0,0,0,.256-.153.113.113,0,0,1,.031-.03c.062-.033,0,.071-.01.083-.076.107-.143.219-.208.332-.052.091-.094.222-.191.1a.209.209,0,0,1-.148.184.1.1,0,0,1-.094,0c-.024-.016-.05-.035-.009-.065a.054.054,0,0,0,.017-.066c-.031-.1-.034-.217-.166-.236a.058.058,0,0,0-.037,0c-.045.025.006.1-.026.145a.042.042,0,0,1-.074-.038.266.266,0,0,0,.012-.03.066.066,0,0,0-.014-.044.494.494,0,0,0-.234-.238.166.166,0,0,1-.04-.016.125.125,0,0,1-.025-.024c-.03-.036-.117-.108-.122-.156S696.413,601.778,696.411,601.719Z" transform="translate(-680.326 -589.479)" fill="#fefefe"/>
        <path id="Path_288" data-name="Path 288" d="M630.487,337.506c.223.028.441.058.657.094.355.06.707.138,1.055.23.324.085.642.188.957.3l.029.01c.013,0,.033.008.027.026s-.028.012-.042.006-.04-.02-.061-.029a1.164,1.164,0,0,0-.252-.07,1.628,1.628,0,0,1-.345-.124,3.393,3.393,0,0,0-.566-.151c-.178-.042-.358-.076-.535-.126-.019-.005-.04-.011-.049.009-.022.05-.064.042-.1.043a.991.991,0,0,1-.451-.092.62.62,0,0,0-.236-.057C630.531,337.575,630.487,337.567,630.487,337.506Z" transform="translate(-617.456 -337.354)" fill="#fdfdfd"/>
        <path id="Path_289" data-name="Path 289" d="M588.268,469.17a.14.14,0,0,1-.143-.2.664.664,0,0,1,.258-.3c.022-.017.036-.011.04.019a1.3,1.3,0,0,1,.017.273c0,.018-.005.036-.006.055C588.429,469.123,588.378,469.171,588.268,469.17Z" transform="translate(-577.007 -462.546)" fill="#fefefe"/>
        <path id="Path_290" data-name="Path 290" d="M639.172,737.845c.078,0,.108.041.083.1a.222.222,0,0,1-.158.155.081.081,0,0,0-.059.04c-.029.059-.079.054-.126.039s-.045-.07-.037-.11a.156.156,0,0,1,.1-.138c.049-.019.088-.069.146-.082A.26.26,0,0,1,639.172,737.845Z" transform="translate(-625.457 -719.502)" fill="#fefefe"/>
        <path id="Path_291" data-name="Path 291" d="M596.8,460.833a.167.167,0,0,1-.059.108,1.054,1.054,0,0,1-.189.144c-.015.009-.031.018-.045.007s-.005-.029,0-.045a.277.277,0,0,1,.2-.251.086.086,0,0,1,.075.012C596.795,460.817,596.8,460.828,596.8,460.833Z" transform="translate(-585.016 -455.039)" fill="#fefefe"/>
        <path id="Path_292" data-name="Path 292" d="M434.6,395.624a.1.1,0,0,1-.03.114,1.675,1.675,0,0,1-.233.216c-.014.011-.033.037-.052.019s0-.041.013-.06a2.079,2.079,0,0,1,.176-.211c.03-.041.062-.08.094-.12a.046.046,0,0,1,.06-.016.043.043,0,0,1,.028.049C434.647,395.655,434.622,395.606,434.6,395.624Z" transform="translate(-430.164 -392.77)" fill="#fdfdfd"/>
        <path id="Path_293" data-name="Path 293" d="M639.424,537.918c-.052,0-.109,0-.117-.05s.045-.072.085-.092a.246.246,0,0,1,.07-.018c.043-.006.077.006.085.055a.074.074,0,0,1-.052.1A.236.236,0,0,1,639.424,537.918Z" transform="translate(-625.875 -528.506)" fill="#fefefe"/>
        <path id="Path_294" data-name="Path 294" d="M689.439,355.213c-.025-.006-.061-.014-.1-.024a3.158,3.158,0,0,1-.316-.114c-.013-.005-.036-.011-.028-.033s.027-.012.042-.009a2.446,2.446,0,0,1,.42.128c.015.006.034.007.033.029S689.477,355.213,689.439,355.213Z" transform="translate(-673.308 -354.081)" fill="#fdfdfd"/>
        <path id="Path_295" data-name="Path 295" d="M599.6,489.773a.136.136,0,0,1-.009.062c-.024.05-.047.055-.087.017a.2.2,0,0,1-.045-.057c-.014-.03-.032-.059-.006-.091a.072.072,0,0,1,.069-.031.1.1,0,0,1,.076.072A.109.109,0,0,1,599.6,489.773Z" transform="translate(-587.822 -482.605)" fill="#fdfdfd"/>
        <path id="Path_296" data-name="Path 296" d="M548.512,370.3c-.02-.077.047-.138.142-.126a.238.238,0,0,1,.064.02c.039.017.039.043.014.073a.148.148,0,0,1-.139.046c0-.029.042-.032.047-.058C548.579,370.24,548.576,370.241,548.512,370.3Z" transform="translate(-539.202 -368.536)" fill="#fdfdfd"/>
        <path id="Path_297" data-name="Path 297" d="M521.619,361.582a.087.087,0,0,1-.067.067.223.223,0,0,0-.138.082c-.014.016-.026.035-.05.016s-.016-.038,0-.058a.626.626,0,0,1,.219-.142C521.615,361.533,521.62,361.552,521.619,361.582Z" transform="translate(-513.278 -360.298)" fill="#fdfdfd"/>
        <path id="Path_298" data-name="Path 298" d="M648.4,775.4a.455.455,0,0,1,0-.286c0-.011.009-.025.024-.022s.015.014.015.024A.575.575,0,0,1,648.4,775.4Z" transform="translate(-634.53 -755.058)" fill="#fdfdfd"/>
        <path id="Path_299" data-name="Path 299" d="M683.574,767.354a.54.54,0,0,1,0,.067c-.005.039-.024.081-.062.082-.074,0-.067.051-.07.095s0,.083-.054.1c-.008,0-.015.014-.019.022a4.833,4.833,0,0,1-.437.721,2.44,2.44,0,0,1-.146.2.746.746,0,0,1-.473.234c-.214.04-.16,0-.185-.158a.326.326,0,0,1,.122-.316.224.224,0,0,0,.088-.231.449.449,0,0,1,.036-.282.2.2,0,0,1,.153-.123,1,1,0,0,0,.371-.183,2.349,2.349,0,0,0,.331-.336c.054-.059.109-.116.167-.171s.085-.038.119.02A.516.516,0,0,1,683.574,767.354Z" transform="translate(-666.745 -747.369)" fill="#bbdff5"/>
        <path id="Path_300" data-name="Path 300" d="M519.677,439.061h-.109a.174.174,0,0,1-.085-.014c-.027-.015-.172-.165-.164-.186s.168-.045.1-.123c-.016-.018-.047-.031-.041-.055s.036-.023.058-.019.053,0,.057-.021a.056.056,0,0,0,0-.018c-.023-.122.186-.213.212-.078.015.08.019.078.1.09a.7.7,0,0,1,.266.068c.1.064.07.172,0,.248A.473.473,0,0,1,519.677,439.061Z" transform="translate(-511.339 -433.739)" fill="#bbdff5"/>
        <path id="Path_301" data-name="Path 301" d="M590.669,407.712a.185.185,0,0,1,.019-.11c.085-.156.4-.126.531-.063.092.044.022.126-.067.132-.058,0-.082.014-.056.071s.074.092.076.143-.073.119-.119.048c-.019-.031-.012-.071-.024-.106a.024.024,0,0,0-.008-.013c-.011-.007-.025.005-.033.017-.018.027-.147.257-.188.216a.08.08,0,0,1-.02-.033A.9.9,0,0,1,590.669,407.712Z" transform="translate(-579.447 -404.156)" fill="#bbdff5"/>
        <path id="Path_302" data-name="Path 302" d="M551.458,357.534c-.042.028-.282.1-.306.024-.059-.2.281-.244.408-.258a.981.981,0,0,1,.278-.014c.154.031.021.144-.072.158-.055.008-.115-.008-.171,0-.025,0-.187.051-.2.045A.425.425,0,0,1,551.458,357.534Z" transform="translate(-541.72 -356.229)" fill="#bbdff5"/>
        <path id="Path_303" data-name="Path 303" d="M617.3,400.43c-.01.021.026.045.038.057a.122.122,0,0,0-.235.06.314.314,0,0,1-.223.012c-.014,0-.028-.013-.031-.027a.038.038,0,0,1,0-.019.139.139,0,0,1,.086-.086c.042-.014.073.023.08.063,0,.016.005.04.027.038.037,0,.049-.058.051-.088a.755.755,0,0,0,0-.081c0-.017-.007-.059.008-.072a.031.031,0,0,1,.028,0c.065.017.137.058.2,0,.007-.006.014-.013.023-.013a.045.045,0,0,1,.031.05c-.006.015-.023.014-.031.026s0,.037-.009.053-.028.01-.037.021Z" transform="translate(-604.439 -397.272)" fill="#bbdff5"/>
        <path id="Path_304" data-name="Path 304" d="M556.759,366.717h-.024c-.039,0-.1,0-.1-.041s.057-.026.091-.033a1.077,1.077,0,0,1,.213-.011c.013,0,.033-.006.037.011s-.017.025-.031.03A.737.737,0,0,1,556.759,366.717Z" transform="translate(-546.964 -365.155)" fill="#bbdff5"/>
        <path id="Path_305" data-name="Path 305" d="M639.3,440.206a.074.074,0,0,1,.073.076.076.076,0,0,1-.072.082.1.1,0,0,1-.085-.082A.078.078,0,0,1,639.3,440.206Z" transform="translate(-625.787 -435.387)" fill="#bbdff5"/>
        <path id="Path_306" data-name="Path 306" d="M549.27,555.264c0-.076.012-.154.094-.183s0,.251,0,.279c0,.117.038.259-.043.36-.026.031-.119.082-.153.036a.055.055,0,0,1-.007-.036q0-.145.013-.29a.054.054,0,0,1,.012-.037c.014-.013.037-.008.055-.015C549.289,555.36,549.271,555.3,549.27,555.264Z" transform="translate(-539.829 -545.041)" fill="#bbdff5"/>
        <path id="Path_307" data-name="Path 307" d="M633.332,586.718c-.025,0-.056,0-.071-.028s0-.06.025-.082.056-.072.113-.052c.012,0,.032-.006.046-.013.033-.017.064-.037.1-.053.015-.008.034-.026.05-.01s0,.044-.014.053c-.041.025-.026.073-.05.1a.258.258,0,0,1-.179.082Z" transform="translate(-620.099 -575.008)" fill="#bbdff5"/>
        <path id="Path_308" data-name="Path 308" d="M601,589.109a1.94,1.94,0,0,1,.314.061c.015.005.035.008.033.029s-.022.021-.038.022a1.165,1.165,0,0,1-.327-.016c-.032-.005-.085-.008-.08-.058S600.962,589.114,601,589.109Z" transform="translate(-589.22 -577.524)" fill="#bbdff5"/>
        <path id="Path_309" data-name="Path 309" d="M529.881,561.267a.1.1,0,0,1-.094.1c-.053,0-.067-.036-.07-.078a.109.109,0,0,1,.1-.1C529.864,561.195,529.882,561.224,529.881,561.267Z" transform="translate(-521.265 -550.877)" fill="#bbdff5"/>
        <path id="Path_310" data-name="Path 310" d="M587.843,490.282a.183.183,0,0,1,.086-.2c.011-.007.024-.019.038,0s0,.023,0,.034A.422.422,0,0,1,587.843,490.282Z" transform="translate(-576.747 -482.984)" fill="#bbdff5"/>
      </g>
      <g id="Group_155" data-name="Group 155">
        <path id="Path_311" data-name="Path 311" d="M364.921,344.322a11.655,11.655,0,0,1-7.587,10.941,11.679,11.679,0,1,1,7.451-12.717,12.029,12.029,0,0,1,.136,1.792c0,.067.22.026.219-.059a11.765,11.765,0,0,0-7.847-11.085,11.907,11.907,0,0,0-13.085,3.588,11.764,11.764,0,0,0,4.265,18.307,11.909,11.909,0,0,0,13.357-2.619,11.816,11.816,0,0,0,3.165-6.322,12.025,12.025,0,0,0,.146-1.853C365.141,344.2,364.921,344.251,364.921,344.322Z" transform="translate(-341.469 -332.522)" fill="#6a79a8"/>
      </g>
      <g id="Group_159" data-name="Group 159" transform="translate(5.002 0.486)">
        <path id="Path_312" data-name="Path 312" d="M458.974,346a2.494,2.494,0,1,0-4.8,1.358c.375,1.326,3.461,3.071,3.461,3.071S459.349,347.325,458.974,346Z" transform="translate(-453.964 -344.139)" fill="#ea8571"/>
        <path id="Path_313" data-name="Path 313" d="M467.207,346.948a2.31,2.31,0,1,0-4.436,1.255c.369,1.3,3.119,3.1,3.119,3.1S467.576,348.252,467.207,346.948Z" transform="translate(-462.166 -345.044)" fill="#ff9c81"/>
        <g id="Group_156" data-name="Group 156">
          <path id="Path_314" data-name="Path 314" d="M456.661,345.038a2.55,2.55,0,0,0-2.121-1.811,2.737,2.737,0,0,0-2.478,1.022,2.4,2.4,0,0,0-.24,2.6,6.411,6.411,0,0,0,1.779,1.7,16.109,16.109,0,0,0,1.507.978.215.215,0,0,0,.212-.057,16.011,16.011,0,0,0,.82-1.742,9.311,9.311,0,0,0,.474-1.461,2.646,2.646,0,0,0,.047-1.237c-.013-.048-.232.01-.219.059a2.664,2.664,0,0,1-.055,1.266,9.617,9.617,0,0,1-.482,1.46,16.05,16.05,0,0,1-.8,1.694l.212-.057a11.922,11.922,0,0,1-2.848-2.121,2.643,2.643,0,0,1-.574-.84,2.363,2.363,0,0,1-.069-1.318,2.39,2.39,0,0,1,2.159-1.882,2.488,2.488,0,0,1,2.458,1.8C456.456,345.146,456.675,345.085,456.661,345.038Z" transform="translate(-451.54 -343.207)" fill="#6a79a8"/>
        </g>
        <circle id="Ellipse_262" data-name="Ellipse 262" cx="1.332" cy="1.332" r="1.332" transform="matrix(0.473, -0.881, 0.881, 0.473, 0.624, 3.153)" fill="#ea8571"/>
        <g id="Group_158" data-name="Group 158" transform="translate(1.024 0.953)">
          <circle id="Ellipse_263" data-name="Ellipse 263" cx="1.247" cy="1.247" r="1.247" transform="matrix(0.326, -0.945, 0.945, 0.326, 0, 2.358)" fill="#f9f9f9"/>
          <g id="Group_157" data-name="Group 157" transform="translate(0.232 0.307)">
            <path id="Path_315" data-name="Path 315" d="M481.859,371.851a1.389,1.389,0,0,0-2.507-.219,1.272,1.272,0,0,0,.288,1.578,1.4,1.4,0,0,0,1.461.17,1.3,1.3,0,0,0,.758-1.528c-.011-.045-.231.012-.219.059a1.218,1.218,0,0,1-.727,1.469,1.2,1.2,0,0,1-1.454-.849,1.215,1.215,0,0,1,.727-1.469,1.2,1.2,0,0,1,1.454.849C481.654,371.956,481.872,371.894,481.859,371.851Z" transform="translate(-479.195 -370.94)" fill="#6a79a8"/>
          </g>
        </g>
      </g>
      <g id="Group_163" data-name="Group 163" transform="translate(12.334 6.056)">
        <path id="Path_316" data-name="Path 316" d="M617.3,468.073a1.143,1.143,0,0,0-2.267-.3c-.083.626.9,1.921.9,1.921S617.219,468.7,617.3,468.073Z" transform="translate(-614.933 -466.734)" fill="#ea8571"/>
        <path id="Path_317" data-name="Path 317" d="M621.009,469.249a1.059,1.059,0,1,0-2.095-.278c-.082.616.748,1.872.748,1.872S620.927,469.865,621.009,469.249Z" transform="translate(-618.635 -467.887)" fill="#ff9c81"/>
        <g id="Group_160" data-name="Group 160">
          <path id="Path_318" data-name="Path 318" d="M615.381,467.1a1.174,1.174,0,0,0-1-1.3,1.241,1.241,0,0,0-1.194,2.02,6.99,6.99,0,0,0,.608.956c.038.051.172-.009.209-.038a7.377,7.377,0,0,0,.672-.594,2.167,2.167,0,0,0,.706-1.038c.008-.05-.208-.014-.216.039a2.171,2.171,0,0,1-.725,1.052,7.418,7.418,0,0,1-.635.557l.209-.038a7.435,7.435,0,0,1-.441-.66,2.6,2.6,0,0,1-.462-1.151,1.009,1.009,0,0,1,1.211-1,1.143,1.143,0,0,1,.841,1.248C615.158,467.191,615.374,467.171,615.381,467.1Z" transform="translate(-612.903 -465.796)" fill="#6a79a8"/>
        </g>
        <circle id="Ellipse_264" data-name="Ellipse 264" cx="0.611" cy="0.611" r="0.611" transform="translate(0.358 1.539) rotate(-69.243)" fill="#ea8571"/>
        <g id="Group_162" data-name="Group 162" transform="translate(0.522 0.475)">
          <circle id="Ellipse_265" data-name="Ellipse 265" cx="0.572" cy="0.572" r="0.572" transform="translate(0 0.331) rotate(-16.825)" fill="#f9f9f9"/>
          <g id="Group_161" data-name="Group 161" transform="translate(0.03 0.109)">
            <path id="Path_319" data-name="Path 319" d="M626.415,479.3c.066-.839-1.246-.859-1.352-.1-.117.843,1.21.854,1.35.106.008-.045-.206-.012-.216.04a.436.436,0,0,1-.658.353.557.557,0,0,1-.255-.548.431.431,0,0,1,.654-.349.575.575,0,0,1,.258.553C626.193,479.388,626.41,479.366,626.415,479.3Z" transform="translate(-625.055 -478.654)" fill="#6a79a8"/>
          </g>
        </g>
      </g>
      <g id="Group_167" data-name="Group 167" transform="translate(16.314 10.455)">
        <path id="Path_320" data-name="Path 320" d="M704.987,565.333a1.143,1.143,0,1,0-1.9-1.27c-.351.525-.042,2.119-.042,2.119S704.637,565.858,704.987,565.333Z" transform="translate(-702.81 -563.512)" fill="#ea8571"/>
        <path id="Path_321" data-name="Path 321" d="M707.046,567.683a1.058,1.058,0,1,0-1.755-1.174,4.33,4.33,0,0,0-.155,2.009S706.7,568.2,707.046,567.683Z" transform="translate(-704.875 -565.839)" fill="#ff9c81"/>
        <g id="Group_164" data-name="Group 164">
          <path id="Path_322" data-name="Path 322" d="M702.785,564.4a1.171,1.171,0,0,0-.32-1.6,1.344,1.344,0,0,0-1.5.064,1.418,1.418,0,0,0-.465,1.312,6.993,6.993,0,0,0,.123,1.125c0,.026.076.014.089.011a7.805,7.805,0,0,0,.945-.259,2.238,2.238,0,0,0,1.125-.649c.014-.02-.179-.014-.216.039a2.092,2.092,0,0,1-1.079.593,6.932,6.932,0,0,1-.734.2l.089.011a7.443,7.443,0,0,1-.1-.761,2.543,2.543,0,0,1,.1-1.268.978.978,0,0,1,1.541-.243,1.143,1.143,0,0,1,.187,1.472C702.554,564.463,702.751,564.455,702.785,564.4Z" transform="translate(-700.5 -562.598)" fill="#6a79a8"/>
        </g>
        <circle id="Ellipse_266" data-name="Ellipse 266" cx="0.61" cy="0.61" r="0.61" transform="translate(0.443 1.64) rotate(-80.144)" fill="#ea8571"/>
        <g id="Group_166" data-name="Group 166" transform="translate(0.51 0.469)">
          <circle id="Ellipse_267" data-name="Ellipse 267" cx="0.571" cy="0.571" r="0.571" transform="matrix(0.302, -0.953, 0.953, 0.302, 0, 1.089)" fill="#f9f9f9"/>
          <g id="Group_165" data-name="Group 165" transform="translate(0.039 0.102)">
            <path id="Path_323" data-name="Path 323" d="M713.841,576.073a.591.591,0,0,0-.312-.881.793.793,0,0,0-.853.286.59.59,0,0,0,.313.881.8.8,0,0,0,.853-.286.282.282,0,0,0-.216.04.441.441,0,0,1-.748-.074.565.565,0,0,1,.014-.6.44.44,0,0,1,.748.074.573.573,0,0,1-.014.6C713.612,576.135,713.809,576.127,713.841,576.073Z" transform="translate(-712.58 -575.16)" fill="#6a79a8"/>
          </g>
        </g>
      </g>
      <g id="Group_171" data-name="Group 171" transform="translate(2.945 9.818)">
        <path id="Path_324" data-name="Path 324" d="M410.883,549.667a1.143,1.143,0,1,0-1.784,1.428c.394.493,2.008.68,2.008.68S411.277,550.16,410.883,549.667Z" transform="translate(-408.731 -549.208)" fill="#ea8571"/>
        <path id="Path_325" data-name="Path 325" d="M414.009,549.752a1.058,1.058,0,1,0-1.649,1.319c.388.485,1.868.755,1.868.755S414.4,550.237,414.009,549.752Z" transform="translate(-411.837 -549.281)" fill="#ff9c81"/>
        <g id="Group_168" data-name="Group 168">
          <path id="Path_326" data-name="Path 326" d="M408.528,549.011c-.837-.988-2.669-.093-2.171,1.193a1.507,1.507,0,0,0,1.148.789,7.122,7.122,0,0,0,1.052.206c.046.005.193-.008.2-.072a7.4,7.4,0,0,0,.036-.869,2.166,2.166,0,0,0-.259-1.239c-.04-.053-.236.037-.219.059a2.165,2.165,0,0,1,.259,1.239,7.39,7.39,0,0,1-.036.869l.2-.072c-.239-.028-.477-.071-.713-.123a2.875,2.875,0,0,1-1.164-.44,1.108,1.108,0,0,1-.2-1.393,1,1,0,0,1,1.662-.073C408.355,549.126,408.561,549.05,408.528,549.011Z" transform="translate(-406.272 -548.59)" fill="#6a79a8"/>
        </g>
        <circle id="Ellipse_268" data-name="Ellipse 268" cx="0.61" cy="0.61" r="0.61" transform="translate(0.334 1.173) rotate(-40.927)" fill="#ea8571"/>
        <g id="Group_170" data-name="Group 170" transform="translate(0.568 0.543)">
          <circle id="Ellipse_269" data-name="Ellipse 269" cx="0.571" cy="0.571" r="0.571" transform="translate(0.062 1.136) rotate(-83.845)" fill="#f9f9f9"/>
          <g id="Group_169" data-name="Group 169" transform="translate(0 0.022)">
            <path id="Path_327" data-name="Path 327" d="M420.018,561.232c-.5-.575-1.634.121-1.1.784.48.6,1.608-.095,1.109-.776-.037-.051-.234.039-.219.059a.573.573,0,0,1,.064.609.4.4,0,0,1-.441.233.541.541,0,0,1-.3-.192.56.56,0,0,1-.05-.625.429.429,0,0,1,.731-.018C419.845,561.345,420.049,561.267,420.018,561.232Z" transform="translate(-418.777 -561.019)" fill="#6a79a8"/>
          </g>
        </g>
      </g>
      <g id="Group_175" data-name="Group 175" transform="translate(21.407 12.411)">
        <path id="Path_328" data-name="Path 328" d="M817.04,608.836a1.143,1.143,0,0,0-.657-2.189c-.6.181-1.381,1.608-1.381,1.608S816.435,609.018,817.04,608.836Z" transform="translate(-814.891 -606.556)" fill="#ea8571"/>
        <path id="Path_329" data-name="Path 329" d="M817.3,612.594a1.058,1.058,0,1,0-.607-2.022c-.595.179-1.4,1.451-1.4,1.451S816.7,612.773,817.3,612.594Z" transform="translate(-815.168 -610.299)" fill="#ff9c81"/>
        <g id="Group_172" data-name="Group 172">
          <path id="Path_330" data-name="Path 330" d="M814.765,607.95a1.214,1.214,0,0,0,.868-1.352,1.193,1.193,0,0,0-1.327-.945,1.686,1.686,0,0,0-1.1.764,6.987,6.987,0,0,0-.621.947.013.013,0,0,0,0,.018,7.378,7.378,0,0,0,.879.391,2.166,2.166,0,0,0,1.272.186c.127-.034.111-.1-.018-.067a1.4,1.4,0,0,1-.7-.079,5.736,5.736,0,0,1-.711-.26c-.152-.066-.3-.147-.45-.211-.086-.036-.063-.018-.014-.1a6.363,6.363,0,0,1,.732-1.053,1.186,1.186,0,0,1,.6-.44,1.075,1.075,0,0,1,.929.314,1.122,1.122,0,0,1-.414,1.84C814.541,607.95,814.681,607.978,814.765,607.95Z" transform="translate(-812.578 -605.644)" fill="#6a79a8"/>
        </g>
        <circle id="Ellipse_270" data-name="Ellipse 270" cx="0.61" cy="0.61" r="0.61" transform="matrix(0.998, -0.056, 0.056, 0.998, 1.143, 0.528)" fill="#ea8571"/>
        <g id="Group_174" data-name="Group 174" transform="translate(1.138 0.576)">
          <path id="Path_331" data-name="Path 331" d="M840.791,620.294a.571.571,0,1,0-.711-.383A.571.571,0,0,0,840.791,620.294Z" transform="translate(-839.945 -619.137)" fill="#f9f9f9"/>
          <g id="Group_173" data-name="Group 173">
            <path id="Path_332" data-name="Path 332" d="M838.51,619.5a.626.626,0,0,0,.436-.818.652.652,0,0,0-.824-.325.631.631,0,0,0-.47.768.645.645,0,0,0,.83.385c.128-.031.112-.094-.017-.063a.536.536,0,0,1-.322-1.005c.581-.229.886.8.293,1.014C838.288,619.509,838.427,619.53,838.51,619.5Z" transform="translate(-837.626 -618.321)" fill="#6a79a8"/>
          </g>
        </g>
      </g>
      <ellipse id="Ellipse_271" data-name="Ellipse 271" cx="10.633" cy="2.59" rx="10.633" ry="2.59" transform="translate(0.888 25.423)" fill="#e5e5e5"/>
    </g>
  </g>
</svg>
