<svg xmlns="http://www.w3.org/2000/svg" width="41.611" height="36.577" viewBox="0 0 41.611 36.577">
  <g id="Group_125" data-name="Group 125" transform="translate(-88.437 -147.82)">
    <g id="_ÎÓÈ_1_1_" data-name="—ÎÓÈ_1_1_" transform="translate(88.437 147.82)">
      <path id="Path_155" data-name="Path 155" d="M99.168,183.777c-.881-.186-11.47-1.863-10.69-14.232s1.758-16.088,5.874-17.449,14.123-7.8,21.976-1.677,16.326,11.615,12.963,21.391-3.913,13.038-12.686,12.539S103.359,184.662,99.168,183.777Z" transform="translate(-88.437 -147.82)" fill="#f9f9f9"/>
      <g id="Group_77" data-name="Group 77" transform="translate(3.05 8.605)">
        <path id="Path_156" data-name="Path 156" d="M223.4,361.223h11.38a2.872,2.872,0,0,0-1.454-2.693,2.949,2.949,0,0,0-3.094.266,7.48,7.48,0,0,0-2.56-1.656,2.551,2.551,0,0,0-2.789.712,2.333,2.333,0,0,0-.27,2.03q-1.33-.01-2.658.063c-.5.028-1.193.175-1.218.68C220.7,361.382,223.4,361.223,223.4,361.223Z" transform="translate(-218.348 -357.006)" fill="#fff"/>
        <path id="Path_157" data-name="Path 157" d="M639.345,387.14a.976.976,0,0,0-.681-.079c-.14.032-.274.082-.411.124-.26.08-.283.148-.389-.078-.116-.247.026-.5-.2-.759a.867.867,0,0,0-.908-.255,3.205,3.205,0,0,0-.7-1.1,2.358,2.358,0,0,0-2.489-.535,2.646,2.646,0,0,0-.981.727,3.2,3.2,0,0,0-.367.527,4.948,4.948,0,0,1-.251.545c-.25-.094-.481-.219-.742-.291a1.709,1.709,0,0,0-1.515.164,1.207,1.207,0,0,0-.481,1.223c.067.259.19.45.452.454.371.005.743,0,1.114,0h9.195A1.969,1.969,0,0,0,639.345,387.14Z" transform="translate(-610.007 -383.175)" fill="#fff"/>
        <path id="Path_158" data-name="Path 158" d="M835.477,483.446a2.016,2.016,0,0,0-.58-1.788,2.134,2.134,0,0,0-2.252-.484,2.394,2.394,0,0,0-.888.658,2.9,2.9,0,0,0-.333.477,4.465,4.465,0,0,1-.227.493c-.227-.085-.436-.2-.672-.263a1.546,1.546,0,0,0-1.371.149,1.089,1.089,0,0,0-.431,1.124c.042.148.15.39.316.4.048,0,.1,0,.147,0h5.829c.1,0,.111-.018.169-.1A1.647,1.647,0,0,0,835.477,483.446Z" transform="translate(-801.291 -475.93)" fill="#fff"/>
        <path id="Path_159" data-name="Path 159" d="M162.621,506.031a2.016,2.016,0,0,1,.58-1.788,2.134,2.134,0,0,1,2.252-.484,2.394,2.394,0,0,1,.888.658,2.9,2.9,0,0,1,.333.477,4.487,4.487,0,0,0,.227.493c.227-.085.436-.2.672-.263a1.547,1.547,0,0,1,1.371.149,1.089,1.089,0,0,1,.431,1.124c-.042.148-.15.39-.316.4-.048,0-.1,0-.147,0h-5.829c-.1,0-.111-.018-.169-.1A1.646,1.646,0,0,1,162.621,506.031Z" transform="translate(-162.589 -497.586)" fill="#fff"/>
      </g>
    </g>
    <g id="_ÎÓÈ_2_1_" data-name="—ÎÓÈ_2_1_" transform="translate(98.434 149.467)">
      <ellipse id="Ellipse_249" data-name="Ellipse 249" cx="8.141" cy="1.983" rx="8.141" ry="1.983" transform="translate(2.574 30.026)" fill="#e5e5e5"/>
      <g id="Group_78" data-name="Group 78" transform="translate(0.104 11.777)">
        <path id="Path_160" data-name="Path 160" d="M344.643,495.379a10.6,10.6,0,0,1-7.511-18.118,10.6,10.6,0,1,1,14.977,15A10.459,10.459,0,0,1,344.643,495.379Z" transform="translate(-334.002 -474.16)" fill="#bbdff5"/>
        <path id="Path_161" data-name="Path 161" d="M350.964,490.869c-.037-.14-.18-.257-.271-.383a1.933,1.933,0,0,1-.174-.353,3.238,3.238,0,0,0-.351-.58.912.912,0,0,1-.26-.492.086.086,0,0,1,.061-.09.107.107,0,0,1,.073.02c.16.1.214.3.338.447.071.081.165.14.237.221a1.516,1.516,0,0,1,.189.376.812.812,0,0,0,.218.232c.1.092.156.222.267.312a.837.837,0,0,1,.131.142.366.366,0,0,1,.057.177,1.32,1.32,0,0,0,.174.423.143.143,0,0,0,.178.066.323.323,0,0,0,.158-.076.9.9,0,0,1,.227-.144,3.091,3.091,0,0,0,.781-.61,5.2,5.2,0,0,0,.619-.626,2.354,2.354,0,0,0,.352-.838.286.286,0,0,0,.007-.132c-.025-.1-.134-.143-.232-.158a.643.643,0,0,1-.285-.074.226.226,0,0,1-.086-.243,1.611,1.611,0,0,0,1.164-.312c.209-.143.261.093.456.139.057.014.134.117.2.146a.947.947,0,0,0,.349.084.232.232,0,0,1,.135.03.212.212,0,0,1,.056.084,6.181,6.181,0,0,0,.448.79c.111.172.179.471.375.572.127.065.193-.021.219-.13.01-.04.046-.085.084-.07a.072.072,0,0,1,.037.052c.019.075,0,.165.045.225a.118.118,0,0,0,.116.04c.08-.019.11-.114.11-.186,0-.258-.238-.532-.3-.787a2.542,2.542,0,0,1-.051-.853,4.574,4.574,0,0,1,.5-1.618.045.045,0,0,1,.02-.023.046.046,0,0,1,.041.01.878.878,0,0,1,.308.273,1.734,1.734,0,0,1,.105.285c.007.02.019.042.04.044s.038-.023.046-.045.1-.287.1-.294a4.232,4.232,0,0,1,.264.887,5.628,5.628,0,0,1,.263.812.184.184,0,0,0-.261.161.649.649,0,0,0,.035.132,1.487,1.487,0,0,1,.026.152,3.68,3.68,0,0,0,.12.394,3.13,3.13,0,0,1-.369,1.933,10.914,10.914,0,0,1-2.591,3.911,10.1,10.1,0,0,1-.836.719,10.458,10.458,0,0,1-1.153.778,9.919,9.919,0,0,1-1.1.555c-.265.113-.534.219-.807.311a10.293,10.293,0,0,1-1.12.31c-.276.059-.553.109-.832.146q-.315.042-.632.066c-.148.011-.3.014-.443.024s-.315.009-.472.007q-.4-.005-.8-.041c-.208-.018-.414-.041-.621-.071-.257-.037-.512-.086-.766-.143a10.363,10.363,0,0,1-2.146-.732,10.4,10.4,0,0,1-1.427-.81,10.248,10.248,0,0,1-.934-.711c-.246-.211-.486-.428-.712-.661a9.707,9.707,0,0,1-1.058-1.238,4.1,4.1,0,0,1-.4-.7c-.077-.181-.238-.5-.172-.7a1.691,1.691,0,0,1,.1-.2c.2-.418-.22-.982-.422-1.33a4.9,4.9,0,0,1-.632-1.395,6.761,6.761,0,0,1-.13-.734,1.2,1.2,0,0,0-.025-.275c-.059-.172-.076-.353-.122-.527-.015-.055-.037-.108-.055-.162a.711.711,0,0,1-.018-.209c0-.235-.013-.47.005-.705a1.933,1.933,0,0,0,0-.239,3.342,3.342,0,0,1,.071-.72c.051-.305.115-.608.2-.907.032-.119.061-.24.1-.356a1.5,1.5,0,0,0,.078-.207,5.424,5.424,0,0,1,.324-.906c.087-.214.189-.422.294-.628.144-.284.3-.561.472-.829l.154-.238a.06.06,0,0,1,.072-.033c.118.026.195-.051.273-.118a.91.91,0,0,1,.266-.187.7.7,0,0,0,.119-.08c.025.054.043.115.063.172a.033.033,0,0,0,.007.013c.017.017.145-.174.167-.189a.12.12,0,0,1,.14-.006c.05.041.06.137.125.137a.706.706,0,0,0-.171.134.047.047,0,0,0-.017.038c0,.014.016.022.029.029l.134.073a.312.312,0,0,0,.148.051.16.16,0,0,0,.149-.122.276.276,0,0,1-.12-.034c.073-.1.068-.242.155-.329.149-.148.333-.141.2-.4-.016-.031.116-.01.133,0,.1.084-.019.278-.053.369a.4.4,0,0,0,.116-.133.417.417,0,0,0,.217.241,4.393,4.393,0,0,0-.457.282.534.534,0,0,0-.038.428.1.1,0,0,0,.024.058c.045.043.112-.019.143-.073a3.835,3.835,0,0,1,.268-.43c.2-.261.434-.495.642-.747a8.871,8.871,0,0,1,.746-.777l-.261-.026a1.98,1.98,0,0,1,.4-.332.655.655,0,0,0,.288-.416,4.434,4.434,0,0,0-.684.251,5.429,5.429,0,0,1-.846.265c.572-.278.9-.926,1.49-1.172a.644.644,0,0,1,.334-.059.328.328,0,0,1,.265.192.293.293,0,0,0-.247.261,1.3,1.3,0,0,1,.813-.126.264.264,0,0,0-.221.11c-.065.072-.13.167-.236.175a.14.14,0,0,1-.151-.109,2.481,2.481,0,0,0-.665.775c.029-.053.1.021.116.021a.286.286,0,0,0,.157-.055c.122-.073.239-.154.359-.23a1.287,1.287,0,0,1-.142.176.657.657,0,0,0,.433-.161l.66-.45a3.972,3.972,0,0,0,.558-.43c.049-.048.1-.132.045-.178a.123.123,0,0,0-.071-.025.835.835,0,0,0-.45.077c-.1.048-.216.117-.313.063a1.258,1.258,0,0,1,1.052-.179l-.1.181c-.013.024-.026.054-.011.076a.074.074,0,0,0,.056.023l.5.051c.1.011.288.041.3.175a.669.669,0,0,0-.585-.015,1.2,1.2,0,0,0-.23.281,2.313,2.313,0,0,1-.834.495c-.082.042-.174.124-.138.209a.686.686,0,0,0-.51.132,2.493,2.493,0,0,0-.582.5.705.705,0,0,0-.215.6,2.964,2.964,0,0,1,1.657-.368,1.939,1.939,0,0,0,.534.006,1.321,1.321,0,0,0,.462-.225,6.873,6.873,0,0,0,.634-.486,3.343,3.343,0,0,1,.37-.3c.147-.094.326-.059.271-.277a.555.555,0,0,1,0-.169c.011-.182-.292-.381-.459-.369a.217.217,0,0,0,.187-.2.307.307,0,0,0-.124-.258.541.541,0,0,0-.276-.1c-.1-.012-.311-.008-.322-.155a.263.263,0,0,0,0-.066c-.021-.062-.117-.046-.167,0s-.1.1-.165.094-.089-.064-.135-.1a.353.353,0,0,0-.331.023.343.343,0,0,1-.331.018,2.218,2.218,0,0,0,.549-.088,1.357,1.357,0,0,0,.374-.2c.179-.111.433-.074.628-.17.016-.008.034-.02.033-.038s-.014-.023-.026-.03c-.186-.109-.26,0-.426.018a.454.454,0,0,1-.242-.04c-.04-.02.2-.138.2-.14a2.432,2.432,0,0,1,.333-.041c.164-.023.314-.1.476-.128a3.362,3.362,0,0,1,.617-.052,6.983,6.983,0,0,0,1.085-.06.122.122,0,0,0,.064-.024.249.249,0,0,0,.037-.062.208.208,0,0,1,.093-.075.643.643,0,0,1,.412-.049c-.058.007-.078.089-.048.139a.267.267,0,0,0,.142.1c.248.083.491.191.734.286.164.064.456.112.509.314.034.129.441.275.185.429a.165.165,0,0,1-.173,0c-.05-.033-.077-.091-.121-.132a.1.1,0,0,0-.109-.028.092.092,0,0,0-.04.081.216.216,0,0,0,.121.184.678.678,0,0,0,.418,0,.352.352,0,0,1,.395.224c0,.006-.2.064-.216.071-.048.022-.083.073-.027.114.022.016.05.023.074.039a.133.133,0,0,1,0,.213.225.225,0,0,1-.193,0,.527.527,0,0,0-.37,0,4.182,4.182,0,0,1-.818.122.209.209,0,0,0,.189.156.65.65,0,0,0,.258-.042.547.547,0,0,1,.259-.032c.038.007.082.048.055.077-.011.012-.028.013-.041.022-.037.026-.011.084.016.121a1.184,1.184,0,0,1,.222.667.057.057,0,0,1-.009.038.053.053,0,0,1-.03.015.518.518,0,0,0-.2.049.211.211,0,0,0-.051.227c.037.133.108.434.283.447-.133-.01-.266.019-.4.014-.3-.011-.4-.222-.381-.495,0-.068.1-.491-.075-.4a.491.491,0,0,0-.183.275.952.952,0,0,0,.037.469.344.344,0,0,0,.166.227c.131.062.291-.024.416.042a.086.086,0,0,1,.04.126c-.031.039-.1.031-.144.048a.724.724,0,0,0-.194.154c-.115.1-.245.071-.385.068a.072.072,0,0,0-.047.009c-.062.048.091.306.1.3a.106.106,0,0,1-.094-.013c-.471-.233-.983-.711-1.54-.437l-.4.2c-.085.042-.282.15-.2.264a1.357,1.357,0,0,1-.418.447,1.386,1.386,0,0,0-.45.359.724.724,0,0,0-.095.323.443.443,0,0,0,.02.209.187.187,0,0,0,.159.122.355.355,0,0,0,.154-.054.18.18,0,0,1,.158-.017c.049.025.06.111.008.13a.35.35,0,0,0-.385.282c-.017.114.008.265-.1.316-.061.03-.135,0-.2.01-.205.022-.293.34-.5.334.108,0-.07-.687-.089-.759a.3.3,0,0,1-.006-.208c.021-.042.061-.072.084-.112s.021-.1-.023-.121c-.025-.009-.066-.012-.061-.038a.037.037,0,0,1,.011-.017l.1-.105c.03-.03.06-.081.029-.11a.063.063,0,0,0-.074,0,.7.7,0,0,1-.065.046c-.054.025-.125,0-.173.035-.013.009-.029.023-.042.015s-.009-.022-.014-.033c-.013-.028-.056-.017-.082,0a.625.625,0,0,0-.162.148c-.016.02-.03.05-.013.069s.052.014.061.037a.131.131,0,0,0-.077.053.058.058,0,0,1,.042.072.1.1,0,0,1-.065.063.441.441,0,0,1-.092.018,1.188,1.188,0,0,0-.264.083.191.191,0,0,0-.114.084c-.018.041-.006.091-.024.132s-.086.072-.122.116a.12.12,0,0,0,.014.166.187.187,0,0,0,.114.026,1.109,1.109,0,0,0,.2-.019.3.3,0,0,0,.219-.126c.021-.04.025-.087.042-.128s.058-.08.1-.071c-.016.025.009.06.038.061a.074.074,0,0,0,.066-.048.085.085,0,0,1-.037.118c-.038.016-.09,0-.116.036s-.005.087-.03.121-.069.03-.1.051a.078.078,0,0,0-.023.1c.01.02.03.035.031.058s-.031.052-.06.065a1.6,1.6,0,0,0-.2.094.05.05,0,0,0-.023.024c-.016.048.17.037.2.039l.268.013a1.094,1.094,0,0,1,.4.071.553.553,0,0,1-.166.087.173.173,0,0,1-.14-.022.171.171,0,0,0-.214.018.037.037,0,0,0,0,.049c-.083-.008-.185-.045-.255.019a.124.124,0,0,0-.027.143c.022.045.07.072.092.117,0,.009.008.019.012.028a.339.339,0,0,0,.034.046.422.422,0,0,1,.051.322c-.015.09-.054.25-.158.276a.2.2,0,0,1-.108-.013,2.865,2.865,0,0,1-.456-.193c-.095-.05-.286-.056-.346.055a.27.27,0,0,0-.021.114.71.71,0,0,1-.1.332.888.888,0,0,0-.154.292c-.016.088,0,.189-.053.259-.013.016-.03.035-.024.054a.048.048,0,0,0,.021.023.772.772,0,0,0,.162.063.2.2,0,0,1,.13.107.193.193,0,0,1-.005.124c-.065.2-.27.291-.436.4-.207.132-.285.342-.47.5a2.664,2.664,0,0,1-.509.277,2,2,0,0,0-.885,1.528,1.96,1.96,0,0,1-.147.448c-.177.513.34,1.2.617,1.594a2.016,2.016,0,0,0,.5.533,2.735,2.735,0,0,0,.778.218,1.888,1.888,0,0,0,.785.087,1.721,1.721,0,0,1,.336-.017.423.423,0,0,1,.305.16c.071.1.1.219.205.284a.813.813,0,0,0,.438.082c-.12,0,.079.127.085.131.1.062.134.03.138.155a.678.678,0,0,1-.163.368.22.22,0,0,0-.043.07c-.021.07.039.136.092.186a3.258,3.258,0,0,1,.8,1.293.3.3,0,0,1,.018.2.44.44,0,0,1-.113.137c-.3.312-.083.649.112.948a5.424,5.424,0,0,0,.794.958,1.138,1.138,0,0,0,1.093.316,3.372,3.372,0,0,0,1.031-.275,2.175,2.175,0,0,0,.476-.366c.142-.13.34-.234.465-.374a.244.244,0,0,0,.057-.249c-.051-.12-.025-.16.09-.229.261-.156.73-.3.875-.592a.66.66,0,0,0,.016-.525,2.275,2.275,0,0,1-.142-.44.881.881,0,0,1,.126-.537,7.471,7.471,0,0,1,.983-1.066,4.173,4.173,0,0,0,.739-1.251.88.88,0,0,0,.063-.61.066.066,0,0,0-.03-.043c-.024-.011-.05.01-.07.027a1.677,1.677,0,0,1-.432.252l-.387.177a.5.5,0,0,1-.145.049c-.15.018-.221-.135-.294-.237a2.886,2.886,0,0,0-.388-.415.321.321,0,0,0-.13-.087.11.11,0,0,0-.132.057A.259.259,0,0,0,350.964,490.869Z" transform="translate(-337.565 -477.109)" fill="#fff"/>
        <path id="Path_162" data-name="Path 162" d="M495.181,684.653c0,.024-.018.039-.015.07a.071.071,0,0,0,.042.057.43.43,0,0,1,.044.015c.036.02.036.071.056.108.037.067.137.072.185.131.011.014.024.033.042.03s.024-.019.028-.034c.017-.063-.006-.133.035-.19a.086.086,0,0,1,.089-.037c.036.01.056.049.077.08a.352.352,0,0,0,.139.122.066.066,0,0,0,.034.009c.03,0,.045-.039.047-.069a.346.346,0,0,0-.11-.251,2.281,2.281,0,0,0-.191-.162c-.049-.041-.095-.117-.146-.148.033.02.076,0,.11-.018a1.458,1.458,0,0,1,.233-.127c0,.033-.033.045-.049.074a.054.054,0,0,0,.043.079c.058,0,.091-.046.087.043,0,.036-.011.071-.011.107a.266.266,0,0,0,.1.179.133.133,0,0,0-.046.023.036.036,0,0,0,0,.051c.016.014.041,0,.062.006.037,0,.056.046.071.081s.09.222.149.205a.048.048,0,0,0,.027-.024c.013-.022.018-.047.031-.069a.059.059,0,0,1,.062-.033c.083.024.167.129.253.037.024-.025.036-.062.066-.079a.1.1,0,0,1,.095.005c.029.015.054.038.082.055a.266.266,0,0,0,.235.017c.089-.037.2-.169.288-.044.069.1.031.265.014.373a2.185,2.185,0,0,1-.113.429.189.189,0,0,1-.068.1c-.062.037-.146,0-.212-.005a.676.676,0,0,0-.35.032.572.572,0,0,1-.273.074,1.29,1.29,0,0,1-.319-.052,3.218,3.218,0,0,1-.447-.144.66.66,0,0,0-.414-.116.288.288,0,0,0-.224.215c-.008.042,0,.086-.016.127-.026.1-.108.092-.183.058l-.3-.136a.361.361,0,0,1-.1-.057c-.049-.045-.068-.112-.117-.158a.468.468,0,0,0-.2-.1,1.476,1.476,0,0,1-.34-.151c-.043-.026-.122-.073-.118-.133s.081-.081.119-.126c.052-.06.005-.125-.014-.19a.167.167,0,0,1,0-.11c.013-.04.06-.065.054-.112s-.043-.058-.077-.071a2.026,2.026,0,0,0-.612-.078,2.822,2.822,0,0,0-1.017.015.628.628,0,0,1-.185.045.466.466,0,0,1-.148-.032l-.143-.049c-.053-.019-.118-.056-.108-.111s.056-.062.1-.067a1.729,1.729,0,0,1,.263.026.448.448,0,0,0,.389-.2,1.577,1.577,0,0,1,.173-.3.73.73,0,0,1,.252-.127.341.341,0,0,0,.212-.176.4.4,0,0,1,.044-.122.167.167,0,0,1,.19-.022.556.556,0,0,0,.193.066c.135,0,.247-.153.378-.121a.15.15,0,0,1,.1.19.11.11,0,0,0-.014.053.079.079,0,0,0,.031.044,3.8,3.8,0,0,1,.635.609c.033.048.064.112.033.161-.075.119-.273.071-.385.053-.059-.01-.16-.021-.147.071s.365.366.423.26a.4.4,0,0,0,.02-.085.227.227,0,0,1,.114-.121.408.408,0,0,0,.174-.157.188.188,0,0,0,0-.182.107.107,0,0,1-.021-.042c-.005-.047.048-.026.068-.014a.467.467,0,0,1,.093.079c.075.073.107-.1.073-.148a.5.5,0,0,0-.139-.116.567.567,0,0,1-.131-.133.182.182,0,0,0-.052-.058.3.3,0,0,0-.067-.021.261.261,0,0,1-.144-.139c-.032-.061-.052-.127-.088-.185a1.18,1.18,0,0,1-.08-.124c-.016-.035-.015-.168.044-.168a.065.065,0,0,1,.053.037.41.41,0,0,1,.023.063.572.572,0,0,0,.137.175.648.648,0,0,0,.392.321c.153.086.129.2.145.354a.736.736,0,0,0,.11.276.539.539,0,0,1,.071.125A.069.069,0,0,1,495.181,684.653Z" transform="translate(-485.038 -674.677)" fill="#fefefe"/>
        <path id="Path_163" data-name="Path 163" d="M608.288,680.81c-.106-.022-.219,0-.317-.064a.107.107,0,0,0-.054,0,.085.085,0,0,1-.052-.019.216.216,0,0,0-.16-.009.948.948,0,0,0-.322.115.536.536,0,0,1-.34.07.2.2,0,0,1-.159-.277c0-.009.007-.021.014-.023.061-.025.055-.078.06-.129a.208.208,0,0,1,.059-.128.31.31,0,0,0,.088-.162.286.286,0,0,1,.108-.164c.012-.01.033-.026.044-.008a.126.126,0,0,0,.105.05.035.035,0,0,1,.029.046c-.012.063.017.1.077.112a.077.077,0,0,1,.056.076c0,.031.02.04.048.041a.242.242,0,0,0,.147-.056.335.335,0,0,1,.214-.079.3.3,0,0,1,.112.029c.174.082.344.172.51.27s.111.19-.017.272C608.462,680.814,608.371,680.793,608.288,680.81Z" transform="translate(-595.646 -671.53)" fill="#fefefe"/>
        <path id="Path_164" data-name="Path 164" d="M828.177,636.9a.369.369,0,0,1,.05.139,1.536,1.536,0,0,0,.071.227c.008.016.015.043.041.037s.021-.032.021-.051a1.08,1.08,0,0,0-.1-.479,1.071,1.071,0,0,1-.081-.337,4.767,4.767,0,0,0-.094-.527,1.894,1.894,0,0,0-.082-.3c0-.011-.023-.028,0-.037a.037.037,0,0,1,.049.015.8.8,0,0,1,.033.076,10.539,10.539,0,0,1,.42,1.307,9.67,9.67,0,0,1,.194.964c.034.235.064.471.082.708s.023.472.036.708c.011.215-.009.429-.007.643a1.108,1.108,0,0,1-.023.241c-.01-.058-.019-.116-.03-.174a.8.8,0,0,0-.07-.215.159.159,0,0,0-.066-.08c-.084-.042-.09-.125-.106-.2a.368.368,0,0,0-.061-.157.271.271,0,0,1-.035-.143.847.847,0,0,1-.007-.275.231.231,0,0,1,.025-.061.044.044,0,0,1,.046-.025c.02,0,.019.025.019.041a.058.058,0,0,0,.054.061.061.061,0,0,1,.057.057c.005.03.021.049.052.045s.037-.03.038-.058a5.368,5.368,0,0,0-.021-.619,2.906,2.906,0,0,0-.058-.432.748.748,0,0,0-.257-.423.475.475,0,0,1-.153-.3c-.019-.113-.037-.225-.056-.338A.031.031,0,0,1,828.177,636.9Z" transform="translate(-807.676 -628.929)" fill="#fefefe"/>
        <path id="Path_165" data-name="Path 165" d="M667,676.036c0-.048,0-.105.075-.118.018,0,.026-.024.025-.045a.049.049,0,0,0-.033-.047,1.772,1.772,0,0,1-.433-.3.188.188,0,0,1-.056-.082c-.032-.094-.057-.191-.1-.282-.019-.042.007-.079.04-.107a.084.084,0,0,1,.1-.005.29.29,0,0,1,.1.089.278.278,0,0,0,.114.093.56.56,0,0,1,.121.1.3.3,0,0,0,.162.078c.042,0,.055.037.055.072a.212.212,0,0,0,.07.157.07.07,0,0,1,.022.032,2.438,2.438,0,0,0,.141.348.284.284,0,0,0,.066.121.289.289,0,0,1,.07.166c.008.057-.046.105-.13.115a.268.268,0,0,1-.211-.036.182.182,0,0,0-.083-.029c-.078-.013-.1-.032-.107-.109S667,676.109,667,676.036Z" transform="translate(-652.793 -666.77)" fill="#fefefe"/>
        <path id="Path_166" data-name="Path 166" d="M694.295,500.466a.177.177,0,0,1-.045-.017.14.14,0,0,0-.134-.027.08.08,0,0,1-.064-.009c-.02-.012-.041-.023-.014-.049s.008-.043-.012-.059a.5.5,0,0,0-.139-.068,2.4,2.4,0,0,0-.275-.085.258.258,0,0,0-.06-.007c-.014,0-.032-.007-.04.01s.008.032.021.04a.168.168,0,0,1,.075.147c0,.041.014.065.061.05a.113.113,0,0,1,.044,0c.022,0,.029.021.035.039a.049.049,0,0,1-.017.05c-.016.016-.031,0-.045-.006a.671.671,0,0,1-.122-.095c-.2-.153-.423-.277-.637-.413a3.965,3.965,0,0,1-.425-.319.663.663,0,0,1-.161-.148c-.036-.058-.109-.079-.169-.131a.81.81,0,0,1,.15.043c.149.043.3.079.45.115a1.323,1.323,0,0,1,.308.152,9.94,9.94,0,0,1,.89.543c.112.077.223.157.335.235Z" transform="translate(-677.436 -498.331)" fill="#fefefe"/>
        <path id="Path_167" data-name="Path 167" d="M564.731,623.975c-.018.011-.025.019-.033.02-.112.015-.154.1-.185.19a2.6,2.6,0,0,0-.1.414.206.206,0,0,1-.1.144.122.122,0,0,1-.168.008.181.181,0,0,0-.2.026.306.306,0,0,1-.193.058c-.038,0-.074-.012-.083-.058s-.033-.04-.061-.046-.039-.011-.038-.034.021-.024.036-.028a.112.112,0,0,1,.142.037.057.057,0,0,0,.084.01c.031-.024,0-.048-.014-.069s-.046-.029-.036-.057.042-.031.071-.033a.219.219,0,0,0,.216-.274.155.155,0,0,1,.094-.166.335.335,0,0,0,.177-.135.052.052,0,0,1,.046-.026A1.624,1.624,0,0,1,564.731,623.975Z" transform="translate(-554.126 -617.793)" fill="#fefefe"/>
        <path id="Path_168" data-name="Path 168" d="M686.69,741.711c.012.013.028.028.046.022.038-.011.01-.087.047-.1a1.682,1.682,0,0,0,.142.2.367.367,0,0,0,.193.149,1.259,1.259,0,0,0,.5.082.412.412,0,0,0,.232-.139.1.1,0,0,1,.028-.027c.056-.03,0,.064-.009.075-.068.1-.129.2-.188.3-.047.082-.085.2-.173.091a.189.189,0,0,1-.134.167.089.089,0,0,1-.085,0c-.022-.015-.046-.032-.008-.058a.049.049,0,0,0,.015-.06c-.028-.091-.031-.2-.15-.214a.053.053,0,0,0-.033,0c-.041.023.005.094-.024.131a.038.038,0,0,1-.067-.035.247.247,0,0,0,.011-.027.059.059,0,0,0-.013-.04.447.447,0,0,0-.212-.215.152.152,0,0,1-.036-.015.112.112,0,0,1-.022-.022c-.027-.033-.106-.1-.111-.141S686.692,741.764,686.69,741.711Z" transform="translate(-672.128 -730.63)" fill="#fefefe"/>
        <path id="Path_169" data-name="Path 169" d="M620.772,477.506c.2.025.4.052.595.085.322.055.64.125.955.208.293.077.581.17.866.272l.026.009c.012,0,.03.008.024.024s-.025.01-.038.005-.036-.018-.055-.026a1.051,1.051,0,0,0-.228-.063,1.476,1.476,0,0,1-.312-.112,3.07,3.07,0,0,0-.512-.137c-.161-.038-.324-.069-.484-.114-.018,0-.036-.01-.044.008-.019.045-.057.038-.094.039a.9.9,0,0,1-.408-.083.562.562,0,0,0-.214-.052C620.811,477.568,620.772,477.562,620.772,477.506Z" transform="translate(-608.976 -477.368)" fill="#fdfdfd"/>
        <path id="Path_170" data-name="Path 170" d="M578.538,609.122a.127.127,0,0,1-.13-.182.6.6,0,0,1,.233-.274c.02-.016.033-.01.036.017a1.186,1.186,0,0,1,.015.247c0,.016,0,.033-.005.049C578.684,609.079,578.638,609.122,578.538,609.122Z" transform="translate(-568.344 -603.125)" fill="#fefefe"/>
        <path id="Path_171" data-name="Path 171" d="M629.428,877.845c.07,0,.1.037.076.095a.2.2,0,0,1-.143.14.073.073,0,0,0-.054.036c-.026.053-.072.049-.114.035s-.04-.063-.034-.1a.141.141,0,0,1,.092-.125c.044-.017.08-.062.132-.074A.229.229,0,0,1,629.428,877.845Z" transform="translate(-617.013 -861.239)" fill="#fefefe"/>
        <path id="Path_172" data-name="Path 172" d="M587.061,600.829a.151.151,0,0,1-.054.1.961.961,0,0,1-.171.13c-.013.008-.028.016-.041.006s0-.026,0-.041a.251.251,0,0,1,.181-.227.078.078,0,0,1,.068.011C587.053,600.815,587.061,600.824,587.061,600.829Z" transform="translate(-576.389 -595.584)" fill="#fefefe"/>
        <path id="Path_173" data-name="Path 173" d="M424.857,535.618a.091.091,0,0,1-.027.1,1.519,1.519,0,0,1-.211.2c-.013.01-.03.033-.047.017s0-.037.011-.054a1.879,1.879,0,0,1,.159-.191c.027-.037.056-.073.085-.108a.041.041,0,0,1,.054-.015.039.039,0,0,1,.026.045C424.9,535.646,424.875,535.6,424.857,535.618Z" transform="translate(-420.839 -533.034)" fill="#fdfdfd"/>
        <path id="Path_174" data-name="Path 174" d="M629.7,677.9c-.047,0-.1,0-.106-.045s.04-.066.077-.083a.217.217,0,0,1,.063-.016c.039-.006.069.005.077.049a.067.067,0,0,1-.047.086A.216.216,0,0,1,629.7,677.9Z" transform="translate(-617.432 -669.382)" fill="#fefefe"/>
        <path id="Path_175" data-name="Path 175" d="M679.682,495.2c-.023-.006-.055-.013-.087-.022a2.857,2.857,0,0,1-.286-.1c-.012,0-.033-.01-.026-.03s.024-.011.038-.008a2.22,2.22,0,0,1,.38.116c.013.005.031.007.03.026S679.717,495.2,679.682,495.2Z" transform="translate(-665.079 -494.171)" fill="#fdfdfd"/>
        <path id="Path_176" data-name="Path 176" d="M589.873,629.763a.124.124,0,0,1-.008.056c-.021.045-.043.05-.079.016a.182.182,0,0,1-.041-.052c-.013-.027-.029-.054-.006-.082a.065.065,0,0,1,.063-.028.087.087,0,0,1,.069.065A.1.1,0,0,1,589.873,629.763Z" transform="translate(-579.208 -623.275)" fill="#fdfdfd"/>
        <path id="Path_177" data-name="Path 177" d="M538.8,510.288c-.018-.07.043-.125.128-.114a.217.217,0,0,1,.058.018c.035.015.035.039.013.066a.134.134,0,0,1-.126.042c0-.026.038-.029.043-.053C538.857,510.234,538.855,510.235,538.8,510.288Z" transform="translate(-530.369 -508.691)" fill="#fdfdfd"/>
        <path id="Path_178" data-name="Path 178" d="M511.878,501.578a.078.078,0,0,1-.06.06.2.2,0,0,0-.125.074c-.013.014-.024.032-.045.014s-.014-.035,0-.052a.567.567,0,0,1,.2-.129C511.875,501.533,511.879,501.551,511.878,501.578Z" transform="translate(-504.328 -500.415)" fill="#fdfdfd"/>
        <path id="Path_179" data-name="Path 179" d="M638.68,915.373a.412.412,0,0,1,0-.259c0-.01.008-.023.022-.02s.013.013.013.022A.52.52,0,0,1,638.68,915.373Z" transform="translate(-626.127 -896.956)" fill="#fdfdfd"/>
        <path id="Path_180" data-name="Path 180" d="M673.722,907.324a.474.474,0,0,1,0,.061c0,.035-.022.074-.056.074-.067,0-.06.046-.064.086s0,.075-.049.088c-.007,0-.013.012-.017.02a4.369,4.369,0,0,1-.4.653,2.189,2.189,0,0,1-.133.177.674.674,0,0,1-.428.212c-.194.037-.145,0-.167-.143a.294.294,0,0,1,.111-.286.2.2,0,0,0,.08-.21.406.406,0,0,1,.032-.255.181.181,0,0,1,.138-.111.9.9,0,0,0,.336-.166,2.131,2.131,0,0,0,.3-.3c.049-.053.1-.105.151-.155s.077-.035.107.018A.468.468,0,0,1,673.722,907.324Z" transform="translate(-658.487 -889.233)" fill="#bbdff5"/>
        <path id="Path_181" data-name="Path 181" d="M509.928,579.006h-.1a.158.158,0,0,1-.077-.013c-.024-.013-.155-.149-.149-.169s.152-.041.087-.111c-.015-.016-.042-.028-.037-.05s.032-.021.053-.017.048,0,.052-.019a.048.048,0,0,0,0-.016c-.021-.11.169-.193.192-.071.014.072.017.07.087.082a.637.637,0,0,1,.241.062c.087.058.063.156,0,.225A.428.428,0,0,1,509.928,579.006Z" transform="translate(-502.379 -574.188)" fill="#bbdff5"/>
        <path id="Path_182" data-name="Path 182" d="M580.954,547.691a.167.167,0,0,1,.017-.1c.077-.141.362-.114.481-.057.083.04.02.114-.061.12-.052,0-.075.013-.051.064s.066.083.069.13-.066.108-.107.044c-.018-.028-.011-.065-.022-.1a.021.021,0,0,0-.008-.011c-.01-.007-.023,0-.03.015s-.133.233-.17.2a.072.072,0,0,1-.018-.03A.814.814,0,0,1,580.954,547.691Z" transform="translate(-570.794 -544.471)" fill="#bbdff5"/>
        <path id="Path_183" data-name="Path 183" d="M541.713,497.51c-.038.025-.255.094-.277.021-.054-.182.255-.221.369-.234a.887.887,0,0,1,.252-.013c.139.028.019.13-.065.143-.05.008-.1-.007-.155,0-.022,0-.169.046-.177.04A.39.39,0,0,1,541.713,497.51Z" transform="translate(-532.898 -496.328)" fill="#bbdff5"/>
        <path id="Path_184" data-name="Path 184" d="M607.544,540.415c-.009.019.024.041.034.051a.127.127,0,0,1-.15-.059.125.125,0,0,1-.063.113.284.284,0,0,1-.2.011c-.012,0-.026-.011-.028-.024a.034.034,0,0,1,0-.017.126.126,0,0,1,.077-.078c.038-.013.067.021.072.057,0,.015,0,.036.025.035s.044-.053.046-.079a.691.691,0,0,0,0-.074c0-.016-.007-.053.008-.065a.029.029,0,0,1,.025,0c.059.015.124.053.178,0,.006-.005.013-.012.021-.012a.04.04,0,0,1,.028.045c-.005.013-.021.013-.028.023s0,.034-.008.048-.026.009-.034.019Z" transform="translate(-595.9 -537.556)" fill="#bbdff5"/>
        <path id="Path_185" data-name="Path 185" d="M547.033,506.709h-.022c-.036,0-.086,0-.087-.037s.051-.024.082-.03a.977.977,0,0,1,.193-.01c.012,0,.03-.006.034.01s-.016.023-.028.028A.665.665,0,0,1,547.033,506.709Z" transform="translate(-538.165 -505.295)" fill="#bbdff5"/>
        <path id="Path_186" data-name="Path 186" d="M629.576,580.206a.067.067,0,0,1,.066.069.069.069,0,0,1-.065.074.087.087,0,0,1-.077-.074A.071.071,0,0,1,629.576,580.206Z" transform="translate(-617.344 -575.844)" fill="#bbdff5"/>
        <path id="Path_187" data-name="Path 187" d="M539.545,695.246c0-.069.011-.139.086-.166s0,.227,0,.252c0,.106.035.235-.039.326-.023.029-.107.074-.138.032a.051.051,0,0,1-.006-.032q0-.131.012-.263a.049.049,0,0,1,.011-.034c.013-.012.034-.007.05-.014C539.563,695.334,539.546,695.277,539.545,695.246Z" transform="translate(-530.999 -685.992)" fill="#bbdff5"/>
        <path id="Path_188" data-name="Path 188" d="M623.61,726.695c-.022,0-.051,0-.064-.025s0-.054.023-.074.051-.066.1-.047c.011,0,.029-.005.041-.012.03-.015.058-.033.088-.048.014-.007.031-.024.045-.009s0,.04-.012.048c-.037.022-.024.067-.045.093a.234.234,0,0,1-.162.074Z" transform="translate(-611.63 -716.094)" fill="#bbdff5"/>
        <path id="Path_189" data-name="Path 189" d="M591.28,729.109a1.758,1.758,0,0,1,.285.056c.014,0,.032.007.03.026s-.019.019-.034.02a1.055,1.055,0,0,1-.3-.015c-.029,0-.077-.007-.073-.052S591.241,729.114,591.28,729.109Z" transform="translate(-580.612 -718.622)" fill="#bbdff5"/>
        <path id="Path_190" data-name="Path 190" d="M520.151,701.26a.089.089,0,0,1-.085.094c-.048,0-.06-.032-.063-.07a.1.1,0,0,1,.091-.09C520.136,701.195,520.152,701.221,520.151,701.26Z" transform="translate(-512.351 -691.854)" fill="#bbdff5"/>
        <path id="Path_191" data-name="Path 191" d="M578.128,630.262a.166.166,0,0,1,.078-.183c.01-.006.022-.017.034,0s0,.021,0,.03A.382.382,0,0,1,578.128,630.262Z" transform="translate(-568.083 -623.656)" fill="#bbdff5"/>
      </g>
      <g id="Group_79" data-name="Group 79" transform="translate(0 12.514)">
        <path id="Path_192" data-name="Path 192" d="M346.106,492.152a10.606,10.606,0,0,1,2.116,18.473,10.512,10.512,0,0,1-10.733.768,10.592,10.592,0,0,1,.533-19.179c.119-.052-.068-.041-.113-.022a10.82,10.82,0,0,0-4.455,3.592A10.63,10.63,0,0,0,341.6,512.59a10.913,10.913,0,0,0,5.4-1.141,10.788,10.788,0,0,0,4.04-3.522,10.626,10.626,0,0,0-3.446-15.2,10.794,10.794,0,0,0-1.3-.64.266.266,0,0,0-.188.066Z" transform="translate(-331.468 -492.082)" fill="#bbdff5"/>
      </g>
      <g id="Group_83" data-name="Group 83" transform="translate(2.491 18.658)">
        <path id="Path_193" data-name="Path 193" d="M399.013,644.819a2.258,2.258,0,1,0-4.346,1.23c.34,1.2,3.134,2.78,3.134,2.78S399.352,646.019,399.013,644.819Z" transform="translate(-394.476 -643.103)" fill="#ea8571"/>
        <path id="Path_194" data-name="Path 194" d="M407.28,645.768a2.091,2.091,0,1,0-4.016,1.136c.334,1.181,2.823,2.809,2.823,2.809S407.614,646.949,407.28,645.768Z" transform="translate(-402.716 -644.013)" fill="#ff9c81"/>
        <g id="Group_80" data-name="Group 80">
          <path id="Path_195" data-name="Path 195" d="M396.671,643.119a2.355,2.355,0,0,0-1.877-1.659,2.409,2.409,0,0,0-2.341,1,2.207,2.207,0,0,0-.164,2.307,5.733,5.733,0,0,0,1.61,1.551,14.575,14.575,0,0,0,1.383.9.131.131,0,0,0,.172-.046,14.5,14.5,0,0,0,.751-1.6,8.5,8.5,0,0,0,.426-1.319,2.417,2.417,0,0,0,.04-1.13c-.024-.09-.223-.037-.2.053a2.393,2.393,0,0,1-.052,1.136,8.633,8.633,0,0,1-.439,1.325,14.549,14.549,0,0,1-.716,1.512l.172-.046a10.564,10.564,0,0,1-2.594-1.939,2.322,2.322,0,0,1-.487-.719,2.114,2.114,0,0,1-.048-1.237,2.166,2.166,0,0,1,1.917-1.625,2.207,2.207,0,0,1,2.247,1.593C396.5,643.262,396.7,643.208,396.671,643.119Z" transform="translate(-392.035 -641.43)" fill="#6a79a8"/>
        </g>
        <circle id="Ellipse_250" data-name="Ellipse 250" cx="1.206" cy="1.206" r="1.206" transform="matrix(0.665, -0.747, 0.747, 0.665, 0.496, 2.493)" fill="#ea8571"/>
        <g id="Group_82" data-name="Group 82" transform="translate(0.954 0.921)">
          <circle id="Ellipse_251" data-name="Ellipse 251" cx="1.129" cy="1.129" r="1.129" transform="translate(0 2.16) rotate(-73.014)" fill="#fff"/>
          <g id="Group_81" data-name="Group 81" transform="translate(0.183 0.231)">
            <path id="Path_196" data-name="Path 196" d="M422.094,670.275a1.25,1.25,0,0,0-2.29-.174,1.178,1.178,0,0,0,.284,1.412,1.262,1.262,0,0,0,1.357.159,1.209,1.209,0,0,0,.65-1.4c-.02-.078-.219-.025-.2.053a1.027,1.027,0,1,1-1.279-.749,1.069,1.069,0,0,1,1.279.749C421.919,670.406,422.117,670.351,422.094,670.275Z" transform="translate(-419.682 -669.43)" fill="#6a79a8"/>
          </g>
        </g>
      </g>
      <g id="Group_87" data-name="Group 87" transform="translate(11.166 17.194)">
        <path id="Path_197" data-name="Path 197" d="M607.087,607.951a1.035,1.035,0,1,0-2.052-.272c-.075.567.813,1.739.813,1.739S607.012,608.517,607.087,607.951Z" transform="translate(-604.943 -606.741)" fill="#ea8571"/>
        <path id="Path_198" data-name="Path 198" d="M610.81,609.13a.958.958,0,1,0-1.9-.252c-.074.557.677,1.7.677,1.7S610.736,609.687,610.81,609.13Z" transform="translate(-608.662 -607.899)" fill="#ff9c81"/>
        <g id="Group_84" data-name="Group 84">
          <path id="Path_199" data-name="Path 199" d="M605.154,607.03a1.061,1.061,0,0,0-.907-1.172,1.123,1.123,0,0,0-1.081,1.827,6.323,6.323,0,0,0,.551.865c.032.042.158-.012.189-.036a6.644,6.644,0,0,0,.625-.554,1.921,1.921,0,0,0,.624-.93c0-.016-.189,0-.2.053a2,2,0,0,1-.671.961,6.742,6.742,0,0,1-.558.488l.189-.036a6.759,6.759,0,0,1-.4-.6,2.353,2.353,0,0,1-.418-1.042.913.913,0,0,1,1.1-.905,1.038,1.038,0,0,1,.762,1.131C604.953,607.1,605.148,607.087,605.154,607.03Z" transform="translate(-602.911 -605.847)" fill="#6a79a8"/>
        </g>
        <circle id="Ellipse_252" data-name="Ellipse 252" cx="0.553" cy="0.553" r="0.553" transform="translate(0.324 1.391) rotate(-69.243)" fill="#ea8571"/>
        <g id="Group_86" data-name="Group 86" transform="translate(0.473 0.428)">
          <circle id="Ellipse_253" data-name="Ellipse 253" cx="0.518" cy="0.518" r="0.518" transform="translate(0 0.3) rotate(-16.825)" fill="#fff"/>
          <g id="Group_85" data-name="Group 85" transform="translate(0.027 0.073)">
            <path id="Path_200" data-name="Path 200" d="M616.278,618.66a.618.618,0,0,0-1.227-.119.581.581,0,0,0,.538.644.642.642,0,0,0,.689-.525c.018-.094-.185-.068-.2.017a.406.406,0,0,1-.531.346.472.472,0,0,1-.294-.5.405.405,0,0,1,.488-.356.468.468,0,0,1,.337.51C616.07,618.775,616.272,618.745,616.278,618.66Z" transform="translate(-615.046 -618.028)" fill="#6a79a8"/>
          </g>
        </g>
      </g>
      <g id="Group_91" data-name="Group 91" transform="translate(11.54 23.435)">
        <path id="Path_201" data-name="Path 201" d="M616.218,760.147a1.034,1.034,0,1,0-2.061-.181c-.05.569.889,1.7.889,1.7S616.168,760.716,616.218,760.147Z" transform="translate(-614.067 -758.962)" fill="#ea8571"/>
        <path id="Path_202" data-name="Path 202" d="M619.988,761.226a.958.958,0,1,0-1.9-.167c-.049.56.752,1.662.752,1.662S619.939,761.786,619.988,761.226Z" transform="translate(-617.831 -760.02)" fill="#ff9c81"/>
        <g id="Group_88" data-name="Group 88">
          <path id="Path_203" data-name="Path 203" d="M614.246,758.73a1.092,1.092,0,0,0-.868-1.151,1.188,1.188,0,0,0-1.282.607,1.286,1.286,0,0,0,.2,1.276,6.328,6.328,0,0,0,.588.839c.04.048.135.011.172-.02a6.663,6.663,0,0,0,.6-.581,1.957,1.957,0,0,0,.592-.97c.01-.085-.191-.051-.2.022a1.965,1.965,0,0,1-.617.976,6.7,6.7,0,0,1-.535.512l.172-.02a6.746,6.746,0,0,1-.413-.559,2.325,2.325,0,0,1-.469-1.028.927.927,0,0,1,.983-.953,1,1,0,0,1,.878,1.071C614.042,758.84,614.242,758.8,614.246,758.73Z" transform="translate(-611.995 -757.556)" fill="#6a79a8"/>
        </g>
        <circle id="Ellipse_254" data-name="Ellipse 254" cx="0.552" cy="0.552" r="0.552" transform="translate(0.262 1.025) rotate(-39.874)" fill="#ea8571"/>
        <g id="Group_90" data-name="Group 90" transform="translate(0.503 0.53)">
          <path id="Path_204" data-name="Path 204" d="M627.711,772.159a.517.517,0,1,0-.56.47A.517.517,0,0,0,627.711,772.159Z" transform="translate(-626.577 -771.549)" fill="#fff"/>
          <g id="Group_89" data-name="Group 89">
            <path id="Path_205" data-name="Path 205" d="M625.461,771.044a.618.618,0,0,0-1.23-.068c-.072.775,1.127.79,1.23.068.012-.084-.189-.051-.2.022a.4.4,0,0,1-.51.38.483.483,0,0,1-.321-.493.407.407,0,0,1,.484-.387.481.481,0,0,1,.348.5C625.258,771.154,625.458,771.116,625.461,771.044Z" transform="translate(-624.228 -770.445)" fill="#6a79a8"/>
          </g>
        </g>
      </g>
      <g id="Group_95" data-name="Group 95" transform="translate(9.132 28.092)">
        <path id="Path_206" data-name="Path 206" d="M557.853,873.113a1.034,1.034,0,1,0-2.064.133c.037.57,1.136,1.547,1.136,1.547S557.89,873.684,557.853,873.113Z" transform="translate(-555.691 -872.089)" fill="#ea8571"/>
        <path id="Path_207" data-name="Path 207" d="M561.71,873.885a.958.958,0,1,0-1.908.123c.036.561.994,1.53.994,1.53S561.746,874.445,561.71,873.885Z" transform="translate(-559.54 -872.839)" fill="#ff9c81"/>
        <g id="Group_92" data-name="Group 92">
          <path id="Path_208" data-name="Path 208" d="M555.737,871.768a1.093,1.093,0,0,0-1.047-1,1.18,1.18,0,0,0-1.161.762,1.269,1.269,0,0,0,.379,1.239,6.332,6.332,0,0,0,.708.741c.05.045.147.007.185-.037a6.653,6.653,0,0,0,.5-.665,1.937,1.937,0,0,0,.431-1.043c0-.063-.2-.024-.2.053a1.985,1.985,0,0,1-.47,1.063,6.71,6.71,0,0,1-.452.587l.185-.037a6.739,6.739,0,0,1-.492-.491,2.288,2.288,0,0,1-.625-.962.945.945,0,0,1,.829-1.1,1,1,0,0,1,1.025.935C555.544,871.886,555.744,871.844,555.737,871.768Z" transform="translate(-553.476 -870.77)" fill="#6a79a8"/>
        </g>
        <path id="Path_209" data-name="Path 209" d="M566.661,884.682a.552.552,0,1,0-.516.587A.552.552,0,0,0,566.661,884.682Z" transform="translate(-565.06 -883.614)" fill="#ea8571"/>
        <g id="Group_94" data-name="Group 94" transform="translate(0.399 0.361)">
          <circle id="Ellipse_255" data-name="Ellipse 255" cx="0.517" cy="0.517" r="0.517" transform="matrix(0.667, -0.745, 0.745, 0.667, 0, 0.771)" fill="#fff"/>
          <g id="Group_93" data-name="Group 93" transform="translate(0.113 0.169)">
            <path id="Path_210" data-name="Path 210" d="M567.161,884.141a.621.621,0,0,0-1.231.12c.056.763,1.238.609,1.231-.12,0-.064-.2-.025-.2.053a.412.412,0,0,1-.488.452.487.487,0,0,1-.346-.439.416.416,0,0,1,.445-.459.479.479,0,0,1,.389.446C566.97,884.262,567.17,884.218,567.161,884.141Z" transform="translate(-565.928 -883.639)" fill="#6a79a8"/>
          </g>
        </g>
      </g>
      <g id="Group_99" data-name="Group 99" transform="translate(16.612 19.887)">
        <path id="Path_211" data-name="Path 211" d="M739.546,674.07a1.034,1.034,0,0,0-2.017-.459c-.127.557.65,1.806.65,1.806S739.419,674.627,739.546,674.07Z" transform="translate(-737.424 -672.744)" fill="#ea8571"/>
        <path id="Path_212" data-name="Path 212" d="M743.124,675.467a.958.958,0,1,0-1.864-.424,3.919,3.919,0,0,0,.519,1.749S743,676.015,743.124,675.467Z" transform="translate(-741 -674.119)" fill="#ff9c81"/>
        <g id="Group_96" data-name="Group 96">
          <path id="Path_213" data-name="Path 213" d="M737.532,672.628a1.09,1.09,0,0,0-.762-1.271,1.192,1.192,0,0,0-1.318.5,1.346,1.346,0,0,0,.064,1.287,6.541,6.541,0,0,0,.457.881c.028.045.124.014.155-.006a6.861,6.861,0,0,0,.672-.493,1.984,1.984,0,0,0,.732-.9c.021-.08-.18-.052-.2.022a1.942,1.942,0,0,1-.73.865,6.58,6.58,0,0,1-.6.435l.155-.006a6.555,6.555,0,0,1-.335-.617,2.345,2.345,0,0,1-.32-1.06.913.913,0,0,1,1.092-.809,1,1,0,0,1,.739,1.191C737.316,672.733,737.517,672.7,737.532,672.628Z" transform="translate(-735.311 -671.314)" fill="#6a79a8"/>
        </g>
        <circle id="Ellipse_256" data-name="Ellipse 256" cx="0.552" cy="0.552" r="0.552" transform="translate(0.406 0.619) rotate(-8.324)" fill="#ea8571"/>
        <g id="Group_98" data-name="Group 98" transform="translate(0.493 0.544)">
          <circle id="Ellipse_257" data-name="Ellipse 257" cx="0.517" cy="0.517" r="0.517" transform="translate(0.074 0.065) rotate(-3.287)" fill="#fff"/>
          <g id="Group_97" data-name="Group 97">
            <path id="Path_214" data-name="Path 214" d="M748.515,685.191c.131-.764-1.046-.887-1.205-.2-.176.763,1.013.87,1.205.2.014-.049-.181-.022-.2.032a.392.392,0,0,1-.626.246.507.507,0,0,1-.186-.508.392.392,0,0,1,.6-.261.511.511,0,0,1,.209.523C748.309,685.278,748.506,685.245,748.515,685.191Z" transform="translate(-747.292 -684.541)" fill="#6a79a8"/>
          </g>
        </g>
      </g>
      <g id="Group_124" data-name="Group 124" transform="translate(6.83 0)">
        <g id="Group_100" data-name="Group 100" transform="translate(0.612 11.022)">
          <path id="Path_215" data-name="Path 215" d="M512.375,456.088s0,.007,0,.01c0,.118.134.151.228.162s.839.162,1.115.21a8.538,8.538,0,0,0,2.882.046c.508-.088,1.014-.186,1.521-.278a2.7,2.7,0,0,0,.491-.114c.092-.035.269-.133.251-.257-.011-.078-.129-.057-.185-.043-.667.172-1.339.333-2.016.46a7.541,7.541,0,0,1-2.877-.043,5.133,5.133,0,0,1-.9-.249,1.212,1.212,0,0,0-.194-.068.319.319,0,0,0-.2.015A.189.189,0,0,0,512.375,456.088Z" transform="translate(-512.375 -455.81)" fill="#ddd"/>
        </g>
        <path id="Path_216" data-name="Path 216" d="M520.921,306.907a24.757,24.757,0,0,0-.6-3.069c-.072-.269-.151-.536-.24-.8-.036-.109-.116-.251-.069-.364s.093-.216.141-.324c.025-.056.051-.111.074-.168.011-.028.022-.057.031-.086s.026-.057,0-.073a1.153,1.153,0,0,0-.174-.081c-.059-.021-.121-.031-.178-.056s-.093-.044-.139-.067a1.211,1.211,0,0,1-.266-.178l-.009-.008a2.452,2.452,0,0,1-.309-.411h0a1.394,1.394,0,0,0-1.834-.534,2.253,2.253,0,0,0-.56.391c-.206.193-.343.436-.533.643a1.652,1.652,0,0,1-.389.312c-.069.04-.141.075-.21.115-.043.025-.181.1-.177.151,0,.03.05.083.065.112a1.048,1.048,0,0,1,.054.123c.029.081.088.259.088.259s-.185.466-.257.677l-.212.675a24.906,24.906,0,0,0-.6,2.84l.064.034a8.344,8.344,0,0,0,3.355.446A25.854,25.854,0,0,0,520.921,306.907Z" transform="translate(-513.915 -295.893)" fill="#fff"/>
        <g id="Group_101" data-name="Group 101" transform="translate(0.588 11.275)">
          <path id="Path_217" data-name="Path 217" d="M511.833,462.149c.921.105,1.832.286,2.755.371a8.111,8.111,0,0,0,2.315-.245c.428-.084.857-.182,1.289-.244.085-.012.174-.1.034-.084-.8.114-1.58.318-2.376.442a8.055,8.055,0,0,1-2.428-.122c-.487-.071-.974-.151-1.463-.207-.049-.006-.229.077-.127.089Z" transform="translate(-511.802 -461.943)" fill="#6a79a8"/>
        </g>
        <g id="Group_103" data-name="Group 103" transform="translate(2.421 4.579)">
          <path id="Path_218" data-name="Path 218" d="M559.274,330.414a2.031,2.031,0,0,1-.637.541,2.935,2.935,0,0,1-.32.156l-.275-.445c-.044-.071-.172-.037-.215.015l-.314.381-.934-.727c-.089-.069-.3.055-.189.143l1.037.808a.158.158,0,0,0,.2-.033l.279-.339.142.229c.071.116.1.19.252.153a2.313,2.313,0,0,0,1.18-.8C559.576,330.37,559.346,330.324,559.274,330.414Z" transform="translate(-556.36 -329.032)" fill="#e5e5e5"/>
          <path id="Path_219" data-name="Path 219" d="M558.67,301.224c-.19-.133-.326-.318-.516-.451a4.07,4.07,0,0,1-.542-.439c-.144-.146-.018-.228.095-.377a2.869,2.869,0,0,1,.329-.369,1.382,1.382,0,0,1,1.658-.245,2.4,2.4,0,0,1,.831.789c.143.21-.033.342-.19.506a2.575,2.575,0,0,1-.472.388.837.837,0,0,1-.512.2,2.1,2.1,0,0,1-.3-.363C558.925,300.983,558.793,301.1,558.67,301.224Z" transform="translate(-557.5 -299.171)" fill="#fff"/>
          <g id="Group_102" data-name="Group 102" transform="translate(0.109 1.211)">
            <path id="Path_220" data-name="Path 220" d="M561.748,328.707a2.074,2.074,0,0,1-.473.466c-.138.095-.318.136-.451.231l-.032.013q-.06.02.065.013c0-.008-.023-.023-.026-.031a.6.6,0,0,0-.1-.126l-.181-.221c-.037-.045-.154.007-.184.039l-.361.377.184-.039-.978-.808c-.048-.04-.23.037-.186.073l.978.808c.047.038.148,0,.184-.039l.361-.377-.184.039.26.316c.073.089.12.088.231.047a2.345,2.345,0,0,0,1.08-.787c.047-.062-.148-.041-.183,0Z" transform="translate(-559.013 -328.611)" fill="#6a79a8"/>
          </g>
        </g>
        <g id="Group_108" data-name="Group 108" transform="translate(2.863 6.574)">
          <g id="Group_105" data-name="Group 105" transform="translate(0 0.528)">
            <path id="Path_221" data-name="Path 221" d="M570.318,361.933c-.078.445-.159.891-.234,1.336a3.1,3.1,0,0,1-.565,1.386,6.383,6.383,0,0,1,.324.855c.113-.081.556-.44.671-.528.23-.175.247-1.582.223-2-.012-.209-.039-1.157-.231-1.18l-.07-.008c-.055-.007-.107.05-.116.125Z" transform="translate(-569.419 -361.744)" fill="#bbdff5"/>
            <g id="Group_104" data-name="Group 104">
              <path id="Path_222" data-name="Path 222" d="M567.9,360.719q-.111.629-.221,1.258a3.717,3.717,0,0,1-.312,1.033,2.6,2.6,0,0,1-.151.263c-.026.04-.112.123-.116.168a.6.6,0,0,0,.088.241,1.783,1.783,0,0,1,.236.628c0,.066.157,0,.178-.012.148-.108.29-.226.433-.34a1.316,1.316,0,0,0,.294-.253,2.085,2.085,0,0,0,.177-.969,9.486,9.486,0,0,0,.01-1.014,4.349,4.349,0,0,0-.106-.973c-.031-.108-.066-.2-.181-.225a.258.258,0,0,0-.33.2c-.011.073.189.038.2-.027,0-.031-.053-.107.027-.063a.15.15,0,0,1,.045.056.662.662,0,0,1,.068.227,4.331,4.331,0,0,1,.064.562c.021.323.03.645.021.969a3.92,3.92,0,0,1-.135,1.166c-.049.139-.159.2-.271.29-.156.124-.31.252-.471.37l.178-.012a1.781,1.781,0,0,0-.236-.628c-.058-.129-.1-.179-.022-.3a3.529,3.529,0,0,0,.214-.372,8.681,8.681,0,0,0,.518-2.262C568.106,360.621,567.906,360.655,567.9,360.719Z" transform="translate(-567.095 -360.517)" fill="#6a79a8"/>
            </g>
          </g>
          <g id="Group_107" data-name="Group 107" transform="translate(0.74)">
            <path id="Path_223" data-name="Path 223" d="M587.7,349.38a.077.077,0,0,1,.125.021,1.1,1.1,0,0,1,.117.313c.025.082.033.137-.074.136a1.8,1.8,0,0,1-.292-.054c-.149-.028-.018-.247.028-.305A.683.683,0,0,1,587.7,349.38Z" transform="translate(-587.41 -349.288)" fill="#bbdff5"/>
            <g id="Group_106" data-name="Group 106">
              <path id="Path_224" data-name="Path 224" d="M585.432,347.815c-.046.031-.021.031,0,.076a.616.616,0,0,1,.026.067c.017.049.03.1.044.15a.337.337,0,0,0,.019.067l0,.019q.031-.028,0-.024c-.016-.012-.07-.011-.092-.016l-.1-.023c-.037-.008-.049,0-.058-.039s.021-.079.033-.1a.652.652,0,0,1,.143-.187.054.054,0,0,0-.025-.092.144.144,0,0,0-.141.038.588.588,0,0,0-.211.379.135.135,0,0,0,.111.13,1.109,1.109,0,0,0,.341.059.2.2,0,0,0,.193-.1c.025-.072-.02-.166-.04-.235a.526.526,0,0,0-.124-.254.2.2,0,0,0-.253.01.059.059,0,0,0-.012.1A.134.134,0,0,0,585.432,347.815Z" transform="translate(-585.073 -347.679)" fill="#6a79a8"/>
            </g>
          </g>
        </g>
        <path id="Path_225" data-name="Path 225" d="M566.028,206.311c.009-1.351-.579-2.449-1.312-2.454s-1.335,1.086-1.344,2.437c0,.031,0,.187,0,.242a5.786,5.786,0,0,0,.165,1.635,1.922,1.922,0,0,0,1.119,1.065,2,2,0,0,0,1.159-.966,5.4,5.4,0,0,0,.214-1.718C566.026,206.5,566.027,206.344,566.028,206.311Z" transform="translate(-560.66 -203.199)" fill="#fff"/>
        <path id="Path_226" data-name="Path 226" d="M607.684,204.959a.92.92,0,0,0,.258-.514c.084.183.122.4.2.588a1.462,1.462,0,0,1,.107.328.975.975,0,0,1-.078.521,2.773,2.773,0,0,1-.265.462c.021.015.037-.024.034-.049l-.038-.325c-.019.023-.088.064-.106.087l-.122.15a.264.264,0,0,0-.016-.232l-.037,0a.664.664,0,0,1-.213.175l.047-.017a.439.439,0,0,0-.05-.156c-.05-.092-.138-.159-.187-.25-.076-.14,0-.133.053-.262A2.562,2.562,0,0,1,607.684,204.959Z" transform="translate(-602.674 -203.763)" fill="#bbdff5"/>
        <path id="Path_227" data-name="Path 227" d="M549.663,189.412a2.488,2.488,0,0,1,.612-.955,2.283,2.283,0,0,1,1.036-.578,1.075,1.075,0,0,1,.8.188c.2.129.544.315.392.578a3.335,3.335,0,0,1-1.563,1.383.8.8,0,0,0-.281.137.7.7,0,0,0-.135.269c0-.024-.11-.282-.138-.254a1.064,1.064,0,0,0-.228.327.524.524,0,0,0-.037.09.259.259,0,0,0,.007.094q.008.058.012.117c0,.018-.007.089,0,.1-.045-.051-.114-.078-.157-.131a.6.6,0,0,1-.081-.26,2.585,2.585,0,0,0-.083-.276.364.364,0,0,0-.086.216c0,.062,0,.124-.007.185a.443.443,0,0,0,0,.249.642.642,0,0,1-.2-.411,1.591,1.591,0,0,1-.015-.48,1.5,1.5,0,0,1,.058-.29C549.592,189.61,549.625,189.51,549.663,189.412Z" transform="translate(-547.354 -187.862)" fill="#bbdff5"/>
        <g id="Group_109" data-name="Group 109" transform="translate(3.014 5.362)">
          <path id="Path_228" data-name="Path 228" d="M570.789,318.3a2.137,2.137,0,0,0,.555.464.964.964,0,0,0,.376.168.924.924,0,0,0,.385-.143,2.417,2.417,0,0,0,.612-.429c.083-.081-.112-.081-.16-.034a2.175,2.175,0,0,1-.554.391c-.062.031-.126.055-.188.084-.019.009-.041.014-.06.023,0,0,.053.016.04-.01-.023-.048-.265-.13-.316-.16a2.025,2.025,0,0,1-.507-.432c-.045-.053-.235.018-.184.078Z" transform="translate(-570.78 -318.203)" fill="#6a79a8"/>
        </g>
        <path id="Path_229" data-name="Path 229" d="M587.148,300.671c.007.173-.259.36-.447.391a.467.467,0,0,1-.3-.048c-.155-.085-.291-.317-.018-.363a.63.63,0,0,1,.252.023c.048.012.086.014.135.024a.354.354,0,0,0,.192,0,.951.951,0,0,1,.093-.043C587.092,300.648,587.147,300.642,587.148,300.671Z" transform="translate(-582.581 -296.006)" fill="#6a79a8"/>
        <g id="Group_112" data-name="Group 112" transform="translate(3.831 6.431)">
          <g id="Group_110" data-name="Group 110" transform="translate(0.213)">
            <path id="Path_230" data-name="Path 230" d="M597.982,344.3a1.578,1.578,0,0,1,.471,1.295,1.248,1.248,0,0,1-.844.995,7.679,7.679,0,0,0-1.178.512,2.8,2.8,0,0,0-.5.326c-.152.148-.037.286-.1.455-.042.1.157.1.19.021a.558.558,0,0,0,.018-.235c0-.162.1-.206.22-.284a6.211,6.211,0,0,1,.67-.392,5.589,5.589,0,0,0,1.259-.562,1.509,1.509,0,0,0-.017-2.217c-.064-.06-.252.021-.182.087Z" transform="translate(-595.818 -344.189)" fill="#6a79a8"/>
          </g>
          <g id="Group_111" data-name="Group 111" transform="translate(0 3.139)">
            <path id="Path_231" data-name="Path 231" d="M590.815,420.678a.168.168,0,0,1,.037-.032c.008,0,.012-.005.023.006a.114.114,0,0,0,.136.018c.032-.016.081-.071.045-.109a.275.275,0,0,0-.409.05.065.065,0,0,0,.028.1.129.129,0,0,0,.14-.038Z" transform="translate(-590.631 -420.491)" fill="#6a79a8"/>
          </g>
        </g>
        <g id="Group_113" data-name="Group 113" transform="translate(0.604 0.604)">
          <path id="Path_232" data-name="Path 232" d="M516.839,207.064a5.778,5.778,0,0,0,.218-1.838,4.089,4.089,0,0,0-.34-1.868,1.3,1.3,0,0,0-.974-.819,1.186,1.186,0,0,0-1.025.586,3.4,3.4,0,0,0-.513,1.81,7.338,7.338,0,0,0,.112,1.809.564.564,0,0,1,.028.26.617.617,0,0,1-.162.324,5.512,5.512,0,0,1-.379.469,2.2,2.2,0,0,1-.505.348c-.066.037-.193.089-.225.164-.044.1.076.218.11.31a.658.658,0,0,1,.072.248,1.378,1.378,0,0,1-.11.282,19.782,19.782,0,0,0-.95,3.886.031.031,0,0,0,.02.034,3.229,3.229,0,0,0,.724.241,8.837,8.837,0,0,0,1.63.24,7.713,7.713,0,0,0,1.66-.056c.484-.076.963-.178,1.441-.283.314-.069.627-.141.939-.217.031-.008.092-.033.086-.074a23.11,23.11,0,0,0-.7-3.435c-.077-.259-.268-.586-.178-.85.043-.127.111-.247.163-.371.027-.063.091-.161.054-.229s-.193-.1-.254-.12a1.321,1.321,0,0,1-.832-.7c-.036-.053-.229.012-.185.077l0,.006c.036.053.228-.011.185-.077l-.121-.184c-.035-.053-.228.011-.185.077l.121.184.185-.077,0-.005c-.036-.053-.229.012-.185.077a1.839,1.839,0,0,0,.422.5,1.592,1.592,0,0,0,.317.174c.088.036.323.054.334.175.008.082-.1.245-.134.319a1.164,1.164,0,0,0-.126.325.887.887,0,0,0,.095.348c.049.144.093.289.135.435a23.246,23.246,0,0,1,.69,3.4l.086-.074a13.73,13.73,0,0,1-3.625.556,8.231,8.231,0,0,1-2.246-.347c-.074-.023-.148-.047-.22-.076a.236.236,0,0,1-.056-.022c-.058-.048-.027.01-.031-.077a1.32,1.32,0,0,1,.039-.232c.1-.583.208-1.165.343-1.742a13.774,13.774,0,0,1,.528-1.763,1.679,1.679,0,0,0,.145-.372c.011-.131-.11-.275-.14-.4-.02-.082-.107-.024.008-.17a.578.578,0,0,1,.118-.067,3.179,3.179,0,0,0,.278-.163,2.387,2.387,0,0,0,.53-.548,1.138,1.138,0,0,0,.259-.384.622.622,0,0,0,.006-.379,5.993,5.993,0,0,1-.121-1.312,3.393,3.393,0,0,1,.716-2.528.7.7,0,0,1,1.01,0,2.3,2.3,0,0,1,.623,1.2,5.954,5.954,0,0,1,.1,1.615,4.894,4.894,0,0,1-.209,1.4C516.618,207.154,516.816,207.129,516.839,207.064Z" transform="translate(-512.195 -202.537)" fill="#6a79a8"/>
        </g>
        <g id="Group_118" data-name="Group 118" transform="translate(3.397 8.101)">
          <g id="Group_115" data-name="Group 115">
            <path id="Path_233" data-name="Path 233" d="M582.715,386.888l-.032,1.769a.146.146,0,0,0,.143.149l.885.016a.146.146,0,0,0,.149-.143l.032-1.769a.146.146,0,0,0-.143-.149l-.885-.016A.146.146,0,0,0,582.715,386.888Z" transform="translate(-582.576 -386.664)" fill="#fff"/>
            <g id="Group_114" data-name="Group 114">
              <path id="Path_234" data-name="Path 234" d="M580.115,385.032q-.013.719-.026,1.437c0,.138-.053.392.069.494.14.117.5.058.663.061s.49.07.6-.112c.083-.131.04-.378.043-.522q.008-.459.017-.917a1.71,1.71,0,0,0,0-.5c-.073-.228-.515-.154-.69-.158-.223,0-.625-.09-.68.217-.018.1.185.075.2-.015.023-.13.469-.055.562-.053.135,0,.4-.059.413.119a4.847,4.847,0,0,1-.009.516l-.014.753a2.07,2.07,0,0,1-.008.463c-.038.138-.351.065-.462.063-.127,0-.476.062-.514-.1a1.912,1.912,0,0,1,.008-.43q.012-.667.024-1.334C580.318,384.913,580.116,384.942,580.115,385.032Z" transform="translate(-580.076 -384.802)" fill="#6a79a8"/>
            </g>
          </g>
          <g id="Group_117" data-name="Group 117" transform="translate(0.501 0.349)">
            <rect id="Rectangle_213" data-name="Rectangle 213" width="0.22" height="0.243" rx="0.11" transform="translate(0.098 0.275) rotate(-88.966)" fill="#fff"/>
            <g id="Group_116" data-name="Group 116">
              <path id="Path_235" data-name="Path 235" d="M592.376,393.4h.123c.033,0,0,0,0,0s.011.026.011.029,0,.027,0,.041,0,.034,0,.05-.012.029.042.011.046-.014.019-.015h-.1s-.012,0-.015,0h0c.02.008.026.008.017,0a.217.217,0,0,1-.008-.025c0-.015,0-.031,0-.046s0-.03,0-.046a.066.066,0,0,0,0-.013c-.007-.038.066,0-.062.014.034,0,.106-.024.114-.065s-.06-.041-.085-.039c-.064.006-.156.042-.165.115a.856.856,0,0,0,0,.09c0,.039,0,.074.034.1a.207.207,0,0,0,.118.022c.094,0,.23.013.28-.086a.227.227,0,0,0,.01-.1.162.162,0,0,0-.013-.1c-.045-.061-.17-.042-.237-.043a.164.164,0,0,0-.131.053C592.3,393.382,592.344,393.4,592.376,393.4Z" transform="translate(-592.263 -393.288)" fill="#6a79a8"/>
            </g>
          </g>
        </g>
        <g id="Group_119" data-name="Group 119" transform="translate(0.918 6.709)">
          <path id="Path_236" data-name="Path 236" d="M520.462,350.991a1.328,1.328,0,0,0-.271,2.049,2.224,2.224,0,0,0,1.021.431c.26.054.524.088.788.116.139.015.278.027.417.041s.42-.02.4.19c0,.064.193.023.2-.031.012-.157-.063-.206-.21-.226-.264-.036-.532-.049-.8-.079a3.774,3.774,0,0,1-1.388-.346,1.109,1.109,0,0,1-.6-.844,1.389,1.389,0,0,1,.6-1.284c.086-.059-.113-.046-.155-.017Z" transform="translate(-519.814 -350.967)" fill="#6a79a8"/>
        </g>
        <g id="Group_123" data-name="Group 123" transform="translate(0 10.551)">
          <path id="Path_237" data-name="Path 237" d="M507.369,447.717a2.305,2.305,0,0,0-.429-1.355q-.037-.046-.078-.09c-.732-.787-1.927-.17-2.618.32a2.062,2.062,0,0,1-1.163,0c-.691-.489-1.887-1.107-2.619-.32q-.04.044-.078.09a2.3,2.3,0,0,0-.429,1.355,8.135,8.135,0,0,0,.147,1.682q.062.373.147.741c.05.217.081.43.126.646l.2.951c.023.109.019.281.117.348a.226.226,0,0,0,.308-.071,1.483,1.483,0,0,0,.254-.729c.05-.259.366-3.854.473-3.854a6.62,6.62,0,0,1,1.964-.37,6.889,6.889,0,0,1,1.91.329c.108,0,.423,3.636.473,3.895a1.483,1.483,0,0,0,.254.729.225.225,0,0,0,.308.071c.1-.067.094-.239.117-.348l.2-.951c.045-.217.076-.429.126-.646q.085-.368.147-.741A8.139,8.139,0,0,0,507.369,447.717Z" transform="translate(-499.85 -445.833)" fill="#e5e5e5"/>
          <g id="Group_120" data-name="Group 120">
            <path id="Path_238" data-name="Path 238" d="M500.815,445.066c-.8-.564-2.094-1.152-2.856-.2a2.8,2.8,0,0,0-.442,1.935,18.628,18.628,0,0,0,.367,2.291c.074.4.175.8.246,1.2.037.21.07.451.345.422.422-.045.5-.665.546-.991.093-.682.153-1.37.23-2.055.051-.449.1-.9.163-1.345.022-.16.043-.32.071-.478a1.269,1.269,0,0,0,.031-.156c0-.083.064-.045-.048-.017.123-.03.088-.157-.034-.127s-.135.234-.153.339c-.049.287-.084.576-.12.865-.093.754-.174,1.509-.257,2.264-.026.238-.05.476-.081.713-.016.122-.039.243-.065.363a.763.763,0,0,1-.185.427c-.228.168-.228-.2-.251-.317-.139-.7-.3-1.406-.431-2.113a7.144,7.144,0,0,1-.153-2.144c.087-.694.47-1.461,1.267-1.449a3.133,3.133,0,0,1,1.656.682c.067.047.244-.047.154-.11Z" transform="translate(-497.507 -444.362)" fill="#6a79a8"/>
          </g>
          <g id="Group_121" data-name="Group 121" transform="translate(4.296 0.007)">
            <path id="Path_239" data-name="Path 239" d="M603.253,445.813c-.05-.012-.012-.011-.011.031a.861.861,0,0,0,.028.126c.024.125.043.252.061.378.055.379.1.758.146,1.138.09.757.169,1.515.26,2.272a1.963,1.963,0,0,0,.257.945.355.355,0,0,0,.534.081.436.436,0,0,0,.106-.271c.03-.19.074-.378.113-.566.163-.781.34-1.565.448-2.356a4.212,4.212,0,0,0-.112-2.134,1.372,1.372,0,0,0-1.411-.916,3.544,3.544,0,0,0-1.693.717c-.11.077.06.105.124.061a3.326,3.326,0,0,1,1.462-.658,1.284,1.284,0,0,1,1.365.972,4.52,4.52,0,0,1,.056,2.059c-.1.712-.258,1.417-.4,2.121l-.107.515c-.018.087-.024.44-.18.412-.13-.023-.214-.293-.245-.4a3.381,3.381,0,0,1-.082-.39c-.029-.174-.045-.351-.065-.527-.083-.732-.163-1.464-.252-2.194-.044-.363-.088-.726-.144-1.087-.013-.085-.018-.409-.132-.437-.065-.016-.234.082-.121.109Z" transform="translate(-601.943 -444.537)" fill="#6a79a8"/>
          </g>
          <g id="Group_122" data-name="Group 122" transform="translate(2.504 1.202)">
            <path id="Path_240" data-name="Path 240" d="M558.442,473.8a6.932,6.932,0,0,1,1.182-.149,7.807,7.807,0,0,1,1.195.152c.045.007.213-.065.164-.074a7.4,7.4,0,0,0-1.257-.155,8.077,8.077,0,0,0-1.245.158c-.077.013-.179.091-.039.067Z" transform="translate(-558.372 -473.574)" fill="#6a79a8"/>
          </g>
        </g>
      </g>
    </g>
  </g>
</svg>
