<svg xmlns="http://www.w3.org/2000/svg" width="23.925" height="36.565" viewBox="0 0 23.925 36.565">
  <g id="Product" transform="translate(-1080.491 -520.675)">
    <path id="Path_1" data-name="Path 1" d="M1099.617,542.922h-.32a3.765,3.765,0,0,1,1.2-2.277c2.037-1.85,3.923-4.1,3.923-8.01a11.964,11.964,0,0,0-23.82-1.605c-.488,3.739.719,6.789,3.8,9.6a3.84,3.84,0,0,1,1.216,2.295h-.321a2.259,2.259,0,0,0-2.4,2.078v1.238c0,3.634,3.66,6.59,8.16,6.59h2.806c4.5,0,8.159-2.956,8.159-6.59V545A2.258,2.258,0,0,0,1099.617,542.922Zm-17.194-11.654a10.164,10.164,0,0,1,8.849-8.686,10.123,10.123,0,0,1,11.3,10.053c0,3.015-1.327,4.836-3.32,6.646a5.609,5.609,0,0,0-1.811,3.641h-9.977a5.674,5.674,0,0,0-1.83-3.656C1083.005,536.867,1082.015,534.4,1082.423,531.269Zm17.75,14.969c0,2.618-2.833,4.747-6.316,4.747h-2.806c-3.483,0-6.317-2.129-6.317-4.747V545a.612.612,0,0,1,.556-.236h14.327a.615.615,0,0,1,.556.235Z" transform="translate(0)" fill="#a7a7be"/>
    <path id="Path_2" data-name="Path 2" d="M1099.389,577.209h-3.84a.921.921,0,1,0,0,1.843h3.84a.921.921,0,0,0,0-1.843Z" transform="translate(-5.454 -21.811)" fill="#a7a7be"/>
  </g>
</svg>
