<svg xmlns="http://www.w3.org/2000/svg" width="21.694" height="16.324" viewBox="0 0 21.694 16.324">
  <g id="Group_16" data-name="Group 16" transform="translate(0)">
    <path id="Path_37" data-name="Path 37" d="M739.883,678.948a3.409,3.409,0,1,1-3.409,3.409A3.413,3.413,0,0,1,739.883,678.948Zm0,5.539a2.13,2.13,0,1,0-2.129-2.13A2.132,2.132,0,0,0,739.883,684.487Z" transform="translate(-721.598 -678.948)" fill="#a7a7be"/>
    <path id="Path_38" data-name="Path 38" d="M769.666,682.05H758.278a.64.64,0,1,1,0-1.279h11.388a.64.64,0,0,1,0,1.279Z" transform="translate(-757.638 -679.994)" fill="#a7a7be"/>
    <path id="Path_39" data-name="Path 39" d="M766.526,691.39h-8.248a.64.64,0,1,1,0-1.279h8.248a.64.64,0,1,1,0,1.279Z" transform="translate(-754.498 -685.35)" fill="#a7a7be"/>
    <path id="Path_40" data-name="Path 40" d="M739.883,701.236a3.409,3.409,0,1,1-3.409,3.409A3.413,3.413,0,0,1,739.883,701.236Zm0,5.539a2.13,2.13,0,1,0-2.129-2.13A2.132,2.132,0,0,0,739.883,706.775Z" transform="translate(-721.598 -691.73)" fill="#a7a7be"/>
    <path id="Path_41" data-name="Path 41" d="M758.278,703.06h11.388a.64.64,0,0,1,0,1.279H758.278a.64.64,0,1,1,0-1.279Z" transform="translate(-757.638 -692.776)" fill="#a7a7be"/>
    <path id="Path_42" data-name="Path 42" d="M758.278,712.4h8.248a.64.64,0,1,1,0,1.279h-8.248a.64.64,0,0,1,0-1.279Z" transform="translate(-754.498 -698.133)" fill="#a7a7be"/>
  </g>
</svg>
