<svg xmlns="http://www.w3.org/2000/svg" width="522.795" height="517.908" viewBox="0 0 522.795 517.908">
  <g id="shape1" transform="matrix(0.719, 0.695, -0.695, 0.719, -210.173, -826.876)">
    <circle id="Ellipse_108" data-name="DragAndClose 108" cx="2.5" cy="2.5" r="2.5" transform="translate(860 319)" fill="#cfd6d6"/>
    <circle id="Ellipse_109" data-name="DragAndClose 109" cx="2.5" cy="2.5" r="2.5" transform="translate(893 319)" fill="#cfd6d6"/>
    <circle id="Ellipse_110" data-name="DragAndClose 110" cx="2.5" cy="2.5" r="2.5" transform="translate(926 319)" fill="#cfd6d6"/>
    <circle id="Ellipse_111" data-name="DragAndClose 111" cx="2.5" cy="2.5" r="2.5" transform="translate(959 319)" fill="#cfd6d6"/>
    <circle id="Ellipse_112" data-name="DragAndClose 112" cx="2.5" cy="2.5" r="2.5" transform="translate(992 319)" fill="#cfd6d6"/>
    <circle id="Ellipse_113" data-name="DragAndClose 113" cx="2.5" cy="2.5" r="2.5" transform="translate(1025 319)" fill="#cfd6d6"/>
    <circle id="Ellipse_114" data-name="DragAndClose 114" cx="2.5" cy="2.5" r="2.5" transform="translate(1058 319)" fill="#cfd6d6"/>
    <circle id="Ellipse_115" data-name="DragAndClose 115" cx="2.5" cy="2.5" r="2.5" transform="translate(1091 319)" fill="#cfd6d6"/>
    <circle id="Ellipse_116" data-name="DragAndClose 116" cx="2.5" cy="2.5" r="2.5" transform="translate(1124 319)" fill="#cfd6d6"/>
    <circle id="Ellipse_117" data-name="DragAndClose 117" cx="2.5" cy="2.5" r="2.5" transform="translate(1157 319)" fill="#cfd6d6"/>
    <circle id="Ellipse_118" data-name="DragAndClose 118" cx="2.5" cy="2.5" r="2.5" transform="translate(1190 319)" fill="#cfd6d6"/>
    <circle id="Ellipse_119" data-name="DragAndClose 119" cx="2.5" cy="2.5" r="2.5" transform="translate(1223 319)" fill="#cfd6d6"/>
    <circle id="Ellipse_120" data-name="DragAndClose 120" cx="2.5" cy="2.5" r="2.5" transform="translate(1256 319)" fill="#cfd6d6"/>
    <circle id="Ellipse_121" data-name="DragAndClose 121" cx="2.5" cy="2.5" r="2.5" transform="translate(1289 319)" fill="#cfd6d6"/>
    <circle id="Ellipse_122" data-name="DragAndClose 122" cx="2.5" cy="2.5" r="2.5" transform="translate(1322 319)" fill="#cfd6d6"/>
    <circle id="Ellipse_123" data-name="DragAndClose 123" cx="2.5" cy="2.5" r="2.5" transform="translate(860 352)" fill="#cfd6d6"/>
    <circle id="Ellipse_124" data-name="DragAndClose 124" cx="2.5" cy="2.5" r="2.5" transform="translate(893 352)" fill="#cfd6d6"/>
    <circle id="Ellipse_125" data-name="DragAndClose 125" cx="2.5" cy="2.5" r="2.5" transform="translate(926 352)" fill="#cfd6d6"/>
    <circle id="Ellipse_126" data-name="DragAndClose 126" cx="2.5" cy="2.5" r="2.5" transform="translate(959 352)" fill="#cfd6d6"/>
    <circle id="Ellipse_127" data-name="DragAndClose 127" cx="2.5" cy="2.5" r="2.5" transform="translate(992 352)" fill="#cfd6d6"/>
    <circle id="Ellipse_128" data-name="DragAndClose 128" cx="2.5" cy="2.5" r="2.5" transform="translate(1025 352)" fill="#cfd6d6"/>
    <circle id="Ellipse_129" data-name="DragAndClose 129" cx="2.5" cy="2.5" r="2.5" transform="translate(1058 352)" fill="#cfd6d6"/>
    <circle id="Ellipse_130" data-name="DragAndClose 130" cx="2.5" cy="2.5" r="2.5" transform="translate(1091 352)" fill="#cfd6d6"/>
    <circle id="Ellipse_131" data-name="DragAndClose 131" cx="2.5" cy="2.5" r="2.5" transform="translate(1124 352)" fill="#cfd6d6"/>
    <circle id="Ellipse_132" data-name="DragAndClose 132" cx="2.5" cy="2.5" r="2.5" transform="translate(1157 352)" fill="#cfd6d6"/>
    <circle id="Ellipse_133" data-name="DragAndClose 133" cx="2.5" cy="2.5" r="2.5" transform="translate(1190 352)" fill="#cfd6d6"/>
    <circle id="Ellipse_134" data-name="DragAndClose 134" cx="2.5" cy="2.5" r="2.5" transform="translate(1223 352)" fill="#cfd6d6"/>
    <circle id="Ellipse_135" data-name="DragAndClose 135" cx="2.5" cy="2.5" r="2.5" transform="translate(1256 352)" fill="#cfd6d6"/>
    <circle id="Ellipse_136" data-name="DragAndClose 136" cx="2.5" cy="2.5" r="2.5" transform="translate(1289 352)" fill="#cfd6d6"/>
    <circle id="Ellipse_137" data-name="DragAndClose 137" cx="2.5" cy="2.5" r="2.5" transform="translate(1322 352)" fill="#cfd6d6"/>
    <circle id="Ellipse_138" data-name="DragAndClose 138" cx="2.5" cy="2.5" r="2.5" transform="translate(860 385)" fill="#cfd6d6"/>
    <circle id="Ellipse_139" data-name="DragAndClose 139" cx="2.5" cy="2.5" r="2.5" transform="translate(893 385)" fill="#cfd6d6"/>
    <circle id="Ellipse_140" data-name="DragAndClose 140" cx="2.5" cy="2.5" r="2.5" transform="translate(926 385)" fill="#cfd6d6"/>
    <circle id="Ellipse_141" data-name="DragAndClose 141" cx="2.5" cy="2.5" r="2.5" transform="translate(959 385)" fill="#cfd6d6"/>
    <circle id="Ellipse_142" data-name="DragAndClose 142" cx="2.5" cy="2.5" r="2.5" transform="translate(992 385)" fill="#cfd6d6"/>
    <circle id="Ellipse_143" data-name="DragAndClose 143" cx="2.5" cy="2.5" r="2.5" transform="translate(1025 385)" fill="#cfd6d6"/>
    <circle id="Ellipse_144" data-name="DragAndClose 144" cx="2.5" cy="2.5" r="2.5" transform="translate(1058 385)" fill="#cfd6d6"/>
    <circle id="Ellipse_145" data-name="DragAndClose 145" cx="2.5" cy="2.5" r="2.5" transform="translate(1091 385)" fill="#cfd6d6"/>
    <circle id="Ellipse_146" data-name="DragAndClose 146" cx="2.5" cy="2.5" r="2.5" transform="translate(1124 385)" fill="#cfd6d6"/>
    <circle id="Ellipse_147" data-name="DragAndClose 147" cx="2.5" cy="2.5" r="2.5" transform="translate(1157 385)" fill="#cfd6d6"/>
    <circle id="Ellipse_148" data-name="DragAndClose 148" cx="2.5" cy="2.5" r="2.5" transform="translate(1190 385)" fill="#cfd6d6"/>
    <circle id="Ellipse_149" data-name="DragAndClose 149" cx="2.5" cy="2.5" r="2.5" transform="translate(1223 385)" fill="#cfd6d6"/>
    <circle id="Ellipse_150" data-name="DragAndClose 150" cx="2.5" cy="2.5" r="2.5" transform="translate(1256 385)" fill="#cfd6d6"/>
    <circle id="Ellipse_151" data-name="DragAndClose 151" cx="2.5" cy="2.5" r="2.5" transform="translate(1289 385)" fill="#cfd6d6"/>
    <circle id="Ellipse_152" data-name="DragAndClose 152" cx="2.5" cy="2.5" r="2.5" transform="translate(1322 385)" fill="#cfd6d6"/>
    <circle id="Ellipse_153" data-name="DragAndClose 153" cx="2.5" cy="2.5" r="2.5" transform="translate(860 418)" fill="#cfd6d6"/>
    <circle id="Ellipse_154" data-name="DragAndClose 154" cx="2.5" cy="2.5" r="2.5" transform="translate(893 418)" fill="#cfd6d6"/>
    <circle id="Ellipse_155" data-name="DragAndClose 155" cx="2.5" cy="2.5" r="2.5" transform="translate(926 418)" fill="#cfd6d6"/>
    <circle id="Ellipse_156" data-name="DragAndClose 156" cx="2.5" cy="2.5" r="2.5" transform="translate(959 418)" fill="#cfd6d6"/>
    <circle id="Ellipse_157" data-name="DragAndClose 157" cx="2.5" cy="2.5" r="2.5" transform="translate(992 418)" fill="#cfd6d6"/>
    <circle id="Ellipse_158" data-name="DragAndClose 158" cx="2.5" cy="2.5" r="2.5" transform="translate(1025 418)" fill="#cfd6d6"/>
    <circle id="Ellipse_159" data-name="DragAndClose 159" cx="2.5" cy="2.5" r="2.5" transform="translate(1058 418)" fill="#cfd6d6"/>
    <circle id="Ellipse_160" data-name="DragAndClose 160" cx="2.5" cy="2.5" r="2.5" transform="translate(1091 418)" fill="#cfd6d6"/>
    <circle id="Ellipse_161" data-name="DragAndClose 161" cx="2.5" cy="2.5" r="2.5" transform="translate(1124 418)" fill="#cfd6d6"/>
    <circle id="Ellipse_162" data-name="DragAndClose 162" cx="2.5" cy="2.5" r="2.5" transform="translate(1157 418)" fill="#cfd6d6"/>
    <circle id="Ellipse_163" data-name="DragAndClose 163" cx="2.5" cy="2.5" r="2.5" transform="translate(1190 418)" fill="#cfd6d6"/>
    <circle id="Ellipse_164" data-name="DragAndClose 164" cx="2.5" cy="2.5" r="2.5" transform="translate(1223 418)" fill="#cfd6d6"/>
    <circle id="Ellipse_165" data-name="DragAndClose 165" cx="2.5" cy="2.5" r="2.5" transform="translate(1256 418)" fill="#cfd6d6"/>
    <circle id="Ellipse_166" data-name="DragAndClose 166" cx="2.5" cy="2.5" r="2.5" transform="translate(1289 418)" fill="#cfd6d6"/>
    <circle id="Ellipse_167" data-name="DragAndClose 167" cx="2.5" cy="2.5" r="2.5" transform="translate(1322 418)" fill="#cfd6d6"/>
    <circle id="Ellipse_168" data-name="DragAndClose 168" cx="2.5" cy="2.5" r="2.5" transform="translate(860 451)" fill="#cfd6d6"/>
    <circle id="Ellipse_169" data-name="DragAndClose 169" cx="2.5" cy="2.5" r="2.5" transform="translate(893 451)" fill="#cfd6d6"/>
    <circle id="Ellipse_170" data-name="DragAndClose 170" cx="2.5" cy="2.5" r="2.5" transform="translate(926 451)" fill="#cfd6d6"/>
    <circle id="Ellipse_171" data-name="DragAndClose 171" cx="2.5" cy="2.5" r="2.5" transform="translate(959 451)" fill="#cfd6d6"/>
    <circle id="Ellipse_172" data-name="DragAndClose 172" cx="2.5" cy="2.5" r="2.5" transform="translate(992 451)" fill="#cfd6d6"/>
    <circle id="Ellipse_173" data-name="DragAndClose 173" cx="2.5" cy="2.5" r="2.5" transform="translate(1025 451)" fill="#cfd6d6"/>
    <circle id="Ellipse_174" data-name="DragAndClose 174" cx="2.5" cy="2.5" r="2.5" transform="translate(1058 451)" fill="#cfd6d6"/>
    <circle id="Ellipse_175" data-name="DragAndClose 175" cx="2.5" cy="2.5" r="2.5" transform="translate(1091 451)" fill="#cfd6d6"/>
    <circle id="Ellipse_176" data-name="DragAndClose 176" cx="2.5" cy="2.5" r="2.5" transform="translate(1124 451)" fill="#cfd6d6"/>
    <circle id="Ellipse_177" data-name="DragAndClose 177" cx="2.5" cy="2.5" r="2.5" transform="translate(1157 451)" fill="#cfd6d6"/>
    <circle id="Ellipse_178" data-name="DragAndClose 178" cx="2.5" cy="2.5" r="2.5" transform="translate(1190 451)" fill="#cfd6d6"/>
    <circle id="Ellipse_179" data-name="DragAndClose 179" cx="2.5" cy="2.5" r="2.5" transform="translate(1223 451)" fill="#cfd6d6"/>
    <circle id="Ellipse_180" data-name="DragAndClose 180" cx="2.5" cy="2.5" r="2.5" transform="translate(1256 451)" fill="#cfd6d6"/>
    <circle id="Ellipse_181" data-name="DragAndClose 181" cx="2.5" cy="2.5" r="2.5" transform="translate(1289 451)" fill="#cfd6d6"/>
    <circle id="Ellipse_182" data-name="DragAndClose 182" cx="2.5" cy="2.5" r="2.5" transform="translate(1322 451)" fill="#cfd6d6"/>
    <circle id="Ellipse_183" data-name="DragAndClose 183" cx="2.5" cy="2.5" r="2.5" transform="translate(860 484)" fill="#cfd6d6"/>
    <circle id="Ellipse_184" data-name="DragAndClose 184" cx="2.5" cy="2.5" r="2.5" transform="translate(893 484)" fill="#cfd6d6"/>
    <circle id="Ellipse_185" data-name="DragAndClose 185" cx="2.5" cy="2.5" r="2.5" transform="translate(926 484)" fill="#cfd6d6"/>
    <circle id="Ellipse_186" data-name="DragAndClose 186" cx="2.5" cy="2.5" r="2.5" transform="translate(959 484)" fill="#cfd6d6"/>
    <circle id="Ellipse_187" data-name="DragAndClose 187" cx="2.5" cy="2.5" r="2.5" transform="translate(992 484)" fill="#cfd6d6"/>
    <circle id="Ellipse_188" data-name="DragAndClose 188" cx="2.5" cy="2.5" r="2.5" transform="translate(1025 484)" fill="#cfd6d6"/>
    <circle id="Ellipse_189" data-name="DragAndClose 189" cx="2.5" cy="2.5" r="2.5" transform="translate(1058 484)" fill="#cfd6d6"/>
    <circle id="Ellipse_190" data-name="DragAndClose 190" cx="2.5" cy="2.5" r="2.5" transform="translate(1091 484)" fill="#cfd6d6"/>
    <circle id="Ellipse_191" data-name="DragAndClose 191" cx="2.5" cy="2.5" r="2.5" transform="translate(1124 484)" fill="#cfd6d6"/>
    <circle id="Ellipse_192" data-name="DragAndClose 192" cx="2.5" cy="2.5" r="2.5" transform="translate(1157 484)" fill="#cfd6d6"/>
    <circle id="Ellipse_193" data-name="DragAndClose 193" cx="2.5" cy="2.5" r="2.5" transform="translate(1190 484)" fill="#cfd6d6"/>
    <circle id="Ellipse_194" data-name="DragAndClose 194" cx="2.5" cy="2.5" r="2.5" transform="translate(1223 484)" fill="#cfd6d6"/>
    <circle id="Ellipse_195" data-name="DragAndClose 195" cx="2.5" cy="2.5" r="2.5" transform="translate(1256 484)" fill="#cfd6d6"/>
    <circle id="Ellipse_196" data-name="DragAndClose 196" cx="2.5" cy="2.5" r="2.5" transform="translate(1289 484)" fill="#cfd6d6"/>
    <circle id="Ellipse_197" data-name="DragAndClose 197" cx="2.5" cy="2.5" r="2.5" transform="translate(1322 484)" fill="#cfd6d6"/>
    <circle id="Ellipse_198" data-name="DragAndClose 198" cx="2.5" cy="2.5" r="2.5" transform="translate(860 517)" fill="#cfd6d6"/>
    <circle id="Ellipse_199" data-name="DragAndClose 199" cx="2.5" cy="2.5" r="2.5" transform="translate(893 517)" fill="#cfd6d6"/>
    <circle id="Ellipse_200" data-name="DragAndClose 200" cx="2.5" cy="2.5" r="2.5" transform="translate(926 517)" fill="#cfd6d6"/>
    <circle id="Ellipse_201" data-name="DragAndClose 201" cx="2.5" cy="2.5" r="2.5" transform="translate(959 517)" fill="#cfd6d6"/>
    <circle id="Ellipse_202" data-name="DragAndClose 202" cx="2.5" cy="2.5" r="2.5" transform="translate(992 517)" fill="#cfd6d6"/>
    <circle id="Ellipse_203" data-name="DragAndClose 203" cx="2.5" cy="2.5" r="2.5" transform="translate(1025 517)" fill="#cfd6d6"/>
    <circle id="Ellipse_204" data-name="DragAndClose 204" cx="2.5" cy="2.5" r="2.5" transform="translate(1058 517)" fill="#cfd6d6"/>
    <circle id="Ellipse_205" data-name="DragAndClose 205" cx="2.5" cy="2.5" r="2.5" transform="translate(1091 517)" fill="#cfd6d6"/>
    <circle id="Ellipse_206" data-name="DragAndClose 206" cx="2.5" cy="2.5" r="2.5" transform="translate(1124 517)" fill="#cfd6d6"/>
    <circle id="Ellipse_207" data-name="DragAndClose 207" cx="2.5" cy="2.5" r="2.5" transform="translate(1157 517)" fill="#cfd6d6"/>
    <circle id="Ellipse_208" data-name="DragAndClose 208" cx="2.5" cy="2.5" r="2.5" transform="translate(1190 517)" fill="#cfd6d6"/>
    <circle id="Ellipse_209" data-name="DragAndClose 209" cx="2.5" cy="2.5" r="2.5" transform="translate(1223 517)" fill="#cfd6d6"/>
    <circle id="Ellipse_210" data-name="DragAndClose 210" cx="2.5" cy="2.5" r="2.5" transform="translate(1256 517)" fill="#cfd6d6"/>
    <circle id="Ellipse_211" data-name="DragAndClose 211" cx="2.5" cy="2.5" r="2.5" transform="translate(1289 517)" fill="#cfd6d6"/>
    <circle id="Ellipse_212" data-name="DragAndClose 212" cx="2.5" cy="2.5" r="2.5" transform="translate(1322 517)" fill="#cfd6d6"/>
    <circle id="Ellipse_213" data-name="DragAndClose 213" cx="2.5" cy="2.5" r="2.5" transform="translate(860 550)" fill="#cfd6d6"/>
    <circle id="Ellipse_214" data-name="DragAndClose 214" cx="2.5" cy="2.5" r="2.5" transform="translate(893 550)" fill="#cfd6d6"/>
    <circle id="Ellipse_215" data-name="DragAndClose 215" cx="2.5" cy="2.5" r="2.5" transform="translate(926 550)" fill="#cfd6d6"/>
    <circle id="Ellipse_216" data-name="DragAndClose 216" cx="2.5" cy="2.5" r="2.5" transform="translate(959 550)" fill="#cfd6d6"/>
    <circle id="Ellipse_217" data-name="DragAndClose 217" cx="2.5" cy="2.5" r="2.5" transform="translate(992 550)" fill="#cfd6d6"/>
    <circle id="Ellipse_218" data-name="DragAndClose 218" cx="2.5" cy="2.5" r="2.5" transform="translate(1025 550)" fill="#cfd6d6"/>
    <circle id="Ellipse_219" data-name="DragAndClose 219" cx="2.5" cy="2.5" r="2.5" transform="translate(1058 550)" fill="#cfd6d6"/>
    <circle id="Ellipse_220" data-name="DragAndClose 220" cx="2.5" cy="2.5" r="2.5" transform="translate(1091 550)" fill="#cfd6d6"/>
    <circle id="Ellipse_221" data-name="DragAndClose 221" cx="2.5" cy="2.5" r="2.5" transform="translate(1124 550)" fill="#cfd6d6"/>
    <circle id="Ellipse_222" data-name="DragAndClose 222" cx="2.5" cy="2.5" r="2.5" transform="translate(1157 550)" fill="#cfd6d6"/>
    <circle id="Ellipse_223" data-name="DragAndClose 223" cx="2.5" cy="2.5" r="2.5" transform="translate(1190 550)" fill="#cfd6d6"/>
    <circle id="Ellipse_224" data-name="DragAndClose 224" cx="2.5" cy="2.5" r="2.5" transform="translate(1223 550)" fill="#cfd6d6"/>
    <circle id="Ellipse_225" data-name="DragAndClose 225" cx="2.5" cy="2.5" r="2.5" transform="translate(1256 550)" fill="#cfd6d6"/>
    <circle id="Ellipse_226" data-name="DragAndClose 226" cx="2.5" cy="2.5" r="2.5" transform="translate(1289 550)" fill="#cfd6d6"/>
    <circle id="Ellipse_227" data-name="DragAndClose 227" cx="2.5" cy="2.5" r="2.5" transform="translate(1322 550)" fill="#cfd6d6"/>
    <circle id="Ellipse_228" data-name="DragAndClose 228" cx="2.5" cy="2.5" r="2.5" transform="translate(860 583)" fill="#cfd6d6"/>
    <circle id="Ellipse_229" data-name="DragAndClose 229" cx="2.5" cy="2.5" r="2.5" transform="translate(893 583)" fill="#cfd6d6"/>
    <circle id="Ellipse_230" data-name="DragAndClose 230" cx="2.5" cy="2.5" r="2.5" transform="translate(926 583)" fill="#cfd6d6"/>
    <circle id="Ellipse_231" data-name="DragAndClose 231" cx="2.5" cy="2.5" r="2.5" transform="translate(959 583)" fill="#cfd6d6"/>
    <circle id="Ellipse_232" data-name="DragAndClose 232" cx="2.5" cy="2.5" r="2.5" transform="translate(992 583)" fill="#cfd6d6"/>
    <circle id="Ellipse_233" data-name="DragAndClose 233" cx="2.5" cy="2.5" r="2.5" transform="translate(1025 583)" fill="#cfd6d6"/>
    <circle id="Ellipse_234" data-name="DragAndClose 234" cx="2.5" cy="2.5" r="2.5" transform="translate(1058 583)" fill="#cfd6d6"/>
    <circle id="Ellipse_235" data-name="DragAndClose 235" cx="2.5" cy="2.5" r="2.5" transform="translate(1091 583)" fill="#cfd6d6"/>
    <circle id="Ellipse_236" data-name="DragAndClose 236" cx="2.5" cy="2.5" r="2.5" transform="translate(1124 583)" fill="#cfd6d6"/>
    <circle id="Ellipse_237" data-name="DragAndClose 237" cx="2.5" cy="2.5" r="2.5" transform="translate(1157 583)" fill="#cfd6d6"/>
    <circle id="Ellipse_238" data-name="DragAndClose 238" cx="2.5" cy="2.5" r="2.5" transform="translate(1190 583)" fill="#cfd6d6"/>
    <circle id="Ellipse_239" data-name="DragAndClose 239" cx="2.5" cy="2.5" r="2.5" transform="translate(1223 583)" fill="#cfd6d6"/>
    <circle id="Ellipse_240" data-name="DragAndClose 240" cx="2.5" cy="2.5" r="2.5" transform="translate(1256 583)" fill="#cfd6d6"/>
    <circle id="Ellipse_241" data-name="DragAndClose 241" cx="2.5" cy="2.5" r="2.5" transform="translate(1289 583)" fill="#cfd6d6"/>
    <circle id="Ellipse_242" data-name="DragAndClose 242" cx="2.5" cy="2.5" r="2.5" transform="translate(1322 583)" fill="#cfd6d6"/>
  </g>
</svg>
