<svg xmlns="http://www.w3.org/2000/svg" width="196.161" height="334.518" viewBox="0 0 196.161 334.518">
  <g id="shape1" transform="matrix(0.719, 0.695, -0.695, 0.719, -536.807, -1010.265)">
    <circle id="Ellipse_116" data-name="DragAndClose 116" cx="2.5" cy="2.5" r="2.5" transform="translate(1124 319)" fill="#cfd6d6"/>
    <circle id="Ellipse_117" data-name="DragAndClose 117" cx="2.5" cy="2.5" r="2.5" transform="translate(1157 319)" fill="#cfd6d6"/>
    <circle id="Ellipse_118" data-name="DragAndClose 118" cx="2.5" cy="2.5" r="2.5" transform="translate(1190 319)" fill="#cfd6d6"/>
    <circle id="Ellipse_119" data-name="DragAndClose 119" cx="2.5" cy="2.5" r="2.5" transform="translate(1223 319)" fill="#cfd6d6"/>
    <circle id="Ellipse_120" data-name="DragAndClose 120" cx="2.5" cy="2.5" r="2.5" transform="translate(1256 319)" fill="#cfd6d6"/>
    <circle id="Ellipse_121" data-name="DragAndClose 121" cx="2.5" cy="2.5" r="2.5" transform="translate(1289 319)" fill="#cfd6d6"/>
    <circle id="Ellipse_122" data-name="DragAndClose 122" cx="2.5" cy="2.5" r="2.5" transform="translate(1322 319)" fill="#cfd6d6"/>
    <circle id="Ellipse_130" data-name="DragAndClose 130" cx="2.5" cy="2.5" r="2.5" transform="translate(1091 352)" fill="#cfd6d6"/>
    <circle id="Ellipse_131" data-name="DragAndClose 131" cx="2.5" cy="2.5" r="2.5" transform="translate(1124 352)" fill="#cfd6d6"/>
    <circle id="Ellipse_132" data-name="DragAndClose 132" cx="2.5" cy="2.5" r="2.5" transform="translate(1157 352)" fill="#cfd6d6"/>
    <circle id="Ellipse_133" data-name="DragAndClose 133" cx="2.5" cy="2.5" r="2.5" transform="translate(1190 352)" fill="#cfd6d6"/>
    <circle id="Ellipse_134" data-name="DragAndClose 134" cx="2.5" cy="2.5" r="2.5" transform="translate(1223 352)" fill="#cfd6d6"/>
    <circle id="Ellipse_135" data-name="DragAndClose 135" cx="2.5" cy="2.5" r="2.5" transform="translate(1256 352)" fill="#cfd6d6"/>
    <circle id="Ellipse_136" data-name="DragAndClose 136" cx="2.5" cy="2.5" r="2.5" transform="translate(1289 352)" fill="#cfd6d6"/>
    <circle id="Ellipse_137" data-name="DragAndClose 137" cx="2.5" cy="2.5" r="2.5" transform="translate(1322 352)" fill="#cfd6d6"/>
    <circle id="Ellipse_146" data-name="DragAndClose 146" cx="2.5" cy="2.5" r="2.5" transform="translate(1124 385)" fill="#cfd6d6"/>
    <circle id="Ellipse_147" data-name="DragAndClose 147" cx="2.5" cy="2.5" r="2.5" transform="translate(1157 385)" fill="#cfd6d6"/>
    <circle id="Ellipse_148" data-name="DragAndClose 148" cx="2.5" cy="2.5" r="2.5" transform="translate(1190 385)" fill="#cfd6d6"/>
    <circle id="Ellipse_149" data-name="DragAndClose 149" cx="2.5" cy="2.5" r="2.5" transform="translate(1223 385)" fill="#cfd6d6"/>
    <circle id="Ellipse_150" data-name="DragAndClose 150" cx="2.5" cy="2.5" r="2.5" transform="translate(1256 385)" fill="#cfd6d6"/>
    <circle id="Ellipse_151" data-name="DragAndClose 151" cx="2.5" cy="2.5" r="2.5" transform="translate(1289 385)" fill="#cfd6d6"/>
    <circle id="Ellipse_152" data-name="DragAndClose 152" cx="2.5" cy="2.5" r="2.5" transform="translate(1322 385)" fill="#cfd6d6"/>
    <circle id="Ellipse_162" data-name="DragAndClose 162" cx="2.5" cy="2.5" r="2.5" transform="translate(1157 418)" fill="#cfd6d6"/>
    <circle id="Ellipse_163" data-name="DragAndClose 163" cx="2.5" cy="2.5" r="2.5" transform="translate(1190 418)" fill="#cfd6d6"/>
    <circle id="Ellipse_164" data-name="DragAndClose 164" cx="2.5" cy="2.5" r="2.5" transform="translate(1223 418)" fill="#cfd6d6"/>
    <circle id="Ellipse_165" data-name="DragAndClose 165" cx="2.5" cy="2.5" r="2.5" transform="translate(1256 418)" fill="#cfd6d6"/>
    <circle id="Ellipse_166" data-name="DragAndClose 166" cx="2.5" cy="2.5" r="2.5" transform="translate(1289 418)" fill="#cfd6d6"/>
    <circle id="Ellipse_167" data-name="DragAndClose 167" cx="2.5" cy="2.5" r="2.5" transform="translate(1322 418)" fill="#cfd6d6"/>
    <circle id="Ellipse_178" data-name="DragAndClose 178" cx="2.5" cy="2.5" r="2.5" transform="translate(1190 451)" fill="#cfd6d6"/>
    <circle id="Ellipse_179" data-name="DragAndClose 179" cx="2.5" cy="2.5" r="2.5" transform="translate(1223 451)" fill="#cfd6d6"/>
    <circle id="Ellipse_180" data-name="DragAndClose 180" cx="2.5" cy="2.5" r="2.5" transform="translate(1256 451)" fill="#cfd6d6"/>
    <circle id="Ellipse_181" data-name="DragAndClose 181" cx="2.5" cy="2.5" r="2.5" transform="translate(1289 451)" fill="#cfd6d6"/>
    <circle id="Ellipse_182" data-name="DragAndClose 182" cx="2.5" cy="2.5" r="2.5" transform="translate(1322 451)" fill="#cfd6d6"/>
    <circle id="Ellipse_194" data-name="DragAndClose 194" cx="2.5" cy="2.5" r="2.5" transform="translate(1223 484)" fill="#cfd6d6"/>
    <circle id="Ellipse_195" data-name="DragAndClose 195" cx="2.5" cy="2.5" r="2.5" transform="translate(1256 484)" fill="#cfd6d6"/>
    <circle id="Ellipse_196" data-name="DragAndClose 196" cx="2.5" cy="2.5" r="2.5" transform="translate(1289 484)" fill="#cfd6d6"/>
    <circle id="Ellipse_197" data-name="DragAndClose 197" cx="2.5" cy="2.5" r="2.5" transform="translate(1322 484)" fill="#cfd6d6"/>
    <circle id="Ellipse_210" data-name="DragAndClose 210" cx="2.5" cy="2.5" r="2.5" transform="translate(1256 517)" fill="#cfd6d6"/>
    <circle id="Ellipse_211" data-name="DragAndClose 211" cx="2.5" cy="2.5" r="2.5" transform="translate(1289 517)" fill="#cfd6d6"/>
    <circle id="Ellipse_212" data-name="DragAndClose 212" cx="2.5" cy="2.5" r="2.5" transform="translate(1322 517)" fill="#cfd6d6"/>
    <circle id="Ellipse_226" data-name="DragAndClose 226" cx="2.5" cy="2.5" r="2.5" transform="translate(1289 550)" fill="#cfd6d6"/>
    <circle id="Ellipse_227" data-name="DragAndClose 227" cx="2.5" cy="2.5" r="2.5" transform="translate(1322 550)" fill="#cfd6d6"/>
    <circle id="Ellipse_242" data-name="DragAndClose 242" cx="2.5" cy="2.5" r="2.5" transform="translate(1322 583)" fill="#cfd6d6"/>
  </g>
</svg>
