<svg xmlns="http://www.w3.org/2000/svg" xmlns:xlink="http://www.w3.org/1999/xlink" width="340.054" height="277.257" viewBox="0 0 340.054 277.257">
  <defs>
    <clipPath id="clip-path">
      <path id="Path_104" data-name="Path 104" d="M3948.133,450.785c0,3.458,46.108,61.093,103.743,59.94s94.521-95.674,48.413-121.033-94.521,0-117.575-16.138-25.359-34.581-34.581-82.994-70.314-89.91-131.407-19.6-35.733,88.757,16.138,102.59S3893.956,381.623,3948.133,450.785Z" transform="translate(-2883 0)" fill="#fff"/>
    </clipPath>
  </defs>
  <g id="shape2" transform="translate(-898.048 -233.485)" opacity="0.35" clip-path="url(#clip-path)">
    <g id="Group_58" data-name="Group 58" transform="translate(769.06 307.006) rotate(-42)">
      <rect id="Rectangle_37" data-name="Rectangle 37" width="331.976" height="4.611" transform="translate(0)" fill="#fff"/>
      <rect id="Rectangle_38" data-name="Rectangle 38" width="331.976" height="4.611" transform="translate(0 13.832)" fill="#fff"/>
      <rect id="Rectangle_39" data-name="Rectangle 39" width="331.976" height="4.611" transform="translate(0 27.665)" fill="#fff"/>
      <rect id="Rectangle_40" data-name="Rectangle 40" width="331.976" height="4.611" transform="translate(0 41.497)" fill="#fff"/>
      <rect id="Rectangle_41" data-name="Rectangle 41" width="331.976" height="4.611" transform="translate(0 55.329)" fill="#fff"/>
      <rect id="Rectangle_42" data-name="Rectangle 42" width="331.976" height="4.611" transform="translate(0 69.162)" fill="#fff"/>
      <rect id="Rectangle_43" data-name="Rectangle 43" width="331.976" height="4.611" transform="translate(0 82.994)" fill="#fff"/>
      <rect id="Rectangle_44" data-name="Rectangle 44" width="331.976" height="4.611" transform="translate(0 96.826)" fill="#fff"/>
      <rect id="Rectangle_45" data-name="Rectangle 45" width="331.976" height="4.611" transform="translate(0 110.659)" fill="#fff"/>
      <rect id="Rectangle_46" data-name="Rectangle 46" width="331.976" height="4.611" transform="translate(0 124.491)" fill="#fff"/>
      <rect id="Rectangle_47" data-name="Rectangle 47" width="331.976" height="4.611" transform="translate(0 138.323)" fill="#fff"/>
      <rect id="Rectangle_48" data-name="Rectangle 48" width="331.976" height="4.611" transform="translate(0 152.156)" fill="#fff"/>
      <rect id="Rectangle_49" data-name="Rectangle 49" width="331.976" height="4.611" transform="translate(0 165.988)" fill="#fff"/>
      <rect id="Rectangle_50" data-name="Rectangle 50" width="331.976" height="4.611" transform="translate(0 179.82)" fill="#fff"/>
      <rect id="Rectangle_51" data-name="Rectangle 51" width="331.976" height="4.611" transform="translate(0 193.653)" fill="#fff"/>
      <rect id="Rectangle_52" data-name="Rectangle 52" width="331.976" height="4.611" transform="translate(0 207.485)" fill="#fff"/>
      <rect id="Rectangle_53" data-name="Rectangle 53" width="331.976" height="4.611" transform="translate(0 221.317)" fill="#fff"/>
      <rect id="Rectangle_54" data-name="Rectangle 54" width="331.976" height="4.611" transform="translate(0 235.15)" fill="#fff"/>
      <rect id="Rectangle_55" data-name="Rectangle 55" width="331.976" height="4.611" transform="translate(0 248.982)" fill="#fff"/>
      <rect id="Rectangle_56" data-name="Rectangle 56" width="331.976" height="4.611" transform="translate(0 262.814)" fill="#fff"/>
      <rect id="Rectangle_57" data-name="Rectangle 57" width="331.976" height="4.611" transform="translate(0 276.647)" fill="#fff"/>
      <rect id="Rectangle_58" data-name="Rectangle 58" width="331.976" height="4.611" transform="translate(0 290.479)" fill="#fff"/>
      <rect id="Rectangle_59" data-name="Rectangle 59" width="331.976" height="4.611" transform="translate(0 304.311)" fill="#fff"/>
      <rect id="Rectangle_60" data-name="Rectangle 60" width="331.976" height="4.611" transform="translate(0 318.144)" fill="#fff"/>
      <rect id="Rectangle_61" data-name="Rectangle 61" width="331.976" height="4.611" transform="translate(0 331.976)" fill="#fff"/>
      <rect id="Rectangle_62" data-name="Rectangle 62" width="331.976" height="4.611" transform="translate(0 345.808)" fill="#fff"/>
      <rect id="Rectangle_63" data-name="Rectangle 63" width="331.976" height="4.611" transform="translate(0 359.641)" fill="#fff"/>
      <rect id="Rectangle_64" data-name="Rectangle 64" width="331.976" height="4.611" transform="translate(0 373.473)" fill="#fff"/>
      <rect id="Rectangle_65" data-name="Rectangle 65" width="331.976" height="4.611" transform="translate(0 387.305)" fill="#fff"/>
      <rect id="Rectangle_66" data-name="Rectangle 66" width="331.976" height="4.611" transform="translate(0 401.138)" fill="#fff"/>
      <rect id="Rectangle_67" data-name="Rectangle 67" width="331.976" height="4.611" transform="translate(0 414.97)" fill="#fff"/>
      <rect id="Rectangle_68" data-name="Rectangle 68" width="331.976" height="4.611" transform="translate(0 428.802)" fill="#fff"/>
      <rect id="Rectangle_69" data-name="Rectangle 69" width="331.976" height="4.611" transform="translate(0 442.635)" fill="#fff"/>
      <rect id="Rectangle_70" data-name="Rectangle 70" width="331.976" height="4.611" transform="translate(0 456.467)" fill="#fff"/>
      <rect id="Rectangle_71" data-name="Rectangle 71" width="331.976" height="4.611" transform="translate(0 470.299)" fill="#fff"/>
    </g>
  </g>
</svg>
