<svg xmlns="http://www.w3.org/2000/svg" width="39.361" height="33.758" viewBox="0 0 39.361 33.758">
  <g id="shine" transform="translate(0 -36.442)">
    <path id="SVGCleanerId_0" d="M191.616,65.424a17.555,17.555,0,0,1-2.452-.626c-5.685-1.912-8.9-6.557-9.957-12.537a.517.517,0,0,0-1.018,0c-1.229,6.949-5.319,11.862-12.374,13.172a.517.517,0,0,0,0,1.016c6.989,1.293,11.151,6.2,12.376,13.091a.517.517,0,0,0,1.018,0c.624-3.555,2.374-8.384,7.174-11.2a16.027,16.027,0,0,1,5.234-1.894.517.517,0,0,0,0-1.017Z" transform="translate(-152.68 -14.21)" fill="#f4a32c"/>
    <g id="Group_63" data-name="Group 63" transform="translate(12.715 37.626)">
      <path id="SVGCleanerId_0_1_" d="M191.616,65.424a17.555,17.555,0,0,1-2.452-.626c-5.685-1.912-8.9-6.557-9.957-12.537a.517.517,0,0,0-1.018,0c-1.229,6.949-5.319,11.862-12.374,13.172a.517.517,0,0,0,0,1.016c6.989,1.293,11.151,6.2,12.376,13.091a.517.517,0,0,0,1.018,0c.624-3.555,2.374-8.384,7.174-11.2a16.027,16.027,0,0,1,5.234-1.894.517.517,0,0,0,0-1.017Z" transform="translate(-165.395 -51.836)" fill="#4a09f4"/>
    </g>
    <path id="Path_152" data-name="Path 152" d="M171.217,202.507a15.843,15.843,0,0,1-5.4,2.014.517.517,0,0,0,0,1.016c6.989,1.293,11.151,6.2,12.376,13.091a.517.517,0,0,0,1.018,0,18.435,18.435,0,0,1,2.4-6.518A14.278,14.278,0,0,0,171.217,202.507Z" transform="translate(-152.68 -153.298)" fill="#4a09f4"/>
    <path id="Path_153" data-name="Path 153" d="M99.3,347.765a6.138,6.138,0,0,1-3.989-4.237.517.517,0,0,0-.987,0,6.217,6.217,0,0,1-3.989,4.235.517.517,0,0,0,0,.978,6.214,6.214,0,0,1,3.989,4.237.517.517,0,0,0,.987,0,6.335,6.335,0,0,1,2.452-3.476h0c1.268-.869,1.89-.616,1.889-1.246A.517.517,0,0,0,99.3,347.765Z" transform="translate(-83.068 -283.142)" fill="#26cc83"/>
    <path id="Path_154" data-name="Path 154" d="M92.4,388.2c-.015-.005-.028-.012-.042-.018a6.1,6.1,0,0,1-2.019,1.138.517.517,0,0,0,0,.978,6.213,6.213,0,0,1,3.989,4.238.52.52,0,0,0,.494.362c.728,0,.341-.871,1.554-2.5A6.2,6.2,0,0,0,92.4,388.2Z" transform="translate(-83.069 -324.7)" fill="#26cc83"/>
    <path id="Path_155" data-name="Path 155" d="M9.325,41.043a6.139,6.139,0,0,1-3.989-4.237.517.517,0,0,0-.987,0A6.218,6.218,0,0,1,.361,41.041a.517.517,0,0,0,0,.978A6.214,6.214,0,0,1,4.35,46.256a.517.517,0,0,0,.987,0A6.19,6.19,0,0,1,7.79,42.779c1.264-.866,1.89-.62,1.889-1.246A.517.517,0,0,0,9.325,41.043Z" transform="translate(-0.011)" fill="#eb4962"/>
    <path id="Path_156" data-name="Path 156" d="M2.211,83.146C.786,84.285,0,83.967,0,84.643a.517.517,0,0,0,.349.489A6.214,6.214,0,0,1,4.339,89.37a.519.519,0,0,0,.494.362c.692,0,.359-.809,1.456-2.367A6.252,6.252,0,0,0,2.211,83.146Z" transform="translate(0 -43.113)" fill="#eb4962"/>
  </g>
</svg>
