<svg xmlns="http://www.w3.org/2000/svg" width="38.702" height="34.104" viewBox="0 0 38.702 34.104">
  <g id="shop" transform="translate(0 2.29)">
    <path id="Path_140" data-name="Path 140" d="M352.683,385.148a3.812,3.812,0,1,0,3.811,3.812A3.812,3.812,0,0,0,352.683,385.148Zm0,5.917a2.105,2.105,0,1,1,2.1-2.105A2.1,2.1,0,0,1,352.683,391.065Zm0,0" transform="translate(-325.027 -360.958)" fill="#a7a7be"/>
    <path id="Path_141" data-name="Path 141" d="M37.848,3.087H7.565L7.033.92a4.2,4.2,0,0,0-4.1-3.21H.853A.853.853,0,0,0,0-1.436a.853.853,0,0,0,.853.853H2.931a2.5,2.5,0,0,1,2.444,1.9L9.519,18.242a4.191,4.191,0,0,0,4.1,3.193H31.346a4.187,4.187,0,0,0,4.117-3.263L38.68,4.11a.83.83,0,0,0-.164-.712A.844.844,0,0,0,37.848,3.087ZM33.8,17.8a2.483,2.483,0,0,1-2.454,1.932H13.621a2.49,2.49,0,0,1-2.444-1.895L7.983,4.794H36.777Zm0,0" transform="translate(0 0)" fill="#a7a7be"/>
    <path id="Path_142" data-name="Path 142" d="M183.789,385.148a3.812,3.812,0,1,0,3.812,3.812A3.812,3.812,0,0,0,183.789,385.148Zm0,5.917a2.105,2.105,0,1,1,2.1-2.105A2.105,2.105,0,0,1,183.789,391.065Zm0,0" transform="translate(-167.676 -360.958)" fill="#a7a7be"/>
  </g>
</svg>
