<svg xmlns="http://www.w3.org/2000/svg" width="18.945" height="11.488" viewBox="0 0 18.945 11.488">
  <path id="show_icon" data-name="show icon" d="M1146.153,23250.592a.7.7,0,0,1-.02-.85,15.391,15.391,0,0,1,2.626-2.652,13.591,13.591,0,0,1,2.974-1.834,9.7,9.7,0,0,1,3.867-.848c3.24,0,6.33,1.793,9.191,5.307a.7.7,0,0,1,.019.852,15.467,15.467,0,0,1-2.625,2.65,13.586,13.586,0,0,1-2.974,1.834,9.666,9.666,0,0,1-3.867.846C1152.1,23255.9,1149.011,23254.111,1146.153,23250.592Zm3.5-2.437a14.915,14.915,0,0,0-2.065,1.992c2.475,2.893,5.081,4.354,7.753,4.354a9.861,9.861,0,0,0,5.94-2.344,14.928,14.928,0,0,0,2.065-1.994c-2.475-2.889-5.081-4.354-7.753-4.354A9.86,9.86,0,0,0,1149.657,23248.154Zm2.548,2a3.269,3.269,0,0,1,3.263-3.266.7.7,0,0,1,0,1.4,1.869,1.869,0,1,0,1.871,1.869.7.7,0,0,1,1.392,0,3.264,3.264,0,0,1-6.527,0Z" transform="translate(-1146 -23244.408)" fill="#6D65EC"/>
</svg>
