<svg xmlns="http://www.w3.org/2000/svg" width="32.763" height="32.763" viewBox="0 0 32.763 32.763">
  <path id="sport" d="M16.349.011a16.38,16.38,0,1,0,11.582,4.8A16.381,16.381,0,0,0,16.349.011Zm10.2,6.216a14.287,14.287,0,0,1,4.113,8.57,14.289,14.289,0,0,1-8.586-4.129q-.387-.387-.741-.8a61.668,61.668,0,0,1,5.214-3.642Zm-6.4,2.053a14.322,14.322,0,0,1-2.2-6.2,14.245,14.245,0,0,1,7.04,2.787q-2.5,1.592-4.84,3.412ZM6.168,6.21A14.3,14.3,0,0,1,15.943,2,16.294,16.294,0,0,0,18.59,9.525,64.748,64.748,0,0,0,9.621,18.58a16.213,16.213,0,0,0-7.66-2.687A14.3,14.3,0,0,1,6.168,6.21Zm4.541,15.821a14.334,14.334,0,0,1,4.139,8.68,14.282,14.282,0,0,1-8.557-4.019l.016.01.427-.684q1.508-2.412,3.235-4.677Q10.349,21.673,10.709,22.031ZM5.054,24.968l-.123.2a14.257,14.257,0,0,1-2.9-7.273A14.25,14.25,0,0,1,8.39,20.145Q6.612,22.479,5.054,24.968Zm21.475,1.6a14.3,14.3,0,0,1-9.684,4.208,16.3,16.3,0,0,0-4.734-10.151q-.443-.443-.912-.847a62.714,62.714,0,0,1,8.586-8.672q.422.494.886.96A16.259,16.259,0,0,0,30.74,16.8a14.3,14.3,0,0,1-4.211,9.773Zm0,0" transform="translate(0.033 -0.011)" fill="#a7a7be"/>
</svg>
