<svg xmlns="http://www.w3.org/2000/svg" width="12.104" height="18.498" viewBox="0 0 12.104 18.498">
  <g id="status" transform="translate(-1080.491 -520.675)">
    <path id="Path_1" data-name="Path 1" d="M1090.167,531.93h-.162a1.905,1.905,0,0,1,.6-1.152,5.136,5.136,0,0,0,1.985-4.052,6.053,6.053,0,0,0-12.051-.812,5.252,5.252,0,0,0,1.922,4.855,1.942,1.942,0,0,1,.615,1.161h-.162a1.143,1.143,0,0,0-1.214,1.051v.626c0,1.838,1.852,3.334,4.128,3.334h1.42c2.276,0,4.127-1.5,4.127-3.334v-.626A1.143,1.143,0,0,0,1090.167,531.93Zm-8.7-5.9a5.142,5.142,0,0,1,4.477-4.394,5.121,5.121,0,0,1,5.717,5.086,4.227,4.227,0,0,1-1.679,3.362,2.838,2.838,0,0,0-.916,1.842h-5.047a2.871,2.871,0,0,0-.926-1.85A4.338,4.338,0,0,1,1081.469,526.034Zm8.98,7.573c0,1.324-1.433,2.4-3.2,2.4h-1.42c-1.762,0-3.2-1.077-3.2-2.4v-.626a.31.31,0,0,1,.281-.119h7.248a.311.311,0,0,1,.281.119Z" fill="#a7a7be"/>
    <path id="Path_2" data-name="Path 2" d="M1097.036,577.209h-1.943a.466.466,0,0,0,0,.932h1.943a.466.466,0,1,0,0-.932Z" transform="translate(-9.744 -38.968)" fill="#a7a7be"/>
  </g>
</svg>
