<svg id="stopwatch" xmlns="http://www.w3.org/2000/svg" width="31.442" height="35.995" viewBox="0 0 31.442 35.995">
  <path id="Path_333" data-name="Path 333" d="M80.2,146.42a14.719,14.719,0,0,1-9.191-26.165,14.722,14.722,0,0,0,6.91,27.686,14.551,14.551,0,0,0,9.191-3.262,14.521,14.521,0,0,1-6.91,1.741Z" transform="translate(-62.203 -113.011)" fill="#d4e1f4"/>
  <path id="Path_334" data-name="Path 334" d="M73.819,32.167l.683-1.188.391.226a1.287,1.287,0,0,0,.647.175,1.3,1.3,0,0,0,.651-2.416l-1.71-.991a1.3,1.3,0,1,0-1.3,2.241h0l.4.231L72.92,31.6a15.57,15.57,0,0,0-6.635-2.1V27.586h.453a1.293,1.293,0,1,0,0-2.586H63.246a1.293,1.293,0,0,0,0,2.586H63.7v1.906a15.569,15.569,0,0,0-6.635,2.1L56.4,30.445l.4-.231h0a1.3,1.3,0,0,0-1.3-2.241l-1.71.991a1.295,1.295,0,1,0,1.3,2.241l.391-.226.683,1.188a15.721,15.721,0,1,0,17.655,0Zm-.186-3.187a.23.23,0,0,1,.315-.084l1.71.991a.23.23,0,0,1-.231.4l-.854-.495h0l-.855-.5h0A.231.231,0,0,1,73.633,28.979Zm-19.076,1.3a.23.23,0,0,1-.231-.4l1.71-.991a.227.227,0,0,1,.115-.031.234.234,0,0,1,.06.008.23.23,0,0,1,.056.422h0l-.855.5h0Zm8.458-3.992a.229.229,0,0,1,.231-.228h3.492a.228.228,0,0,1,0,.456H63.246a.229.229,0,0,1-.231-.228Zm2.205,1.293v1.825h-.456V27.586ZM64.992,59.93A14.714,14.714,0,1,1,79.648,45.216,14.7,14.7,0,0,1,64.992,59.93Z" transform="translate(-49.271 -25)" fill="#0635c9"/>
  <path id="Path_335" data-name="Path 335" d="M133.114,196.278a8.439,8.439,0,0,0,7.278-4.2h.783a2.071,2.071,0,0,0,2.053-2.071V185.57a2.081,2.081,0,0,0-2.053-2.083h-.807a8.407,8.407,0,0,0-14.508,0h-.807A2.081,2.081,0,0,0,123,185.57v4.439a2.071,2.071,0,0,0,2.054,2.071h.783a8.43,8.43,0,0,0,7.278,4.2Zm0-15.884a7.423,7.423,0,0,1,5.986,3.093H127.128A7.414,7.414,0,0,1,133.114,180.394Zm-9.049,9.615V185.57a1.016,1.016,0,0,1,.989-1.018h16.122a1.016,1.016,0,0,1,.989,1.018v4.439a1,1,0,0,1-.989,1.007H125.053A1,1,0,0,1,124.065,190.008Zm15.064,2.071a7.34,7.34,0,0,1-12.03,0Z" transform="translate(-117.393 -167.593)" fill="#1ae5be"/>
</svg>
