<svg xmlns="http://www.w3.org/2000/svg" width="49.149" height="35.082" viewBox="0 0 49.149 35.082">
  <path id="student" d="M77.071,133.753V120.8l1.743-.726c1.22-.508,1.4-1.249,1.4-1.645s-.182-1.138-1.4-1.645l-20.57-8.565a7.512,7.512,0,0,0-5.1,0l-20.57,8.565c-1.22.508-1.4,1.249-1.4,1.645s.182,1.137,1.4,1.645l7.088,2.951v10.662a.731.731,0,0,0,.764.724h1.087c3.985,0,7.993,3.678,10.645,6.1,1.775,1.62,2.592,2.345,3.362,2.345s1.571-.731,3.337-2.351c2.639-2.42,6.627-6.092,10.493-6.092h1.291a.731.731,0,0,0,.764-.724V123.164l4.145-1.726v12.3a4.034,4.034,0,1,0,1.527.01ZM32.744,118.432a1.5,1.5,0,0,1,.411-.236l20.57-8.564a6.066,6.066,0,0,1,3.931,0l20.57,8.564a1.5,1.5,0,0,1,.412.236,1.5,1.5,0,0,1-.411.236l-20.57,8.565a6.066,6.066,0,0,1-3.931,0l-20.57-8.565A1.5,1.5,0,0,1,32.744,118.432Zm37.127,14.455h-.528c-4.46,0-8.711,3.919-11.525,6.5a16.393,16.393,0,0,1-2.309,1.931,16.069,16.069,0,0,1-2.329-1.938c-2.826-2.579-7.1-6.492-11.675-6.492h-.323v-9.223l11.955,4.978a7.508,7.508,0,0,0,5.1,0L69.872,123.8Zm6.409,7.357a2.521,2.521,0,1,1,2.509-2.521A2.521,2.521,0,0,1,76.28,140.245Z" transform="translate(-31.167 -107.775)" fill="#a7a7be"/>
</svg>
