<svg xmlns="http://www.w3.org/2000/svg" width="22.723" height="22.809" viewBox="0 0 22.723 22.809">
  <g id="telephone_icon" data-name="telephone icon" transform="translate(-0.912 0)">
    <path id="Path_101" data-name="Path 101" d="M5.516,15.162a24.2,24.2,0,0,0,8.049,6.3,12.527,12.527,0,0,0,4.5,1.333c.109,0,.213.009.321.009a3.73,3.73,0,0,0,2.892-1.243.1.1,0,0,0,.019-.024,12.179,12.179,0,0,1,.912-.945c.222-.213.449-.435.666-.662a2.282,2.282,0,0,0-.009-3.4L20.03,13.7a2.3,2.3,0,0,0-1.664-.766,2.377,2.377,0,0,0-1.683.761l-1.692,1.692c-.156-.09-.317-.17-.468-.246a5.844,5.844,0,0,1-.52-.284A17.907,17.907,0,0,1,9.727,10.96,10.312,10.312,0,0,1,8.281,8.654c.444-.4.86-.822,1.262-1.234.142-.147.288-.293.435-.44a2.423,2.423,0,0,0,.785-1.7,2.4,2.4,0,0,0-.785-1.7L8.569,2.169C8.4,2,8.248,1.843,8.087,1.678c-.312-.321-.638-.652-.959-.95A2.356,2.356,0,0,0,5.464,0,2.426,2.426,0,0,0,3.782.733L2.014,2.5A3.632,3.632,0,0,0,.932,4.825a8.747,8.747,0,0,0,.657,3.781A22,22,0,0,0,5.516,15.162ZM2.085,4.925a2.5,2.5,0,0,1,.751-1.607L4.595,1.56a1.273,1.273,0,0,1,.87-.4,1.208,1.208,0,0,1,.851.411c.317.293.614.6.936.926.161.165.326.331.492.5L9.151,4.4a1.283,1.283,0,0,1,.444.884,1.283,1.283,0,0,1-.444.884c-.147.147-.293.3-.44.444-.44.444-.851.865-1.3,1.267l-.024.024a.924.924,0,0,0-.236,1.049c0,.014.009.024.014.038a11.123,11.123,0,0,0,1.659,2.7,18.9,18.9,0,0,0,4.556,4.15,6.765,6.765,0,0,0,.624.34,5.844,5.844,0,0,1,.52.284l.052.028a.988.988,0,0,0,.458.118,1,1,0,0,0,.7-.321L17.5,14.524a1.251,1.251,0,0,1,.865-.421,1.187,1.187,0,0,1,.837.421l2.85,2.845a1.14,1.14,0,0,1-.014,1.782c-.2.213-.406.416-.629.629a13.611,13.611,0,0,0-.988,1.026,2.6,2.6,0,0,1-2.028.86c-.08,0-.165,0-.246-.009a11.381,11.381,0,0,1-4.074-1.219,22.988,22.988,0,0,1-7.661-6A21.054,21.054,0,0,1,2.68,8.219,7.623,7.623,0,0,1,2.085,4.925Z" transform="translate(0 0)" fill="#888891"/>
  </g>
</svg>
