<svg xmlns="http://www.w3.org/2000/svg" width="17.39" height="18.064" viewBox="0 0 17.39 18.064">
  <path id="Path_115" data-name="Path 115" d="M726.55,23373.063a2.261,2.261,0,0,1-2.265-2.268V23370h-2.02a2.262,2.262,0,0,1-2.267-2.266v-10.471a2.255,2.255,0,0,1,2.236-2.266h8.573a2.305,2.305,0,0,1,2.3,2.266v.826h1.99a2.3,2.3,0,0,1,2.3,2.234v10.471a2.261,2.261,0,0,1-2.265,2.268Zm-1.348-2.268a1.405,1.405,0,0,0,1.317,1.379h8.573a1.359,1.359,0,0,0,1.348-1.346v-10.471a1.363,1.363,0,0,0-1.348-1.352H733.1v8.729a2.261,2.261,0,0,1-2.265,2.266H725.2Zm-4.318-13.531v10.439a1.361,1.361,0,0,0,1.349,1.348h8.573a1.361,1.361,0,0,0,1.347-1.348h.031v-10.439a1.359,1.359,0,0,0-1.348-1.346h-8.573A1.408,1.408,0,0,0,720.885,23357.264Zm2.789,7.133a.459.459,0,1,1,0-.918h2.418a.459.459,0,0,1,0,.918Zm0-1.986a.461.461,0,0,1,0-.922h5.692a.461.461,0,0,1,0,.922Zm0-2.023a.461.461,0,0,1,0-.922h5.692a.461.461,0,0,1,0,.922Z" transform="translate(-719.998 -23354.998)" fill="#a7a7be"/>
</svg>
