<svg xmlns="http://www.w3.org/2000/svg" width="18.775" height="18.774" viewBox="0 0 18.775 18.774">
  <path id="Path_152" data-name="Path 152" d="M672.182,637.947h-6.89v-6.89a1.248,1.248,0,0,0-1.249-1.249c-.69,0-1.249,1.249-1.249,1.249v6.89H655.9a1.249,1.249,0,0,0,0,2.5H662.8v6.89a1.248,1.248,0,0,0,1.249,1.249c.689,0,1.249-1.249,1.249-1.249s-1.722-5.167,0-6.89,6.89,0,6.89,0c.69,0,1.249-1.249,1.249-1.249S672.872,637.947,672.182,637.947Z" transform="translate(-654.656 -629.809)" fill="#e5e9fa"/>
</svg>
