<svg xmlns="http://www.w3.org/2000/svg" width="24.946" height="21.503" viewBox="0 0 24.946 21.503">
  <g id="upload_icon" data-name="upload icon" transform="translate(-513.85 -613.992)">
    <path id="Path_48" data-name="Path 48" d="M540.129,637.95a.643.643,0,0,0,.91-.908l-4.485-4.495-.011-.009a.692.692,0,0,0-.086-.071c-.01-.006-.021-.011-.031-.017a.62.62,0,0,0-.079-.042c-.016-.007-.033-.01-.05-.016a.533.533,0,0,0-.2-.034h0a.667.667,0,0,0-.127.013c-.022,0-.043.013-.065.02s-.038.01-.055.017a.74.74,0,0,0-.066.035c-.015.009-.03.015-.044.024a.671.671,0,0,0-.1.078h0l-4.495,4.485a.643.643,0,1,0,.908.91l3.4-3.39-.011,10.8a.643.643,0,0,0,.642.644h0a.643.643,0,0,0,.643-.642l.011-10.8Z" transform="translate(-9.78 -10.497)" fill="#fff"/>
    <path id="Path_49" data-name="Path 49" d="M537.1,620.938a6.278,6.278,0,0,0-4.558-1.965h0a.612.612,0,0,1-.558-.386,7.471,7.471,0,0,0-6.9-4.595,8.1,8.1,0,0,0-5.765,2.457,6.329,6.329,0,0,0-1.818,4.76.615.615,0,0,1-.423.585,4.974,4.974,0,0,0-3.207,5.044,5.117,5.117,0,0,0,5.171,4.627H522.3a.643.643,0,1,0,0-1.285h-3.261a3.828,3.828,0,0,1-3.889-3.436A3.7,3.7,0,0,1,517.529,623a1.9,1.9,0,0,0,1.25-1.849,5.094,5.094,0,0,1,1.464-3.812,6.792,6.792,0,0,1,4.835-2.058,6.188,6.188,0,0,1,5.717,3.806,1.9,1.9,0,0,0,1.752,1.174h0a4.962,4.962,0,0,1,4.952,5.27,5.083,5.083,0,0,1-5.17,4.653h-1.976a.643.643,0,1,0,0,1.285h1.976a6.369,6.369,0,0,0,6.453-5.861A6.2,6.2,0,0,0,537.1,620.938Z" transform="translate(0 0)" fill="#fff"/>
  </g>
</svg>
