<svg xmlns="http://www.w3.org/2000/svg" width="18.208" height="22.778" viewBox="0 0 18.208 22.778">
  <g id="name_family_icon" data-name="name family icon" transform="translate(-628.897 -228.96)">
    <path id="Path_25" data-name="Path 25" d="M642.353,240.526a5.783,5.783,0,1,0-5.783-5.783A5.79,5.79,0,0,0,642.353,240.526Zm0-10.268a4.485,4.485,0,1,1-4.485,4.485A4.49,4.49,0,0,1,642.353,230.258Z" transform="translate(-4.352)" fill="#26CC83"/>
    <path id="Path_26" data-name="Path 26" d="M642.979,261.574h-9.956A4.131,4.131,0,0,0,628.9,265.7v.412a4.131,4.131,0,0,0,4.126,4.126h9.956a4.131,4.131,0,0,0,4.126-4.126V265.7A4.131,4.131,0,0,0,642.979,261.574Zm2.828,4.538a2.831,2.831,0,0,1-2.828,2.828h-9.956a2.831,2.831,0,0,1-2.828-2.828V265.7a2.831,2.831,0,0,1,2.828-2.828h9.956a2.831,2.831,0,0,1,2.828,2.828Z" transform="translate(0 -18.5)" fill="#26CC83"/>
  </g>
</svg>
